<svg width="39" height="28" viewBox="0 0 39 28" fill="none" xmlns="http://www.w3.org/2000/svg">
<path d="M4.61572 27.021C3.6792 26.3683 2.67578 25.1608 1.60547 23.3986C0.535156 21.5711 0 19.3846 0 16.8392C0 14.2284 0.468262 11.7483 1.40478 9.3986C2.34131 7.04895 3.44506 5.25408 4.71606 4.01399C7.45873 1.338 9.53246 0 10.9372 0C11.2717 0 11.5727 0.163172 11.8403 0.489516C12.1079 0.750585 12.2417 1.04429 12.2417 1.37063C12.2417 1.6317 11.9407 2.02331 11.3386 2.54546C10.8035 3.00233 10.168 3.49185 9.43212 4.01399C8.69628 4.53613 8.02734 5.41725 7.42529 6.65734C6.89013 7.89744 6.62255 9.3986 6.62255 11.1608C6.62255 12.8578 6.99047 14.3263 7.72631 15.5664C8.46215 16.7413 9.26489 17.5571 10.1345 18.014C12.4089 19.2541 13.5461 20.4942 13.5461 21.7343C13.5461 22.1259 13.0444 22.8112 12.041 23.7902C11.1045 24.704 10.3352 25.4872 9.73314 26.1399C8.79662 27.38 7.96044 28 7.2246 28C6.48876 28 5.61914 27.6737 4.61572 27.021Z" fill="#D84B53"/>
<path d="M30.0696 27.021C29.1331 26.3683 28.1297 25.1608 27.0593 23.3986C25.989 21.5711 25.4539 19.3846 25.4539 16.8392C25.4539 14.2284 25.9221 11.7483 26.8587 9.3986C27.7952 7.04895 28.8989 5.25408 30.1699 4.01399C32.9126 1.338 34.9863 0 36.3911 0C36.7256 0 37.0266 0.163172 37.2942 0.489516C37.5618 0.750585 37.6956 1.04429 37.6956 1.37063C37.6956 1.6317 37.3945 2.02331 36.7925 2.54546C36.2573 3.00233 35.6218 3.49185 34.886 4.01399C34.1502 4.53613 33.4812 5.41725 32.8792 6.65734C32.344 7.89744 32.0764 9.3986 32.0764 11.1608C32.0764 12.8578 32.4443 14.3263 33.1802 15.5664C33.916 16.7413 34.7188 17.5571 35.5884 18.014C37.8628 19.2541 39 20.4942 39 21.7343C39 22.1259 38.4983 22.8112 37.4949 23.7902C36.5584 24.704 35.7891 25.4872 35.187 26.1399C34.2505 27.38 33.4143 28 32.6785 28C31.9426 28 31.073 27.6737 30.0696 27.021Z" fill="#D84B53"/>
</svg>
