<svg width="1264" height="741" viewBox="0 0 1264 741" fill="none" xmlns="http://www.w3.org/2000/svg">
<path d="M849.032 161.299L848.664 159.831L851.418 161.116L852.794 159.739L854.721 157.811L857.567 154.967L859.311 157.077H860.228L862.522 154.784L864.633 152.306L868.671 150.471L871.607 152.673L869.956 157.262V159.831L868.029 161.758L865 163.135L861.696 164.42H858.393L855.915 166.899L851.969 165.521L849.949 162.584L849.032 161.299Z" stroke="white"/>
<path d="M842.238 165.156H836.364L834.437 167.083L831.408 169.194L829.205 166.991L823.883 168.643L824.25 171.947L825.628 173.324L827.646 175.343L829.023 176.719L827.004 178.372L824.25 175.986L822.782 177.453L820.763 175.434L816.174 176.352L814.155 175.252L813.237 177.637L814.706 179.105L811.952 180.574V184.061L814.156 186.263L813.604 188.834H815.623L818.193 191.404L817.458 194.341L820.763 195.992L825.168 196.176L827.004 198.011H830.307L834.161 196.91V193.973L831.776 191.77L833.061 190.485L834.988 192.412L838.383 186.265L841.596 183.052L842.973 184.428L845.91 181.492L846.826 178.738L843.523 177.637L841.32 179.84L838.568 177.821L835.263 175.801L831.959 173.416L833.061 171.03L834.805 169.286L836.181 173.965L838.291 176.077L841.87 176.719L844.074 175.801H845.91L847.743 173.966L846.826 170.111H843.89L844.625 166.808V164.422L842.238 165.156Z" stroke="white"/>
<path d="M845.359 197.461L843.706 198.929L844.991 202.6L847.103 204.712L848.847 201.315V198.563L847.562 197.277L845.359 197.461Z" stroke="white"/>
<path d="M852.884 200.763L850.772 202.875L851.967 205.719L853.986 207.738L852.7 210.675L853.803 211.777L855.454 208.289L859.675 207.371L863.347 205.902L868.302 202.966L865.733 198.194H862.245L857.289 196.541L854.994 198.653L852.884 200.763Z" stroke="white"/>
<path d="M811.585 192.87L809.933 191.218L806.996 191.035L808.924 192.962L810.116 197.275H812.502V194.889L811.585 192.87Z" stroke="white"/>
<path d="M719.808 264.272L716.414 267.668V269.961H719.257L720.176 272.164L722.562 271.063L725.317 268.309V263.904H721.829L719.808 264.272Z" stroke="white"/>
<path d="M839.475 135.051L838.374 137.07L839.567 138.263L840.944 137.07L839.475 135.051Z" stroke="white"/>
<path d="M829.197 215.263L825.709 214.529L824.608 215.447L826.628 216.364L829.197 218.384L830.298 216.915L829.197 215.263Z" stroke="white"/>
<path d="M681.254 218.385L680.519 219.487L682.171 220.587L682.904 219.302L681.254 218.385Z" stroke="white"/>
<path d="M673.36 202.049L671.523 203.15L674.094 204.435L675.929 205.719L677.948 205.169L677.397 202.783L675.378 203.333L673.36 202.049Z" stroke="white"/>
<path d="M655.373 193.054V190.485L655.556 185.895L654.272 183.326L652.436 183.509L649.867 186.629L650.05 189.383L648.948 191.219L649.682 196.175L647.48 198.378L647.663 203.333L646.562 207.555L645.644 211.777L647.296 212.694L650.784 209.941L652.803 208.657L657.392 206.271L661.063 205.903L665.653 202.415L667.854 198.193L666.386 194.522L664.734 191.769L662.531 192.687L660.329 188.832L658.676 187.18L656.657 189.566L655.373 193.054Z" stroke="white"/>
<path d="M638.854 173.415L637.203 175.435L635.734 178.188L634.449 177.637L635.367 174.15V170.479L631.329 171.764C631.329 171.764 628.943 172.315 628.392 172.498C627.841 172.681 625.088 173.6 625.088 173.6L623.803 176.353L623.068 178.739L621.417 180.759L621.968 183.144L618.848 185.53L620.316 186.815L622.517 186.081L624.354 188.65L624.537 191.036L626.188 193.055L630.41 193.422L630.961 195.808L633.898 193.973L635.367 196.359L639.404 197.827L643.259 195.991L645.096 193.421L643.627 190.484L641.24 187.179L643.076 185.894L643.81 182.774L642.892 179.286L643.259 175.799L638.854 173.415Z" stroke="white"/>
<path d="M635.55 229.582L633.714 231.783L631.328 232.334L633.531 233.986L635.733 231.783L635.55 229.582Z" stroke="white"/>
<path d="M604.898 228.848L603.98 230.315L605.264 231.417L606.917 229.03L604.898 228.848Z" stroke="white"/>
<path d="M585.992 279.141L583.789 280.243C583.789 280.243 584.706 282.996 584.706 282.628C584.706 282.261 586.358 281.894 586.358 281.894L585.992 279.141Z" stroke="white"/>
<path d="M570.206 262.621L568.187 264.272L569.287 266.475L571.122 266.108L570.206 262.621Z" stroke="white"/>
<path d="M569.472 286.668L569.105 288.686H572.226L573.878 290.338L574.062 287.584L572.226 287.218L569.472 286.668Z" stroke="white"/>
<path d="M558.825 177.82L557.723 178.922L559.008 179.656L561.027 181.125L561.578 179.289L558.825 177.82Z" stroke="white"/>
<path d="M547.629 305.754L546.344 307.406L547.078 309.608L548.363 311.261L550.198 309.242L550.932 306.856L549.281 305.203L547.629 305.754Z" stroke="white"/>
<path d="M538.269 311.996L536.249 314.016L534.047 315.851L536.066 317.319L537.718 315.851H540.288L542.674 313.648L540.471 311.445L538.269 311.996Z" stroke="white"/>
<path d="M531.659 291.621L530.008 293.089L531.109 294.741L533.311 293.273L536.065 294.007L535.33 292.355L531.659 291.621Z" stroke="white"/>
<path d="M523.214 298.965L522.297 301.351L523.765 302.636L525.417 300.616L523.214 298.965Z" stroke="white"/>
<path d="M503.579 287.034L501.559 288.503L502.294 290.155L500.825 292.173L501.192 293.459L504.496 294.376L507.616 292.908L509.452 293.092V291.256L506.516 290.522L507.984 288.87L506.331 286.484L504.313 287.219L503.579 287.034Z" stroke="white"/>
<path d="M423.917 316.033L420.98 317.502L418.777 318.236L419.328 323.009L419.695 325.579L421.714 326.129L422.448 329.983L426.304 330.351L427.588 327.231L425.752 324.111L425.936 320.623L423.917 316.033Z" stroke="white"/>
<path d="M358.939 300.066L354.902 301.167L352.515 304.288L350.68 306.674L351.964 310.161L354.902 311.263L357.654 312.363L360.224 310.528L363.344 311.079L364.996 307.225L362.427 303.921L362.242 301.167L358.939 300.066Z" stroke="white"/>
<path d="M239.997 302.635L239.263 303.735L240.548 305.388L242.2 303.735L239.997 302.635Z" stroke="white"/>
<path d="M411.066 305.205H409.046L406.844 301.901L405.56 302.635L401.706 298.964L398.768 295.844L399.869 292.54L402.806 291.622L403.907 289.787L401.888 288.136L402.072 283.729L400.787 283.363L399.502 280.058L396.749 279.875L394.547 276.755L395.281 272.716L398.217 268.679L401.706 269.045L402.806 270.33L404.09 270.881L404.641 268.494L408.863 267.21L412.168 263.723L409.965 261.337L412.902 259.501L416.205 260.786L417.124 258.032V255.279H421.345L423.364 257.298L425.474 255.188L425.933 253.261L430.523 252.342L428.962 250.782L425.016 249.405V247.938L429.605 246.652L434.377 245.368L436.763 242.982H439.883V240.779L444.289 240.595L441.903 238.209L445.758 238.026L447.226 239.494L447.041 235.823L448.878 233.987L446.858 231.601L448.143 229.582L450.346 231.784H453.1V229.031L457.137 230.499L459.156 228.297L461.176 225.911H463.746L468.15 223.893L471.271 224.993H475.86L478.889 221.964L482.467 222.24L484.119 224.627H487.973L489.809 226.462L493.114 225.543H497.702L500.731 222.515L504.31 220.588L509.082 218.752H513.487L516.057 222.791V227.196L512.203 230.684L508.715 233.987L504.127 234.355L498.62 236.924L493.664 235.089L491.278 237.475L485.588 237.291H478.246L475.492 240.228H469.803L465.581 242.614L466.866 245.551L463.928 246.652L460.442 246.285H457.321L456.954 248.304L453.65 247.386V250.69L450.346 253.076L447.592 255.095V251.975L445.39 253.995L445.941 257.666H443.738L442.178 256.105V257.849V260.602L440.572 258.996L438.508 261.06L436.763 262.805H434.376L432.541 265.191L430.155 269.228H426.301L423.179 271.799V275.286L420.059 276.572L418.957 280.243L416.388 282.812V287.401L415.103 290.705L416.755 295.476L415.286 300.249L417.306 303.369L418.223 306.674L417.123 307.776L414.003 309.244V306.857L411.066 305.205Z" stroke="white"/>
<path d="M574.256 154.059L572.739 154.362L571.754 155.347L573.271 156.864L575.318 156.182L576.532 154.969L574.256 154.059Z" stroke="white"/>
<path d="M608.994 151.025L607.629 152.39L608.691 153.452L609.829 154.589L612.18 152.39V150.873L608.994 151.025Z" stroke="white"/>
<path d="M623.557 149.053L623.102 152.087L620.371 153.3L616.276 156.031V159.823L617.944 161.492L615.745 163.691L614.304 166.498L616.276 169.228L617.034 171.959L620.523 174.992L623.709 171.959H625.832L629.018 170.138L632.81 168.925L631.749 165.284V160.733L634.024 158.761L632.128 156.864L628.26 152.997L626.894 149.963L623.557 149.053Z" stroke="white"/>
<path d="M614.606 174.233L612.027 173.93L612.482 177.267V179.391L615.82 180.301L617.185 181.666L619.233 179.618L620.371 176.66L618.398 175.143L614.606 174.233Z" stroke="white"/>
<path d="M574.103 251.9L573.117 252.886L574.406 254.024L576.53 253.417L574.103 251.9Z" stroke="white"/>
<path d="M527.99 124.781L526.473 125.236L527.686 126.905V128.422H529.81V125.54L527.99 124.781Z" stroke="white"/>
<path d="M527.535 137.676L526.473 139.345L522.529 140.104L519.95 141.469L521.922 142.379L521.012 144.503L522.681 144.958H526.018L528.673 142.302L530.645 140.33L529.962 137.373L527.535 137.676Z" stroke="white"/>
<path d="M514.944 134.945L514.11 135.778L515.703 137.372L518.585 136.31V133.883H516.916L514.944 134.945Z" stroke="white"/>
<path d="M512.745 139.723L510.545 137.221L508.877 138.889L507.663 141.316V144.35L510.242 144.805L510.849 146.626L514.034 145.867L516.083 143.819L517.6 142.302L518.433 139.8H516.158L512.745 139.723Z" stroke="white"/>
<path d="M503.72 150.266L502.734 151.251V153.148H504.782L505.54 150.721L503.72 150.266Z" stroke="white"/>
<path d="M499.469 142.53L498.408 141.468H495.07V143.744L493.25 145.564L494.312 146.626L497.953 145.868L499.318 147.233L502.503 146.474L503.413 144.351L505.689 145.109L504.475 142.379L502.428 140.33L499.469 142.53Z" stroke="white"/>
<path d="M516.31 117.197L515.399 119.018L516.993 120.61L518.51 119.093L516.31 117.197Z" stroke="white"/>
<path d="M512.974 121.445H510.547V124.176L513.126 126.755V128.878L515.401 127.816L514.036 124.934L512.974 121.445Z" stroke="white"/>
<path d="M497.801 129.332H495.678L495.223 129.787L496.968 131.531L497.801 129.332Z" stroke="white"/>
<path d="M499.623 132.822L498.183 134.263L499.623 135.856L501.292 135.704L499.623 132.822Z" stroke="white"/>
<path d="M500.988 126.147V128.119H503.112L502.657 125.844L500.988 126.147Z" stroke="white"/>
<path d="M503.945 131.076V132.821H505.689L504.324 131.456L503.945 131.076Z" stroke="white"/>
<path d="M505.69 135.097L506.449 135.855L507.814 134.49L505.69 135.097Z" stroke="white"/>
<path d="M507.816 127.057V129.18L509.637 129.332V127.057H507.816Z" stroke="white"/>
<path d="M505.086 122.811L506.148 124.783L507.134 123.796L506.148 122.811H505.086Z" stroke="white"/>
<path d="M485.515 135.552L484.378 136.689L486.35 138.661L488.549 138.738V135.097L487.032 133.125L485.515 135.552Z" stroke="white"/>
<path d="M490.523 133.125L491.282 135.249H492.799V133.428L490.523 133.125Z" stroke="white"/>
<path d="M482.027 120.99L480.511 122.507V124.175L478.767 125.919L475.656 123.72L473.078 125.085V126.906L469.892 124.63L467.465 125.54L468.223 129.181L470.499 128.423V130.85L472.926 131.456L475.126 129.256L478.235 127.968L480.814 128.726H484.606L487.337 125.995L484.758 123.417L486.503 121.672L483.544 119.928L482.027 120.99Z" stroke="white"/>
<path d="M473.382 117.197H470.044L468.072 115.225L466.707 117.955L468.452 119.699L469.134 121.747L473.078 120.382L474.443 121.747L477.022 120.686L478.084 121.747V119.472L476.34 117.727H474.747L473.382 117.197Z" stroke="white"/>
<path d="M476.337 133.199H475.047L475.502 135.096L478.232 135.248L476.337 133.199Z" stroke="white"/>
<path d="M476.869 137.221L475.504 138.586L476.566 139.648L479.145 140.255L477.476 138.586L476.869 137.221Z" stroke="white"/>
<path d="M487.941 117.652V119.624H489.458L490.975 118.107L487.941 117.652Z" stroke="white"/>
<g filter="url(#filter0_d_363_1939)">
<path d="M1020.94 83.5208L1022.56 77.6557L1028.73 71.6887L1035.61 64.8115L1038.74 61.6769L1044.81 59.0471L1049.16 56.5193L1053.2 52.4745L1057.35 48.3278L1062.41 46.3048L1066.05 41.0465L1072.92 39.0235L1076.56 35.1802L1081.02 33.1572L1083.85 31.5396L1087.08 34.7761L1091.73 33.3599L1095.88 36.4945L1098.61 33.764L1103.47 31.1342V28.7071L1098.61 29.718L1092.95 29.3139L1089.31 28.303L1090.52 24.6624L1094.36 22.0326L1091.13 21.2232V19.4028L1093.35 19.6067L1093.76 15.966L1095.78 13.1348L1098.61 10.3036L1103.47 8.48328H1104.88L1108.52 3.42641C1108.52 3.42641 1111.96 2.41553 1113.17 1.20197C1114.39 -0.0115774 1113.17 4.63997 1113.17 4.63997L1115.8 6.86441L1117.83 8.8874L1115.6 13.5389C1115.6 13.5389 1118.64 13.5389 1119.85 12.3254C1121.06 11.1118 1119.85 14.7525 1119.85 14.7525V18.9999L1115.2 22.0338L1118.84 22.6406L1121.06 20.4161L1125.82 22.2365V20.1128L1129.56 23.8541L1132.19 27.9001L1134.41 27.2933L1136.64 24.4621V27.0919L1138.05 30.3284H1133.8V31.9461L1137.24 32.957L1135.42 38.2153L1130.77 38.6194L1126.52 43.271L1124.3 48.1252L1120.05 49.5414L1117.02 48.3278H1113.17L1109.74 53.3847L1111.25 56.4186V61.5762L1107.92 64.9134L1105.29 62.8904L1102.66 64.9134H1098.81L1096.59 63.0931L1094.57 61.8796L1094.26 63.8006L1095.78 65.3176L1093.96 66.127L1092.75 67.3405L1096.29 67.9473V70.6778L1099.02 73.4083L1103.47 72.1947H1106.5L1106.7 76.0381L1108.52 74.2177L1111.66 77.3536L1114.99 80.6908L1116.61 86.5559L1117.42 91.2075L1114.19 96.4658H1111.15L1106.9 98.2861L1105.49 101.521L1108.93 100.105H1111.15L1107.92 103.95L1109.94 105.972L1112.57 104.961V101.117L1114.99 99.297L1119.34 99.1963L1121.87 96.6684L1123.09 94.6455L1126.12 94.8481L1128.55 94.444L1133 94.2413V97.0726H1136.64L1137.65 95.1515H1141.19L1143.31 93.0278L1145.94 92.6237L1148.16 94.444L1151.4 92.0169L1152.92 95.5568L1155.85 98.49V102.737L1151.81 104.355L1149.18 110.016H1144.93L1143.72 111.837L1148.47 114.971L1146.95 116.488L1150.39 121.748L1151.81 128.22V135.501L1153.02 141.165L1155.04 146.019L1156.05 152.491L1158.08 158.761L1161.92 162.199V168.064L1163.94 176.155L1167.38 179.998L1169.6 182.223L1166.17 185.256L1162.53 183.436L1157.47 185.054L1154.84 191.122L1150.59 197.189L1152.82 199.415L1151.2 205.079V208.113L1154.64 213.371V216.607L1150.79 214.787L1147.96 211.955L1145.54 212.157L1147.76 218.022V221.866L1151.5 223.585L1147.76 227.327H1145.33V232.585L1143.11 234.809L1146.14 239.866L1148.57 242.293L1151.4 245.125L1155.24 248.968L1156.05 254.632L1156.66 259.082L1162.22 262.014L1165.56 265.351H1171.22L1169.7 261.913V260.193L1171.63 258.272L1173.04 255.238L1178.3 260.497L1179.31 265.148L1184.57 268.789L1189.78 269.951L1191.85 267.879H1195.19L1199.13 271.823L1197.52 275.666L1193.47 276.88L1194.68 281.734L1198.93 288.812L1202.67 289.723L1205.61 292.656L1212.48 291.846L1216.53 295.083L1217.94 298.724L1215.52 300.341L1212.08 302.566L1210.06 307.016L1211.47 315.107L1215.52 321.377L1219.06 322.691L1220.78 324.411L1226.64 325.827V328.254L1222.19 328.861V332.502L1220.57 336.142L1222.6 343.424L1226.03 344.84L1231.29 350.098L1235.14 353.739L1235.95 360.211L1237.97 368.705L1238.98 374.166V378.211L1236.75 375.177H1230.89L1227.15 373.256L1224.21 370.323H1220.17L1216.53 366.682L1209.45 363.446L1202.77 360.615L1195.09 356.57L1192.86 353.536L1189.22 351.109L1185.18 350.3L1176.48 347.67L1170.82 344.636L1165.36 340.995L1162.73 336.141L1156.86 330.276L1152.82 326.028L1152.82 321.781L1149.98 318.95L1149.38 314.298L1145.94 309.444L1142.2 308.635V306.915L1143.92 305.195L1145.33 302.162L1143.41 298.824L1145.23 297.004L1146.75 295.487L1144.73 289.419L1143.72 282.947L1141.29 275.463L1137.45 270.407L1135.83 263.732L1134.01 257.462L1131.98 252.405L1129.56 244.921L1127.13 242.898L1126.93 238.853L1128.34 233.999V231.168V227.73L1125.92 225.302L1123.29 220.246H1120.66L1118.13 219.335L1115.8 217.009L1112.97 213.368L1108.72 210.739V206.087L1112.57 202.448L1111.25 201.132L1108.12 204.267L1103.67 206.694V210.941L1102.45 214.178L1104.88 216.402L1108.42 219.942L1111.76 223.279H1115.8L1115.4 225.909L1113.58 225.707L1111.66 228.437L1114.19 230.965V237.437L1116.21 242.291L1116.61 249.976L1115.2 254.632L1113.58 250.587L1109.94 248.767L1109.94 253.823L1106.9 250.789L1104.88 248.767L1103.26 245.329L1097.6 240.07L1099.22 244.52L1097.6 249.374H1092.14V252.611L1090.32 259.286L1088.09 261.915L1088.3 270.814L1091.94 273.241L1091.33 278.905L1094.97 284.569V290.636L1096.08 298.625L1099.42 301.963V305.603L1102.25 308.434L1104.88 308.03L1107.21 305.907L1108.93 304.187H1111.96L1111.76 308.03L1108.52 309.041V314.502L1102.45 315.513L1103.87 322.592L1103.26 325.626L1099.42 327.242V331.489L1098 335.333C1098 335.333 1093.25 336.446 1094.16 335.535C1095.07 334.625 1092.34 333.715 1092.34 333.715V331.085L1093.15 328.456L1096.49 327.343L1094.97 325.826L1091.33 327.242L1087.49 327.849V329.669L1081.82 332.299L1078.99 335.737L1075.76 336.546L1073.13 339.176L1072.12 342.21L1073.13 346.053L1075.35 348.278L1072.72 351.109L1068.48 349.491L1069.79 353.839L1066.66 356.974L1063.82 359.604H1061.4L1058.97 361.828L1060.59 364.458L1061.8 365.672L1058.36 367.896H1053.71L1049.16 372.447L1046.23 375.38L1042.99 380.841L1039.55 384.279L1036.11 391.156L1035.51 397.831L1038.74 404.303L1035.71 407.336L1034.7 413.808L1036.52 418.46L1039.35 421.291L1036.92 425.336V430.797V438.078L1035.71 443.135V450.012L1037.73 452.237V457.091V462.552L1035.91 469.429V475.093L1032.88 480.15V485.205L1031.26 489.655L1033.08 493.751H1036.16L1038.54 491.375H1041.88L1044.51 488.744L1047.44 485.812L1049.46 487.835L1051.89 489.049V491.678L1053.81 495.217L1056.24 497.644L1058.36 495.52V492.285L1055.53 491.072V488.038L1057.76 485.611V487.632L1060.18 489.453L1061.4 489.049L1062.61 490.262V493.903V496.533L1066.66 494.915V492.893L1068.88 489.859L1070.3 488.646L1072.52 490.263L1073.03 486.926L1071.11 485.005L1069.28 481.566L1067.06 477.521L1070.7 475.499L1072.93 473.274L1077.37 472.263H1082.63L1086.98 472.769L1088.9 474.69C1088.9 474.69 1093.56 473.88 1094.57 473.88C1095.58 473.88 1098.41 472.666 1098.41 472.666L1100.94 475.195L1099.02 477.117L1097.6 478.532L1096.39 480.758H1099.83H1103.47L1104.28 483.386L1107.31 486.42L1111.05 485.915L1112.97 487.836L1114.99 491.68L1115.6 499.365L1118.23 507.456L1122.38 513.421L1127.53 518.579L1129.56 520.603L1130.57 524.04L1134.61 528.086L1137.45 532.94L1138.46 535.773L1142.2 541.537L1145.33 544.67V553.165L1144.12 560.447L1146.35 567.728L1146.14 575.211L1148.37 581.077L1149.98 587.55L1151.2 593.414L1152.41 601.302V608.989L1151.2 613.035V620.923V630.631L1149.98 637.912L1151.2 645.395L1150.79 655.104V659.756L1146.75 666.431L1144.12 672.093L1141.09 677.758H1138.46L1133.4 679.779L1129.15 682.206L1126.22 680.992V678.262L1124.7 676.745L1123.18 680.184V683.924L1121.47 682.206L1118.84 679.577V681.599L1118.03 686.655L1118.84 690.094L1117.72 694.038L1116.01 695.756V697.781V701.016L1112.16 700.815L1110.54 699.196L1111.96 694.543L1114.39 689.689V685.645L1112.26 680.89L1107.92 676.543L1105.69 674.318L1103.87 669.665L1100.03 665.823L1096.39 664.609L1096.29 660.665L1098.81 658.136L1101.04 655.913V651.867L1103.87 649.035L1107.11 647.418L1110.44 648.53L1113.38 645.598L1115.2 641.957L1111.96 636.899L1113.58 632.652L1111.56 628.203L1111.15 623.55L1108.32 619.708L1109.13 616.473L1106.9 612.628L1105.89 608.179L1101.85 603.932L1104.88 600.898V596.447L1102.35 593.92L1099.42 590.986L1098.61 588.357H1095.17L1090.32 590.986L1089.11 595.032L1085.87 600.291L1082.23 604.941L1083.85 610L1079.6 613.436L1075.35 615.863L1071.71 617.077L1070.7 620.718H1066.86L1063.01 618.494L1060.18 617.482V612.83L1056.95 610L1054.32 607.369L1049.97 606.257L1047.64 608.582L1042.99 607.369L1039.15 606.359L1033.28 607.167H1027.82L1025.6 609.393L1019.53 611.616L1013.46 610.402L1010.93 605.449L1008 602.514C1008 602.514 1004.56 600.493 1004.56 599.682C1004.56 598.871 1000.72 595.84 1000.72 595.84L995.865 595.032L993.842 590.177L989.189 586.537L985.954 583.301L981.504 582.088L979.886 577.84L975.84 576.02L973.413 573.593L965.323 572.782H961.076L956.222 575.413L950.154 574.401L945.501 576.02H940.446L933.567 581.076L930.332 584.311L923.961 588.054L920.826 591.19L918.602 597.864L916.983 601.908L919.208 604.74L922.343 602.211L924.871 604.74L927.703 607.572L929.321 614.043L927.703 617.482L926.49 626.179V631.64L924.264 637.305L927.298 643.168L929.118 644.989V650.654L924.871 651.867L922.14 658.238L918.196 662.182L911.522 664.609L904.039 664.003L898.578 662.991L894.533 665.418L888.87 668.653L884.622 666.43L880.779 665.012L875.723 667.238L871.476 671.485L868.442 674.519L866.722 680.485L863.182 684.026L858.531 687.262L852.059 690.295L847.103 695.252L844.575 697.778H838.103L832.237 699.599H823.945L817.877 700.409L812.416 698.589L810.797 695.555L807.966 692.723H800.28L793.202 691.71L790.369 689.89L781.066 691.206H775.301L770.548 695.958L765.29 697.171L760.233 698.589L752.952 697.982L747.998 695.858L744.862 692.723L741.93 686.553L738.188 682.813L732.928 680.791H727.873L722.108 682.305L718.164 678.364H710.276L705.623 674.925L703.297 677.25L700.162 680.386L697.635 685.543L694.904 688.274L694.095 693.533L696.624 696.567V701.115L700.162 704.657V709.511L695.41 712.647L690.859 717.197H687.016H681.151L675.69 715.78L670.026 716.792L665.982 715.579L660.115 713.554L656.88 710.319L653.037 706.477L648.385 705.062L642.924 707.285L639.485 703.846L635.137 701.926L631.597 705.465H627.148L625.732 709.712H620.473L613.799 713.96L609.753 718.006H605.708L604.899 722.253L600.146 723.365L596.809 726.702L590.741 726.501L585.684 729.331L583.055 731.962L577.19 730.949L575.369 727.916L573.145 723.87L572.032 719.724L568.897 722.86L563.639 724.882L558.785 723.263L553.324 721.848V716.994L549.076 714.365L547.459 710.724L544.021 708.499L543.211 703.645L540.38 701.016L536.588 699.347L534.11 696.87H528.952L526.424 699.397L521.367 700.208L519.343 698.184L514.894 698.992L512.467 696.565L510.243 694.341V691.308L508.018 688.679L504.781 689.689L502.556 694.341L498.106 695.15L495.476 689.893L494.06 685.24L493.049 679.98L489.611 673.913V669.058L486.375 666.024V659.35L483.948 651.26L480.51 647.821L478.285 645.598L475.959 640.642L473.431 638.113L469.993 636.698V633.057H472.824L475.251 629.822L474.24 626.989H470.6L467.566 630.023L463.318 630.225L460.184 630.327L456.847 633.664L451.183 635.283L446.329 637.911L444.103 634.676L439.856 636.698H436.418L437.631 631.237L442.485 629.011V626.181H438.441L434.8 623.955L432.576 626.181L428.531 624.968L429.845 620.213L426.912 617.281L422.867 619.708L418.417 618.494L417.304 614.956L419.833 612.427V608.585L420.844 605.752L419.226 600.696L416.193 599.279H412.552L410.732 595.638H405.675L401.63 593.211L397.18 592.806L394.753 596.245H389.696L385.246 597.459L381.605 595.437L377.155 596.245H371.694L366.436 593.515H364.312L361.986 595.84L357.941 596.651L354.098 594.626H350.66L346.008 593.211L339.131 593.413L334.074 592.403L330.433 593.413L327.197 590.583L322.545 588.156H318.298L316.882 592.604L318.298 595.638L315.467 598.471L317.691 599.886L319.915 602.111L322.646 604.842L320.118 607.369H317.287L313.849 603.932L308.591 604.133L305.153 605.548L306.569 610.606L305.153 614.247L301.715 615.257L297.67 614.247L296.052 618.494L297.366 621.426L300.198 624.259L302.119 626.179L302.928 629.618L305.759 632.45L302.928 636.292L300.298 638.921H295.848L291.297 639.224L288.971 636.899L287.353 633.612H285.281L283.106 635.788H279.566L275.622 631.844L274.864 629.568L271.881 626.584V621.426L269.352 618.897H264.7L260.857 620.315L259.441 617.281L255.597 614.247L252.159 612.427L247.508 614.652L243.26 615.259L239.822 614.247L237.395 609.594L233.957 606.56L231.53 610.606H228.9V607.371L231.327 604.944L229.71 601.505L227.687 596.245L226.877 590.784L223.843 587.143L218.989 585.323L217.574 581.886L214.944 579.255L210.09 580.066H207.259V576.222L205.843 572.178L200.888 571.265L198.36 573.794L193.708 575.413L189.664 573.188H185.416L183.393 576.222H179.146H174.494L173.481 578.447L170.851 581.076L170.447 584.918L165.492 584.01L162.559 581.076V577.03L163.875 573.086L161.751 570.962H158.312L156.895 574.2L154.266 576.12H150.322L147.187 579.255L144.557 581.884V585.525L141.119 586.942L137.479 586.738L134.849 589.369L131.612 591.592L132.927 595.536L135.86 598.471L134.646 603.728L132.016 606.359L134.646 607.975L138.489 611.616L140.917 614.043L139.906 619.303L141.019 626.179V631.742L138.895 633.865L136.872 631.64L133.838 631.237L134.242 634.877L135.962 638.416L138.489 640.945L136.466 642.967L133.028 643.372H130.197H127.973H126.153C126.153 643.372 123.725 643.676 121.804 643.676C119.883 643.676 120.287 642.159 120.287 642.159L117.254 641.348L115.839 639.933L112.198 639.326V642.159L109.367 643.372L105.929 647.416H102.085L97.8379 648.629L95.3598 647.973L93.2871 650.047V653.384L95.4108 655.508L96.6244 659.35L95.6135 663.192L94.7033 666.733L92.3769 669.058V670.473L90.3539 672.294L85.9038 679.575V685.24L87.1174 692.116L86.308 697.375L86.7121 703.846L81.8579 706.072L78.6213 704.657L73.9698 706.273L69.5197 705.263L68.9129 701.419L66.6885 694.744L66.2844 689.89L63.0478 687.667V685.036L61.4302 680.788L58.5989 677.148L60.4193 674.114L61.6328 670.677L58.5989 667.439L57.588 663.799L54.1501 663.396L53.4426 661.272L50.9123 658.743L46.4622 658.136L43.631 655.304L42.8216 648.833L39.9903 646.202L40.7998 642.159L37.3618 639.326L35.5415 634.676L32.5076 633.259L28.0575 630.225L26.6413 625.37L23.6074 620.72L22.5965 616.674L20.3721 616.269L18.7544 614.247L16.7314 611.415L14.1016 611.82L12.484 606.966L13.0907 597.663L12.2813 590.784L10.6636 587.347L8.64066 584.314L9.04477 578.246L6.61766 576.02L5 572.785L6.21355 569.144L5.20266 565.098L7.4271 562.872L9.85421 562.47L13.0907 566.513L16.1246 567.525L17.5408 564.491L20.9788 563.076L25.6304 562.872H28.0575L31.0914 563.885L31.6981 558.829L30.0805 555.795L30.8899 553.164L33.317 553.569L35.5415 555.188L37.9686 557.411L39.7889 555.591L42.6201 556.805L47.2716 557.411L50.7096 558.829L51.5191 555.188L49.092 553.368L45.654 552.557L43.4295 550.334L41.0024 549.523L44.0363 546.288L48.4852 544.266L52.3285 545.883L55.7665 544.468L59.003 547.907L63.8573 553.164L68.3073 548.715L71.3412 546.895L70.5318 542.444L73.363 539.614L76.1942 540.019L75.9916 536.781L83.4755 535.771L84.8917 532.332L86.5094 530.31L83.0714 528.692V524.444L79.8349 520.804L78.6213 516.151L75.5874 514.33L72.3509 510.69L73.5645 506.442L72.3509 500.172L68.5088 497.342L64.0587 493.904L62.6425 489.251L59.6086 486.824L58.5977 483.993L61.2275 480.959L63.2505 476.509V472.261L61.026 468.217L58.8016 464.779L60.8246 463.161L62.0381 460.127H64.4652L66.2856 458.509L67.7018 453.048L68.1059 449.812L66.487 445.767L64.2614 443.542L61.2275 443.137L59.003 440.71L57.1827 438.081L54.4522 440.406L52.3285 438.282L50.5082 435.248L52.3285 432.012L56.1718 428.168L58.8016 425.134L59.8125 421.494L62.8464 421.291L65.0708 423.718L66.2844 426.752L70.3291 428.169L74.1724 426.956L75.1833 422.911L76.3969 418.461L73.363 415.427L75.386 414.011L75.1833 410.573L76.3969 405.719L78.6213 400.46L80.239 396.01L84.2838 394.797L85.7 391.763L89.5433 388.526V381.649L86.1053 378.414L82.262 377.403L83.4755 374.369L84.4864 371.133L81.6552 368.301L79.8349 364.257L80.4417 361.425L84.285 357.582L86.5094 353.537L85.4985 349.897L88.7351 349.087L93.5893 346.053V341.806L95.6123 339.379L100.668 339.176L102.892 336.546L103.095 333.512L107.342 331.895L110.78 327.243L115.432 327.446L119.477 325.019L124.938 326.232L125.747 323.198L127.568 321.378L131.005 322.996L133.837 326.03L138.288 327.445L139.906 331.085L141.523 335.13L143.95 332.703L143.546 326.838L139.906 323.601V316.724L143.142 315.916L144.153 314.905L139.703 313.085L137.073 310.051L182.379 309.848L190.874 306.814V301.556L192.29 288.207H197.953L202.808 284.364V279.105L206.448 277.689V270.812L209.685 270.609L216.764 264.946L220.202 266.563L227.686 252.607L228.192 248.866L234.36 242.698H244.675L247.912 237.034V226.112L254.384 222.875L262.879 218.628L268.744 220.852H272.183L275.014 223.684L278.487 221.264L277.643 225.504L281.081 225.1L285.935 225.302V228.539L286.946 232.18L284.721 230.763L282.395 228.437L280.271 230.561L281.282 234.404V238.247L284.72 240.068L287.35 242.698V246.945L290.283 248.361V253.115L293.62 256.452L295.238 262.116V267.981L294.227 273.038L295.441 275.869L295.541 282.037L299.081 285.577L298.879 290.027L298.069 297.309L294.529 303.477L289.169 308.837H283.505L277.235 310.051L271.774 308.028L265.807 304.691L262.07 300.948V295.487L258.227 291.644L256.407 287.396L254.99 283.352L252.362 278.903L250.946 271.419L248.114 270.205L249.025 265.654L251.351 263.328L248.52 260.497L247.206 264.037L245.284 265.958L246.094 270.408L246.195 275.565L243.97 277.79L246.903 280.723L246.094 285.173L243.263 291.443L238.308 292.96L234.364 296.904L232.847 304.085L229.105 307.826L230.319 312.074L232.139 317.332L229.206 322.49L233.353 326.636L237.799 331.085L242.856 327.445L243.867 322.389L241.237 319.759L241.641 315.309V311.871L245.079 308.231H248.517L249.731 317.332L250.844 323.299L254.384 326.839L256.608 331.491L262.372 333.21L264.092 331.491L262.676 328.053L266.114 325.221L266.316 318.143L272.587 319.154L278.452 316.929L283.306 319.559L288.767 317.839H292.509L294.836 320.163L298.274 325.422L295.443 328.253V332.703L297.971 329.568L301.511 326.028L306.365 325.018L310.41 319.152V314.096L312.027 310.658L317.286 308.028V304.791L322.343 301.757V296.701L321.533 291.846H324.971L326.084 294.374L330.635 298.925L334.073 304.183V311.262L332.859 314.903L331.039 316.723L328.005 313.689L323.758 312.678L317.286 314.903V320.161L318.903 325.015V329.06L323.555 330.273L328.005 332.296L333.062 329.869V326.229L338.32 325.015L343.377 327.442L342.568 324.206L350.456 325.622L354.703 324.812L362.389 325.823H366.839L369.063 329.868H371.086V326.228L377.558 324.205H380.998L382.415 329.463H378.571L377.358 333.103L374.324 334.114L378.975 338.362H382.212L388.28 335.732L394.044 336.845L400.314 343.115L402.438 340.992H406.686L412.046 339.272L414.17 341.396L413.563 344.227L410.326 346.451V349.889L414.17 353.126L414.473 349.384L416.193 347.665L420.237 348.676V345.439L424.081 344.832L424.89 339.978L424.283 334.113L427.924 332.293L431.059 331.383L434.8 335.124L436.418 333.506L440.564 338.664L445.318 343.417L449.161 347.261L451.689 352.418L456.442 357.172L459.679 362.229L463.117 366.88V370.925L465.947 375.38L469.992 372.953V368.705L474.643 364.458L471.407 363.447L469.182 358.189L469.992 352.525L466.148 349.895L464.025 345.547L465.946 343.626L469.991 341.603V338.367L471.001 333.512L472.822 331.085V328.051L470.192 327.242L471.608 323.197L473.833 320.366L477.877 318.95L482.226 316.826L483.742 315.309L487.18 311.871L489.81 306.006L491.833 301.152L494.058 296.298L497.901 294.275L500.328 297.713H505.182L507.609 300.14H511.857L513.677 307.017L511.654 309.04L510.744 316.422L504.98 322.186L503.362 327.445L506.8 330.479L505.586 337.356L504.576 342.817L500.531 348.884L499.115 357.582L496.89 365.267L495.272 369.111L496.789 374.471L500.329 378.011L499.723 381.247L495.272 384.685L494.463 392.169L490.013 393.383L484.755 398.641L481.721 403.091L478.889 404.709L473.833 403.698L470.799 405.721L467.461 403.598L465.338 401.474L462.304 400.463V404.306L465.338 408.958L468.372 410.374L472.416 413.205L475.854 413.003L478.282 416.44H481.922C481.922 416.44 483.439 413.71 482.63 412.901C481.82 412.091 484.753 410.777 484.753 410.777H487.383L488.597 409.563L493.654 408.147L497.698 405.923V401.675L499.519 399.855L502.653 396.72L505.181 394.192L506.395 389.338L505.384 385.091L504.98 381.247L507.71 378.517L510.441 375.786H514.688L519.34 375.18L520.654 379.124L522.575 381.045L525.002 387.315L521.77 390.549L521.973 395.404V398.437L526.018 402.482L530.669 403.493V400.662L526.119 399.348L524.399 397.628V395.201L523.995 391.56L527.231 390.549L528.445 387.92L527.231 384.076L528.648 380.84L526.625 376.795L523.995 374.368L522.377 372.75L517.422 371.031L514.591 368.199L512.265 370.526L509.231 371.942L507.613 369.718H503.972L503.366 365.874L505.793 363.447L505.186 356.975L508.017 352.525L509.837 347.267L513.882 343.222L512.466 338.772L511.253 334.929L511.759 330.783L508.825 327.85L512.062 324.613L517.119 319.557H521.366L523.793 315.713L525.411 311.466L523.995 308.028L525.411 304.994H528.648L527.637 309.241V315.107L526.827 320.365L523.187 324.005V329.062V332.703L527.434 335.94L529.861 337.963L532.996 336.042L536.13 339.176L539.568 342.413V339.986L538.254 336.851L535.928 334.525L532.287 332.704V331.087L529.253 328.053L527.838 323.601L532.086 320.77L534.109 322.793L537.345 326.03L539.772 323.805L538.963 321.176L538.659 318.849L540.986 316.523L545.03 317.332L548.368 316.826L551.098 319.557L556.357 322.388L554.94 326.433L556.255 327.747L559.795 331.287H565.256L566.065 328.05L563.841 325.016L564.043 322.185L560.2 320.769L557.369 316.117L555.75 314.5L556.963 309.646L558.784 305.601L557.166 303.983L556.155 298.926L560.2 295.286H569.706L574.56 297.106V295.892H582.448L587.706 293.668H591.548L593.571 291.645L591.548 288.611L589.121 287.802L587.098 285.779C587.098 285.779 587.908 284.969 589.425 283.452C590.942 281.935 590.942 284.969 590.942 284.969L593.369 284.362L591.751 282.542L592.864 280.014L591.144 278.295L593.167 275.463L595.998 273.239L593.167 273.036L592.965 270.002L598.628 270.205L600.853 265.554L606.414 263.43L608.538 261.306L616.123 260.193L618.044 258.272L623.505 256.655L624.718 255.238L621.078 254.025L623.101 252.002L628.359 250.788L632.809 250.182L633.82 247.957L637.461 247.35L635.54 250.991V253.924L638.067 251.396L644.339 251.598L644.946 248.361L648.991 247.552L653.035 248.361L651.215 245.934L648.788 244.114L647.574 241.889H652.024L656.676 240.473H658.092L657.688 237.035L656.069 235.822V230.967L657.081 227.731L660.115 220.247L663.756 217.617L666.991 214.179L671.037 216.606L674.071 216.202L674.981 220.349L671.845 223.483L669.217 226.921L675.638 227.276L676.902 226.011H680.846L683.779 228.944L681.15 231.574C681.15 231.574 680.947 234.204 682.161 234.204C683.374 234.204 686.611 235.62 686.611 235.62L687.622 232.182L685.801 230.362L690.251 227.935H694.296L698.443 225.002L700.769 227.328L703.904 225.811L706.23 228.137L708.252 232.182L710.679 234.205L712.095 232.587L714.219 234.711L716.95 237.442L716.545 241.689L712.499 240.88L714.118 242.497L718.163 244.722L720.691 249.07L718.366 251.395V255.44L716.343 258.271L714.422 262.215L712.095 264.541L708.051 269.396V271.419L706.837 277.082L703.803 280.116L702.59 286.387L697.735 287.6L696.218 292.151L692.881 295.488L692.072 300.747L691.061 304.387L694.701 302.77L693.892 298.725L697.533 296.5C697.533 296.5 700.769 295.489 702.59 295.489C704.41 295.489 705.017 291.849 705.017 291.849L708.455 289.018L711.691 287.804L713.612 284.063L712.095 282.546L709.668 282.343L709.871 280.723L709.668 277.486L712.702 277.284H715.129L718.567 278.093L722.613 279.711L723.421 277.284L725.95 273.744L728.074 275.868V279.912L730.501 283.35H733.332L730.501 280.723L732.422 278.802L736.164 275.061L741.221 272.431L748.906 271.015L754.974 269.194L756.492 271.521L755.076 272.937L758.413 276.274H764.682L764.885 274.656L765.492 272.432L767.919 276.275L772.166 274.658L776.414 271.017C776.414 271.017 780.864 270.208 781.875 270.208C782.885 270.208 781.875 266.567 781.875 266.567L781.268 262.522L778.234 257.871L779.043 253.219L779.65 250.792L782.077 253.219L784.605 251.298L786.729 253.422L789.965 255.646L790.773 253.219L792.392 252.811L794.01 254.632L795.628 253.418C795.628 253.418 795.426 249.677 796.943 249.677C798.46 249.677 798.864 247.756 798.864 247.756L803.314 251.194L804.729 249.777L809.584 251.395L807.966 256.35H810.291L812.617 258.676V262.52L816.461 260.093L818.484 262.116V266.566L815.854 267.375L814.236 268.992L817.068 271.823C817.068 271.823 819.292 270.812 819.292 269.8C819.292 268.788 821.112 271.62 821.112 271.62V274.857L825.259 274.755L829.203 278.699L832.237 280.722L836.484 281.531L838.305 279.711L842.956 282.138L843.362 278.296L841.339 271.621L840.125 268.587V265.756L837.495 263.126V259.486L842.552 260.093L845.383 262.924L849.833 261.71H854.89L853.878 256.452L856.711 251.194L861.969 249.98L865.812 249.777L870.261 250.991V247.957L865.509 245.833L867.227 244.114L869.453 241.687L873.295 241.889L876.329 238.855L874.914 238.046L871.88 235.012L868.441 233.192V228.742L867.026 227.528L865.003 232.786L862.576 231.169V226.921L867.026 222.877L866.419 220.045L862.172 217.416L864.8 214.786H868.643L874.307 211.955L875.925 207.303L883.409 204.472L889.274 201.842C889.274 201.842 890.083 202.652 890.083 203.865C890.083 205.079 886.24 206.495 886.24 206.495L884.824 211.956L888.263 210.337L891.297 207.303L895.139 208.517L894.128 216.405L897.566 213.168V209.325L896.352 202.853L897.162 200.022L898.982 194.965L903.23 192.942L909.297 190.312L912.938 192.942C912.938 192.942 911.219 195.268 909.904 196.583C908.59 197.897 911.32 198.808 911.32 198.808H915.769L918.602 195.572C918.602 195.572 921.837 199.01 922.444 199.616C923.051 200.223 921.837 194.965 921.837 194.965L927.298 191.931L931.141 193.954L935.389 193.753L939.232 189.909L943.277 184.852V178.987L948.334 171.503L952.581 167.256L956.423 162.604L963.098 161.593L968.661 161.29L971.391 164.021L977.054 169.684L982.111 167.46L985.751 164.527H989.695L987.774 162.604V159.772L991.616 155.93V149.255L993.437 145.817H996.471L999.1 143.188V139.143L1004.16 135.502L1005.37 130.648L1003.35 128.625L1004.16 126.198L1001.33 122.153L1003.55 118.107L1005.67 115.983L1009.52 119.827L1006.58 122.76L1009.62 125.794H1014.27L1017.51 124.58L1021.96 122.557L1026 121.546L1027.01 118.31L1025.8 115.073L1023.57 114.669L1016.7 111.635L1011.64 112.445L1010.43 109.613H1006.38V107.389L1007.39 103.546L1011.03 101.725L1011.44 97.4779L1014.67 95.6576H1017.51L1016.29 92.2196L1017.51 88.5789L1020.94 83.5208Z" stroke="white" shape-rendering="crispEdges"/>
</g>
<path d="M1049.34 472.663L1047.59 474.588V477.037V479.662L1050.56 478.437L1052.14 480.012L1053.89 478.264L1054.59 474.761L1052.66 471.963L1049.34 472.663Z" stroke="white"/>
<path d="M1097.98 454.638L1096.58 454.989L1095.54 452.014V449.389L1100.08 450.613L1102.36 451.663L1103.58 454.464L1106.03 456.914L1110.41 457.789L1111.46 460.589L1116.36 463.739H1118.98L1121.08 466.713L1122.83 471.439L1125.55 474.15L1130.71 479.488L1134.03 480.363L1138.58 482.113L1142.96 485.964L1148.91 489.288L1152.76 492.613L1157.83 495.238L1162.21 497.863L1165.01 500.137L1169.91 502.063L1169.21 504.338L1167.46 506.087L1164.13 507.137H1161.51L1162.21 510.811L1161.51 513.436V515.536L1164.48 520.087C1164.48 520.087 1167.29 523.234 1166.76 523.76C1166.23 524.285 1166.93 529.186 1166.93 529.186L1169.21 531.461L1172.71 534.962L1175.68 536.887H1180.23L1182.86 539.511H1185.83L1187.41 542.836L1191.26 543.012L1193.62 540.649L1197.73 543.012L1200.18 546.162C1200.18 546.162 1201.06 548.262 1200.18 548.262C1199.31 548.262 1194.58 545.986 1194.58 545.986L1192.57 547.998H1188.11L1186.71 551.587L1187.59 555.085L1190.39 557.885L1192.48 562.436L1189.68 564.711L1187.41 561.912L1184.44 558.935L1179.19 554.036V550.71L1175.69 547.212L1172.36 543.887L1170.09 540.912L1167.29 535.487L1163.79 532.161L1160.11 530.062L1156.61 529.012L1153.63 522.713L1147.16 513.788L1141.91 508.537L1137.54 504.164L1133.68 498.914L1131.23 494.89L1124.59 491.914L1119.34 489.64L1116.18 489.289L1111.98 483.514V480.89L1107.44 476.339L1104.99 471.79L1100.08 470.214L1101.31 466.715V464.09L1105.33 465.314L1106.03 461.814L1103.67 459.453V458.14L1101.35 455.819L1097.98 454.638Z" stroke="white"/>
<path d="M1245.86 545.984L1246.56 549.658L1246.91 553.159L1248.31 553.683V550.884L1249.36 548.608V545.459L1245.86 545.984Z" stroke="white"/>
<path d="M1257.93 548.086V549.659L1260.21 550.884V548.258L1257.93 548.086Z" stroke="white"/>
<path d="M1250.76 533.908L1252.86 534.783L1253.56 531.983L1252.51 526.385L1254.43 524.46L1254.08 520.432L1251.11 519.559L1250.23 524.109L1251.37 525.244L1250.41 528.658L1250.76 533.908Z" stroke="white"/>
<path d="M1256 510.809L1255.13 511.684L1255.83 514.66L1257.23 512.56L1256 510.809Z" stroke="white"/>
<path d="M1258.11 500.133L1258.98 495.583L1257.76 492.785L1258.46 489.809L1260.82 487.445L1261.43 490.684L1260.91 494.009L1261.61 497.859L1260.38 500.658L1258.11 500.133Z" stroke="white"/>
<path d="M1158.53 235.189V239.038L1158.18 242.538L1160.28 243.938L1161.68 245.688L1161.86 248.837L1164.66 249.887L1163.96 246.738L1162.73 244.288L1163.96 240.262V235.363L1160.63 233.963L1158.53 235.189Z" stroke="white"/>
<path d="M1226.61 253.561L1224.16 254.436L1225.38 257.061H1229.58H1233.78L1236.41 254.436L1233.08 253.387L1229.76 254.787L1226.61 253.561Z" stroke="white"/>
<path d="M1238.68 382.535L1237.63 385.684L1235.97 387.347L1237.9 389.273L1239.03 391.634L1238.68 394.785L1238.51 398.809L1240.35 400.646L1242.36 399.509V395.309L1244.2 393.473L1242.71 389.884L1240.26 387.434L1240.43 384.285L1238.68 382.535Z" stroke="white"/>
<path d="M1246.21 409.834V412.459L1247.96 413.334L1249.18 411.76L1246.21 409.834Z" stroke="white"/>
<path d="M1260.38 461.108V464.959V468.108H1262.83L1262.13 465.134V463.208V460.934L1260.38 461.108Z" stroke="white"/>
<path d="M1241.49 244.459L1239.21 246.034L1240.44 247.259L1242.1 245.596L1243.76 243.934L1241.49 244.459Z" stroke="white"/>
<path d="M1009.89 33.9652L1008.28 33.3633L1006.88 34.8341L1003.8 36.4408L1001.29 38.9493L1001.52 43.2646L1000.45 44.3362L1000.99 47.8143L1003 50.7583L1005.07 55.5761L1008.28 56.2448L1010.46 54.0701L1012.1 51.0933L1010.29 49.1528L1012.97 45.2719L1012.5 41.0572V36.0392L1009.89 33.9652Z" stroke="white"/>
<path d="M6.66797 311.689L9.81592 312.395L12.5136 311.624L13.5415 309.633L15.982 310.019L18.2635 312.299L18.3593 315.414L20.2221 315.993L20.608 318.434L23.4987 318.948L24.1407 316.635L22.5679 315.061L23.9162 313.713L24.7839 314.58L27.5459 316.892V320.361L27.16 323.38L28.7655 326.013L30.3723 327.106L30.9499 331.024L29.5374 333.979L22.7924 337.384L12.578 325.243L6.66797 311.689Z" stroke="white"/>
<defs>
<filter id="filter0_d_363_1939" x="0.459961" y="0.5" width="1243.02" height="739.998" filterUnits="userSpaceOnUse" color-interpolation-filters="sRGB">
<feFlood flood-opacity="0" result="BackgroundImageFix"/>
<feColorMatrix in="SourceAlpha" type="matrix" values="0 0 0 0 0 0 0 0 0 0 0 0 0 0 0 0 0 0 127 0" result="hardAlpha"/>
<feOffset dy="4"/>
<feGaussianBlur stdDeviation="2"/>
<feComposite in2="hardAlpha" operator="out"/>
<feColorMatrix type="matrix" values="0 0 0 0 0 0 0 0 0 0 0 0 0 0 0 0 0 0 0.25 0"/>
<feBlend mode="normal" in2="BackgroundImageFix" result="effect1_dropShadow_363_1939"/>
<feBlend mode="normal" in="SourceGraphic" in2="effect1_dropShadow_363_1939" result="shape"/>
</filter>
</defs>
</svg>
