<svg width="105" height="113" viewBox="0 0 105 113" fill="none" xmlns="http://www.w3.org/2000/svg">
<path d="M49.2035 0.0135249C48.0787 2.13551 32.9154 30.7744 26.3838 43.0791C26.1575 43.5046 26.1749 43.8122 26.396 44.2289C32.7953 56.2857 45.7645 80.744 45.8986 80.9725C46.0326 80.7457 59.0018 56.2857 65.4011 44.2307C65.6222 43.814 65.6414 43.5063 65.4133 43.0809C61.7513 36.2051 58.1138 29.3152 54.4518 22.4394C54.2167 21.9999 54.2011 21.6712 54.4449 21.2281C55.4513 19.3962 56.416 17.5415 57.4364 15.6181C57.5809 15.866 67.2852 34.1552 72.0442 43.1161C72.2444 43.4923 72.2618 43.7736 72.0563 44.1621C64.5252 58.3515 57.0063 72.5479 49.4961 86.7495C49.2958 87.1293 49.0921 87.3016 48.6359 87.2945C46.7762 87.2629 44.9147 87.2717 43.055 87.2892C42.7102 87.2928 42.5274 87.182 42.3655 86.8726C34.8169 72.6006 27.2614 58.3321 19.6972 44.0689C19.5405 43.7718 19.5266 43.5503 19.6885 43.2426C27.2545 28.9759 34.8082 14.7074 42.3742 0.444252C42.4699 0.264929 42.6946 0.0346218 42.8617 0.0328637C44.9374 0.00297656 47.013 0.0135249 49.2035 0.0135249Z" fill="#53575C"/>
<path d="M57.8052 8.75187C54.3435 15.2655 44.8012 33.2611 39.6 43.0623C39.3788 43.4807 39.3631 43.7884 39.5895 44.2121C43.2515 51.0896 46.889 57.9778 50.551 64.8536C50.7861 65.2948 50.7982 65.6218 50.5545 66.0649C49.548 67.8968 48.5833 69.7515 47.5612 71.6766C47.4254 71.4445 37.7228 53.1536 32.9534 44.1752C32.7532 43.7989 32.7375 43.5177 32.943 43.1291C40.4724 28.9415 47.9913 14.7451 55.5015 0.543453C55.7035 0.161952 55.909 -0.00682159 56.3617 0.000210674C58.2214 0.0318559 60.0828 0.0230653 61.9426 0.00548466C62.2891 0.00196853 62.4684 0.116242 62.6321 0.423904C70.1824 14.6959 77.7379 28.9644 85.3021 43.2276C85.4605 43.5247 85.471 43.748 85.309 44.0539C77.7448 58.3171 70.1911 72.5855 62.6251 86.8487C62.5294 87.0281 62.3047 87.2566 62.1376 87.2584C60.062 87.2865 57.9863 87.2759 55.8114 87.2759C55.9542 86.9947 71.1244 58.3294 78.6172 44.2103C78.8436 43.7849 78.8262 43.4772 78.6033 43.0606C72.204 31.0037 59.2348 6.5455 59.1008 6.3187C59.0764 6.3609 58.601 7.25224 57.8052 8.75187Z" fill="#53575C"/>
<path d="M4.35325 112.715H1.20672V98.9111C1.20672 98.7353 1.18757 98.621 1.14752 98.5647C1.10747 98.5085 1.00995 98.4487 0.851495 98.3854L0 98.0514L0.259454 96.666H8.20674C10.2562 96.666 11.7311 97.0598 12.6296 97.8474C13.5281 98.6351 13.9774 99.9061 13.9774 101.657C13.9774 103.043 13.6971 104.11 13.1381 104.857C12.5774 105.606 11.7067 106.091 10.5244 106.314L14.404 112.715H10.9284L7.404 106.673H4.35325V112.715ZM4.35325 104.285H7.85325C8.94157 104.285 9.71819 104.087 10.1831 103.688C10.648 103.29 10.8814 102.614 10.8814 101.657C10.8814 100.718 10.648 100.049 10.1831 99.6512C9.71819 99.2539 8.94157 99.0535 7.85325 99.0535H4.35325V104.285Z" fill="#53575C"/>
<path d="M28.5729 96.668V99.1046H20.246V103.38H26.8699V105.72H20.246V110.282H28.761V112.719H17.1013V98.9148C17.1013 98.739 17.0821 98.6247 17.042 98.5684C17.002 98.5122 16.9045 98.4524 16.746 98.3891L15.8945 98.0551L16.154 96.6697H28.5729V96.668Z" fill="#53575C"/>
<path d="M31.3659 98.9111C31.3659 98.7353 31.3467 98.621 31.3067 98.5647C31.2666 98.5085 31.1691 98.4487 31.0107 98.3854L30.1592 98.0514L30.4186 96.666H33.9674C34.2042 96.666 34.3575 96.6941 34.4288 96.7504C34.5002 96.8067 34.6291 96.9614 34.8189 97.2163L42.9804 108.369V96.6678H45.8901V112.715H42.8393L34.2774 101.014V112.715H31.3676V98.9111H31.3659Z" fill="#53575C"/>
<path d="M57.1264 96.668C57.4416 97.2411 57.7811 97.9303 58.1433 98.7337C58.5055 99.5371 58.8799 100.409 59.2665 101.348C59.653 102.289 60.0344 103.266 60.414 104.286C60.7918 105.305 61.1506 106.316 61.4901 107.318C61.8297 108.32 62.1413 109.286 62.4252 110.209C62.709 111.132 62.9458 111.968 63.1339 112.716H59.9647C59.7906 112.063 59.6095 111.425 59.4214 110.805C59.2316 110.184 59.0505 109.57 58.8764 108.966H51.8747C51.6849 109.57 51.5003 110.184 51.3192 110.805C51.1381 111.425 50.9605 112.063 50.7863 112.716H47.6172C47.807 111.967 48.0438 111.132 48.3276 110.209C48.6115 109.286 48.9232 108.322 49.2627 107.318C49.6023 106.314 49.961 105.304 50.3388 104.286C50.7167 103.268 51.0998 102.289 51.4864 101.348C51.8729 100.409 52.2473 99.5371 52.6095 98.7337C52.9717 97.9303 53.3112 97.2411 53.6264 96.668H57.1264ZM55.3747 99.4844C54.3647 101.777 53.4505 104.157 52.6304 106.626H58.119C57.2675 104.157 56.3533 101.779 55.3747 99.4844Z" fill="#53575C"/>
<path d="M64.7145 98.9111C64.7145 98.7353 64.6936 98.621 64.6553 98.5647C64.6153 98.5085 64.5178 98.4487 64.3593 98.3854L63.5078 98.0514L63.7673 96.666H67.6469C67.7879 96.666 67.8593 96.7451 67.8593 96.9051V106.195C67.8593 107.723 68.1832 108.821 68.8292 109.491C69.4752 110.159 70.5235 110.493 71.9757 110.493C73.4419 110.493 74.4954 110.159 75.1345 109.491C75.7735 108.823 76.0922 107.724 76.0922 106.195V96.666H79.2387V106.434C79.2387 107.596 79.1011 108.591 78.8243 109.419C78.5492 110.247 78.1191 110.927 77.5357 111.46C76.9524 111.993 76.1984 112.383 75.2773 112.631C74.3544 112.877 73.2556 113 71.9775 113C70.6994 113 69.6006 112.877 68.6777 112.631C67.7548 112.385 67.0026 111.995 66.4193 111.46C65.8359 110.927 65.4058 110.247 65.1307 109.419C64.8538 108.591 64.7163 107.596 64.7163 106.434V98.9111H64.7145Z" fill="#53575C"/>
<path d="M82.8825 98.9111C82.8825 98.7353 82.8633 98.621 82.8233 98.5647C82.7832 98.5085 82.6857 98.4487 82.5273 98.3854L81.6758 98.0514L81.9352 96.666H85.8148C85.9559 96.666 86.0273 96.7451 86.0273 96.9051V110.279H93.2885V112.715H82.8808V98.9111H82.8825Z" fill="#53575C"/>
<path d="M96.6978 99.1027H91.54V96.666H105V99.1027H99.8443V112.715H96.6978V99.1027Z" fill="#53575C"/>
</svg>
