<svg width="148" height="124" viewBox="0 0 148 124" fill="none" xmlns="http://www.w3.org/2000/svg">
<path d="M86.2452 66.4471C86.1278 66.4763 85.6579 66.4763 85.4524 66.4763H70.3V69.9782H85.7167C85.8341 69.9782 86.7444 69.9782 86.9206 69.949C90.0627 69.6572 91.5016 67.06 91.5016 64.7838C91.5016 62.4492 90.004 59.9396 87.1556 59.6769C86.5976 59.6186 86.1278 59.6186 85.9222 59.6186H75.85C75.4095 59.6186 74.9103 59.5894 74.7341 59.531C73.9413 59.3268 73.6476 58.6264 73.6476 58.0428C73.6476 57.5175 73.9413 56.8171 74.7635 56.5837C74.9984 56.5253 75.2627 56.4961 75.8206 56.4961H90.3564V53.0527H75.5857C74.969 53.0527 74.4992 53.0818 74.1175 53.1402C71.5921 53.4904 69.8302 55.5039 69.8302 58.0719C69.8302 60.173 71.1516 62.6243 74.0587 63.0329C74.5873 63.0912 75.3214 63.0912 75.6444 63.0912H85.4524C85.6286 63.0912 86.069 63.0912 86.1571 63.1204C87.273 63.2663 87.6548 64.0834 87.6548 64.813C87.6548 65.5133 87.2143 66.2721 86.2452 66.4471ZM57.5262 66.4471C57.4087 66.4763 56.9389 66.4763 56.7627 66.4763H41.581V69.9782H56.9976C57.1151 69.9782 58.0254 69.9782 58.2016 69.949C61.3437 69.6572 62.7825 67.06 62.7825 64.7838C62.7825 62.4492 61.2849 59.9396 58.4365 59.6769C57.8786 59.6186 57.4087 59.6186 57.2032 59.6186H47.131C46.6905 59.6186 46.1913 59.5894 46.0151 59.531C45.2222 59.3268 44.9286 58.6264 44.9286 58.0428C44.9286 57.5175 45.2222 56.8171 46.0444 56.5837C46.2794 56.5253 46.5437 56.4961 47.1016 56.4961H61.6373V53.0527H46.8667C46.25 53.0527 45.7802 53.0818 45.3984 53.1402C42.873 53.4904 41.1111 55.5039 41.1111 58.0719C41.1111 60.173 42.4325 62.6243 45.3397 63.0329C45.8683 63.0912 46.6024 63.0912 46.9254 63.0912H56.7333C56.9095 63.0912 57.35 63.0912 57.4381 63.1204C58.554 63.2663 58.9357 64.0834 58.9357 64.813C58.9357 65.5133 58.5246 66.2721 57.5262 66.4471ZM29.8643 52.9359H33.6817V70.0657H29.8643V52.9359ZM4.90397 52.9359H0V70.0657H3.81746V57.2257L16.6206 70.0657H21.4365V52.9359H17.619V65.7176L4.90397 52.9359ZM126.593 70.0657H130.41V57.2257L143.184 70.0657H148V52.9359H144.212V65.7176L131.497 52.9359H126.593V70.0657ZM106.713 52.9359L95.9651 70.0657H100.605L102.513 67.0016H115.052L116.961 70.0657H121.571L110.824 52.9359H106.713ZM113.085 63.7624H104.481L108.798 56.8755L113.085 63.7624ZM21.231 43.2184C28.9246 20.8942 50.1262 5.89474 74.0294 5.89474C97.9325 5.89474 119.163 20.8942 126.828 43.2184L126.887 43.3935H143.713V41.3799L136.724 40.5628C132.407 40.0667 131.497 38.1699 130.322 35.777L130.029 35.1934C119.927 13.8322 97.9325 0 74.0294 0C50.0968 0 28.1317 13.8322 18.0302 35.2517L17.7365 35.8354C16.5619 38.2283 15.6516 40.1251 11.3349 40.6212L4.34603 41.4383V43.4518H21.1429L21.231 43.2184ZM126.887 79.6374L126.828 79.8124C119.134 102.137 97.9325 117.107 74.0294 117.107C50.1262 117.107 28.8952 102.107 21.231 79.7833L21.1722 79.6082H4.3754V81.6217L11.3643 82.4388C15.681 82.9349 16.5913 84.8317 17.7659 87.2246L18.0595 87.8083C28.1611 109.228 50.1556 123.06 74.0587 123.06C97.9619 123.06 119.956 109.228 130.058 87.8375L130.352 87.2538C131.526 84.8609 132.437 82.9641 136.753 82.468L143.742 81.6509V79.6374H126.887Z" fill="#53575C"/>
</svg>
