<svg width="105" height="117" viewBox="0 0 105 117" fill="none" xmlns="http://www.w3.org/2000/svg">
<path fill-rule="evenodd" clip-rule="evenodd" d="M52.4016 62.5007H17.5777L0.316406 92.8082H35.2409L52.4016 62.5007ZM70.0952 31.4095L52.6836 0.800781L35.2216 31.4095L52.6836 62.0685L70.0952 31.4095ZM70.0772 92.8082H105.001L87.7397 62.5007H52.9159L70.0772 92.8082Z" fill="#DA4B54"/>
<path fill-rule="evenodd" clip-rule="evenodd" d="M68.5298 116.556H71.1376V102.624H68.5298V116.556ZM97.7777 116.556H100.386V102.624H97.7777V116.556ZM19.5139 116.556H22.1217V102.624H19.5139V116.556ZM32.0899 102.624H24.024V104.987H26.7126V116.556H29.4013V104.987H32.0899V102.624ZM92.5558 107.92H86.6836V102.624H84.0757V116.556H86.6836V110.283H92.5558V116.556H95.1624V102.624H92.5558V107.92ZM11.0959 108.857L8.65138 102.624H5.63672V116.556H8.24396V107.92L11.0959 114.845L13.8659 107.839V116.556H16.4725V102.624H13.5398L11.0959 108.857ZM54.1843 102.625H51.6007V112.565C51.6007 113.647 50.389 114.523 49.3071 114.523C48.2258 114.523 47.0141 113.647 47.0141 112.565V102.625H44.3826L44.4212 112.443C44.4212 114.957 46.793 116.994 49.3065 116.994C51.8205 116.994 54.1924 114.957 54.1924 112.443L54.1843 102.625ZM64.24 109.02C64.6065 108.775 65.9915 107.96 65.9915 106.21C65.9915 103.764 64.0363 102.665 62.7321 102.625H56.6922V116.557H62.039C64.1581 116.557 66.4386 115.538 66.4386 112.849C66.4392 110.527 65.3406 109.63 64.24 109.02ZM62.1626 114.193H59.3013V104.987H62.0402C62.7743 104.987 63.3445 105.598 63.3445 106.331C63.3445 107.065 63.0594 107.92 62.0818 107.92H60.9428V110.283H62.1632C62.8973 110.283 63.9146 110.976 63.8749 112.401C63.8388 113.623 62.8551 114.193 62.1626 114.193ZM33.1339 112.035C33.1134 112.177 33.1339 112.34 33.1432 112.605C33.1432 115.007 35.0902 116.832 37.4925 116.832C39.8948 116.832 41.8419 115.211 41.8419 112.808C41.8419 111.545 41.3469 110.568 40.4867 109.773C39.7843 109.125 37.7832 108.152 37.0037 107.675C36.2703 107.227 35.9243 106.882 35.9069 106.229C35.9069 105.275 36.5379 104.603 37.4925 104.603C37.9509 104.603 38.3906 104.785 38.7147 105.109C39.0388 105.433 39.221 105.873 39.221 106.331C39.2383 106.576 39.2446 106.82 39.2446 106.983H41.5543V106.331C41.5543 104.089 40.1408 102.311 37.4925 102.311C35.2498 102.311 33.4307 103.846 33.4307 106.331C33.4388 107.431 33.9481 108.49 35.2113 109.325C36.5684 110.222 38.2664 110.893 38.8365 111.464C39.1806 111.808 39.3936 112.283 39.3936 112.808C39.3936 113.857 38.5421 114.607 37.4919 114.607C36.4417 114.607 35.5976 113.684 35.4685 112.808C35.4411 112.584 35.3734 112.197 35.3939 112.034H33.1339V112.035ZM77.17 107.675C76.4359 107.227 76.0906 106.882 76.072 106.229C76.072 105.275 76.7042 104.603 77.6588 104.603C78.117 104.603 78.5563 104.785 78.8802 105.11C79.2041 105.434 79.386 105.873 79.386 106.331C79.404 106.576 79.4102 106.82 79.4102 106.983H81.72V106.331C81.72 104.089 80.3058 102.311 77.6588 102.311C75.4149 102.311 73.5964 103.846 73.5964 106.331C73.6051 107.431 74.1144 108.49 75.377 109.325C76.7347 110.222 78.4327 110.893 79.0028 111.464C79.3463 111.808 79.5593 112.283 79.5593 112.808C79.5593 113.857 78.7078 114.607 77.6582 114.607C76.608 114.607 75.7633 113.684 75.6335 112.808C75.6068 112.584 75.5391 112.197 75.5596 112.034H73.2983C73.2778 112.176 73.2983 112.34 73.3082 112.604C73.3082 115.006 75.2553 116.832 77.6582 116.832C80.0599 116.832 82.0069 115.211 82.0069 112.808C82.0069 111.544 81.5119 110.568 80.6517 109.773C79.9499 109.125 77.9489 108.152 77.17 107.675Z" fill="#DA4B54"/>
</svg>
