<svg width="89" height="107" viewBox="0 0 89 107" fill="none" xmlns="http://www.w3.org/2000/svg">
<path d="M31.9956 22.6355C32.8179 19.9438 34.8999 21.3174 34.8999 21.3174C34.8999 21.3174 40.2957 25.4371 55.0951 34.8795C69.8946 44.3218 88.345 31.2183 88.345 31.2183L44.5239 0C25.3037 20.4266 0.702733 27.7496 0.702733 27.7496L0.772501 27.7767L56.7869 67.1586C55.9646 69.8503 53.8826 68.4772 53.8826 68.4772C53.8826 68.4772 48.4868 64.357 33.6874 54.9141C18.8879 45.4717 0.4375 58.5759 0.4375 58.5759L44.2586 89.7941C63.4788 69.367 88.0798 62.0445 88.0798 62.0445L88.0088 62.0168L31.9956 22.6355Z" fill="#53575C"/>
<path d="M0 102.188L6.74153 102.224C6.85743 102.86 6.67523 102.858 7.02983 103.189C7.58509 103.707 8.44652 103.825 9.16957 103.698C9.76173 103.593 10.6797 103.412 10.7235 102.675C10.7713 101.875 10.219 101.596 9.5259 101.505C8.56761 101.379 7.60066 101.346 6.64524 101.193C4.18376 100.788 2.8749 100.606 1.82665 99.9363C0.769176 99.2657 0.678074 97.8054 0.678074 96.7659C0.678074 96.0826 0.948497 95.438 1.48934 94.8292C2.03019 94.2228 2.84376 93.7453 3.92949 93.3967C5.01579 93.0492 6.50398 92.877 8.39578 92.877C10.716 92.877 12.4867 93.192 13.7039 93.8222C14.9228 94.4523 15.6476 95.8577 15.8788 97.2307H10.1469C10.1896 97.1492 10.0345 96.7815 10.0097 96.6896C9.78998 95.8924 9.02254 95.66 8.28738 95.497C7.68484 95.3634 6.99639 95.3519 6.45324 95.6849C6.12285 95.8883 5.86626 96.1028 5.86626 96.3942C5.86626 96.6052 6.00234 96.7954 6.27565 96.9648C6.54146 97.1394 7.16937 97.303 8.16053 97.4533C10.6139 97.8418 12.3708 98.2326 13.4329 98.6275C14.4938 99.0252 15.2659 99.5149 15.7497 100.1C16.2323 100.686 16.4744 101.342 16.4744 102.067C16.4744 102.919 16.1521 103.704 15.5075 104.422C14.864 105.14 13.9639 105.687 12.8079 106.058C11.6512 106.43 10.1942 106.615 8.43557 106.615C5.34791 106.615 3.20817 106.18 2.01981 105.31C0.829718 104.442 0.156833 103.53 0 102.188ZM27.353 93.1267H32.3354V102.519C32.3354 104.446 31.1413 105.811 28.7524 106.618C27.6471 106.985 26.3221 106.999 24.8218 106.999C23.4766 106.999 22.2698 107.024 21.1535 106.733C18.5242 105.679 17.2102 104.274 17.2102 102.519V93.1267H22.2277V101.17C22.2277 102.634 22.4214 103.724 24.8224 103.724C27.2717 103.724 27.3207 102.587 27.3207 101.123L27.353 93.1267ZM59.93 93.1267H64.9129V102.519C64.9129 104.446 63.7188 105.811 61.33 106.618C60.2252 106.985 58.8996 106.999 57.3993 106.999C56.0541 106.999 54.8467 107.024 53.731 106.733C51.1012 105.679 49.7871 104.274 49.7871 102.519V93.1267H54.8047V101.17C54.8047 102.634 54.999 103.724 57.3993 103.724C59.8487 103.724 59.8977 102.587 59.8977 101.123L59.93 93.1267ZM33.3606 93.2238H48.7937V96.1109L41.2547 102.904H48.7942V106.686H33.3606V103.435L40.726 96.7382H33.3744L33.3606 93.2238ZM66.1468 106.662V93.2007H71.0934L71.0923 98.1835L76.4275 93.2007H82.6184L75.5142 99.7247L82.9142 106.662H76.2349L71.1413 101.845L71.1897 106.662H66.1468ZM88.5579 93.199V106.662H83.6211V93.2007H88.5579V93.199Z" fill="#53575C"/>
</svg>
