<svg width="123" height="87" viewBox="0 0 123 87" fill="none" xmlns="http://www.w3.org/2000/svg">
<path fill-rule="evenodd" clip-rule="evenodd" d="M5.38876 21.6366C5.38876 9.68689 29.5182 0 59.285 0C89.0511 0 113.181 9.68689 113.181 21.6366C113.181 33.5863 89.0511 43.2732 59.285 43.2732C29.5188 43.2732 5.38876 33.5869 5.38876 21.6366ZM71.3058 23.5311C71.2985 23.4956 71.2806 23.4631 71.2546 23.4379C71.2285 23.4127 71.1954 23.396 71.1598 23.3901C69.6086 23.1626 68.0507 22.9841 66.4884 22.8549C66.3963 22.8388 66.3313 22.7532 66.392 22.5506C71.3733 17.2902 73.2653 10.5966 70.7467 5.35957C70.7495 5.33571 70.757 5.31264 70.7687 5.29167C70.7804 5.27071 70.7961 5.25227 70.8149 5.2374C70.8337 5.22253 70.8553 5.21152 70.8783 5.20501C70.9014 5.19849 70.9255 5.1966 70.9493 5.19944C88.0907 7.28611 100.606 13.8559 100.606 21.6366C100.606 31.0968 82.1067 38.766 59.2856 38.766C36.4645 38.766 17.9644 31.0975 17.9644 21.6366C17.9644 13.4359 31.8686 6.58029 50.4387 4.90072C50.5289 4.9038 50.605 4.9734 50.6099 5.11629L46.578 27.3984C46.5027 27.7899 46.5145 28.1933 46.6126 28.5797C46.7108 28.9661 46.8928 29.3259 47.1458 29.6334C47.3987 29.9409 47.7162 30.1885 48.0757 30.3585C48.4351 30.5284 48.8275 30.6165 49.2248 30.6164L49.369 30.6238C52.9652 30.436 56.8296 29.3095 60.4798 27.1945C61.5142 26.5952 62.5097 25.9307 63.4605 25.2051C63.4878 25.1826 63.5212 25.1688 63.5564 25.1654C63.5916 25.162 63.627 25.1692 63.6581 25.186C64.8738 25.9984 65.5734 26.9494 65.5734 27.9668C65.5734 29.3489 64.2822 30.6097 62.1582 31.5662C59.6906 32.6772 56.0987 33.3757 52.0993 33.3757C48.71 33.3757 45.6133 32.8737 43.2107 32.0361C43.1875 32.0319 43.1636 32.0324 43.1406 32.0376C43.1175 32.0427 43.0957 32.0523 43.0763 32.066C43.057 32.0796 43.0405 32.0969 43.0279 32.1169C43.0153 32.137 43.0067 32.1593 43.0027 32.1827L42.6603 34.0716C42.6545 34.1166 42.6657 34.1621 42.6917 34.1992C42.7177 34.2363 42.7566 34.2622 42.8008 34.2718C47.6876 35.4131 53.3077 36.0622 59.2893 36.0622C66.7302 36.0622 72.7639 33.6399 72.7639 30.6534C72.7639 29.4912 71.852 28.4152 70.3006 27.5345C68.9413 26.8656 68.0852 25.9984 68.2951 25.417C68.5129 24.814 69.8133 24.7173 71.358 25.1349C71.4457 25.1466 71.5304 25.0937 71.5617 24.936L71.3058 23.5311ZM59.285 9.89322C59.285 10.0102 59.2813 10.1266 59.2739 10.2406C59.4703 14.2113 57.0241 19.5235 52.5547 24.0091C51.6675 24.901 50.7226 25.7333 49.7262 26.5004C49.6869 26.5256 49.6393 26.5343 49.5937 26.5244C49.5004 26.5047 49.4396 26.4154 49.4562 26.3058L53.8367 2.10577C53.8343 2.06102 53.8155 2.01875 53.7839 1.98713C53.7522 1.9555 53.71 1.93677 53.6655 1.93455C29.5231 3.07396 10.7781 11.4601 10.7781 21.6366C10.7781 32.5904 32.4952 41.4699 59.285 41.4699C86.0753 41.4699 107.792 32.5904 107.792 21.6366C107.792 10.6828 86.076 1.80336 59.285 1.80336C58.4362 1.80336 57.5918 1.8126 56.7449 1.83046C56.7048 1.83064 56.6659 1.84424 56.6343 1.86911C56.6027 1.89399 56.5803 1.92872 56.5706 1.9678L56.0582 4.79171C56.0459 4.86747 56.0815 4.93953 56.1441 4.9771C57.0816 5.40886 57.8759 6.10161 58.4326 6.97306C58.9894 7.8445 59.2852 8.85802 59.285 9.89322ZM9.05307 54.0915V80.5919H23.714V86.555H0V54.0915H9.05307ZM44.4749 73.4006L40.2454 61.5778L36.0171 73.4006H44.4749ZM45.9969 54.1057L58.289 86.5464H48.8726L46.1656 78.8858H34.3258L31.6195 86.5464H24.0632L36.2417 54.1057H45.9969ZM68.3172 80.5734H72.3761C74.8007 80.5734 78.0152 80.1491 80.1011 77.3578C82.1858 74.5684 82.2435 71.3047 82.2435 69.9811C82.2435 68.2776 82.0177 64.8267 79.5942 62.4142C77.3377 60.2394 74.4055 60.0497 72.2073 60.0497H68.3172V80.5734ZM59.2948 54.0915H72.5448C76.3797 54.0915 82.1864 54.4697 86.6418 58.3006C90.2502 61.3745 91.9416 66.3874 91.9416 70.2651C91.9416 73.1019 91.0407 78.9185 86.0784 82.8442C82.1306 85.965 77.6771 86.5329 73.504 86.5329H59.2954V54.0915H59.2948ZM108.923 73.3858L104.695 61.5636L100.466 73.3858H108.923ZM110.445 54.0915L122.737 86.5323H113.32L110.615 78.8711H98.7743L96.0667 86.5323H88.5111L100.691 54.0909H110.445V54.0915Z" fill="#53575C"/>
</svg>
