<svg width="160" height="70" viewBox="0 0 160 70" fill="none" xmlns="http://www.w3.org/2000/svg">
<path fill-rule="evenodd" clip-rule="evenodd" d="M26.9649 55.7169H20.3008V46.8045H15.6515V69.0822H20.3008V59.1161H26.962L26.963 69.0822H31.6142V46.8045H26.9649V55.7169ZM137.9 46.8045V50.2047H144.216V69.0822H148.865V50.2047H155.179V46.8045H137.9ZM113.351 46.8045H108.702V69.0822H122.001V65.681H113.349L113.351 46.8045ZM60.1493 65.3765C60.0812 65.6081 59.91 65.6713 59.6648 65.6713C59.4294 65.6713 59.2485 65.5798 59.1745 65.3658L54.2791 46.8055H48.8553L54.4804 67.1277C54.7538 68.4654 55.645 69.0851 56.9068 69.0851H61.1961C62.4579 69.0851 63.2742 68.441 63.5904 67.1598L69.0802 46.8055H64.9738L60.1493 65.3765ZM0.00291885 50.2845L0 65.6012C0 68.0791 1.27153 69.0841 3.47216 69.0841L13.8692 69.0822V65.6752H6.34989C5.05987 65.6752 4.6464 65.3619 4.6464 63.9727L4.65224 51.9053C4.65224 50.5637 4.96259 50.2047 6.35281 50.2047H13.8692V46.8055H3.48188C1.10518 46.8045 0.00291885 48.0323 0.00291885 50.2845ZM39.0547 63.9727L39.0566 59.1161H48.2969V55.7169H39.0625L39.0615 51.9053C39.0615 50.6152 39.3466 50.2047 40.763 50.2047H48.3952V46.8055L37.8882 46.8094C35.4862 46.8094 34.4122 48.008 34.4122 50.2845L34.4093 65.6012C34.4093 67.9536 35.5553 69.0841 37.8824 69.0841L49.3632 69.0822V65.6752H40.7592C39.4682 65.6752 39.0547 65.3862 39.0547 63.9727ZM82.6478 59.6687C84.7988 59.6687 86.1209 58.69 86.1209 56.1859L86.117 50.2845C86.117 47.9583 85.0206 46.8055 82.642 46.8055H69.6844V69.0822H74.3337V50.2047H79.7662C81.206 50.2047 81.4667 50.6152 81.4667 51.9053L81.4726 54.6186C81.4726 55.9339 81.1097 56.323 79.7701 56.323L77.2299 56.325C76.2434 56.325 75.6889 56.9194 75.6889 57.8796C75.6889 58.3622 75.9341 58.7114 76.1277 59.0578L81.997 69.0831H87.7505L81.6039 59.6775L82.6478 59.6687ZM102.409 46.8084H92.1654C89.7128 46.8084 88.6903 48.0566 88.6903 50.2835L88.6864 65.6003C88.6864 68.1297 90.0338 69.0831 92.1595 69.0831H102.411C104.637 69.0831 105.888 68.0285 105.888 65.6003L105.884 50.2835C105.884 48.008 104.811 46.8084 102.409 46.8084ZM99.5377 65.6752H95.0363C93.6966 65.6752 93.3337 65.3123 93.3337 63.9727V51.9053C93.3337 50.7407 93.4933 50.2047 95.0363 50.2047H99.5397C100.754 50.2047 101.236 50.4139 101.236 51.9053L101.24 63.9727C101.24 65.4106 100.801 65.6752 99.5377 65.6752ZM127.549 63.9727L127.551 59.1161H136.792V55.7169H127.557V51.9053C127.557 50.6152 127.842 50.2047 129.258 50.2047H136.889V46.8055L126.383 46.8094C123.979 46.8094 122.906 48.008 122.906 50.2845L122.904 65.6012C122.904 67.9536 124.05 69.0841 126.377 69.0841L137.858 69.0822V65.6752H129.254C127.964 65.6752 127.549 65.3862 127.549 63.9727ZM118.279 6.34697L93.5167 6.34989C92.8843 6.34989 92.4698 6.16116 92.4698 5.29239V1.61982C92.4698 0.560371 91.8997 0 90.8646 0L62.5182 0.00097233C61.4588 0.00097233 60.914 0.597341 60.914 1.61009L60.9121 5.28266C60.9121 6.05803 60.5463 6.34016 59.8652 6.34016L43.6379 6.34502C42.3965 6.34502 41.6698 6.9375 41.2952 7.71579L33.3946 23.16C33.2897 23.3624 33.2344 23.5868 33.2331 23.8148C33.2331 24.4267 33.6339 25.2157 34.74 25.2157L59.8633 25.2128C60.6387 25.2128 60.9101 25.5649 60.9101 26.2703L60.9082 29.9428C60.9082 31.049 61.5512 31.5529 62.5163 31.5529L76.691 31.552L90.8617 31.551C91.8268 31.551 92.4689 31.084 92.4689 29.9526L92.4669 26.28C92.4669 25.5289 92.786 25.2225 93.5137 25.2225L109.267 25.2186C110.354 25.2186 111.135 24.9326 111.68 23.9208L119.491 8.65849C119.662 8.32869 119.782 8.14093 119.782 7.74887C119.785 6.71179 118.891 6.34697 118.279 6.34697ZM112.039 12.4994L108.273 19.8649C108.038 20.292 107.617 20.3105 107.323 20.3105H88.629C87.8536 20.3105 87.5705 20.6627 87.5705 21.367L87.5666 25.6039C87.5666 26.3082 87.2592 26.6448 86.5062 26.6448H76.6929L66.8728 26.6468C66.2161 26.6468 65.8143 26.4162 65.8143 25.5932L65.8124 21.3563C65.8124 20.5819 65.4573 20.3056 64.7539 20.3056H41.8361C41.2728 20.3056 40.8837 19.9505 40.8837 19.4583C40.8837 19.3162 40.9197 19.181 40.9819 19.0633L44.7479 11.6977C44.8919 11.436 45.1283 11.257 45.6974 11.257L64.7539 11.258C65.4116 11.258 65.8202 10.9934 65.8202 10.1947L65.8192 5.9588C65.8192 5.20678 66.147 4.90518 66.8747 4.90518L86.5101 4.90421C87.2154 4.90421 87.5666 5.21747 87.5666 5.96852L87.5647 10.2044C87.5647 10.9321 87.9032 11.2551 88.6309 11.2551H111.186C111.904 11.2551 112.138 11.7279 112.138 12.1024C112.137 12.2407 112.103 12.3766 112.039 12.4994Z" fill="#65696D"/>
<path fill-rule="evenodd" clip-rule="evenodd" d="M96.153 3.25606C96.153 2.88053 95.8475 2.79492 95.5313 2.79492H94.7734V4.53733H95.0186V3.7746H95.3572L95.8553 4.53733H96.1286L95.6101 3.74931C95.9214 3.74152 96.153 3.59851 96.153 3.25606ZM95.4749 3.56641H95.0186V3.00312H95.4846C95.6675 3.00312 95.9088 3.02354 95.9088 3.2512C95.9078 3.42242 95.827 3.56641 95.4749 3.56641Z" fill="#65696D"/>
<path fill-rule="evenodd" clip-rule="evenodd" d="M95.3534 2.10938C95.1488 2.10874 94.946 2.14847 94.7567 2.22629C94.5674 2.3041 94.3953 2.41848 94.2503 2.56288C94.1053 2.70728 93.9901 2.87887 93.9115 3.06781C93.8329 3.25676 93.7922 3.45936 93.792 3.66402C93.792 4.52209 94.4817 5.21769 95.3534 5.21769C96.2144 5.21769 96.9081 4.5289 96.9081 3.66305C96.9081 2.80595 96.2144 2.10938 95.3534 2.10938ZM95.3534 4.97252C95.0122 4.96322 94.6881 4.82113 94.45 4.57648C94.2119 4.33183 94.0787 4.00393 94.0787 3.66256C94.0787 3.32119 94.2119 2.99329 94.45 2.74864C94.6881 2.50399 95.0122 2.3619 95.3534 2.3526C95.6985 2.35311 96.0293 2.49042 96.2733 2.73442C96.5173 2.97843 96.6546 3.30922 96.6551 3.65429C96.6551 4.38491 96.0753 4.97252 95.3534 4.97252ZM158.615 48.0452C158.615 47.6706 158.309 47.585 157.993 47.585H157.235V49.3255H157.481V48.5637H157.819L158.317 49.3255H158.591L158.072 48.5384C158.382 48.5316 158.615 48.3866 158.615 48.0452ZM157.936 48.3545H157.48V47.7922H157.946C158.129 47.7922 158.37 47.8127 158.37 48.0413C158.37 48.2125 158.288 48.3545 157.936 48.3545Z" fill="#65696D"/>
<path fill-rule="evenodd" clip-rule="evenodd" d="M157.815 46.9004C156.95 46.9004 156.254 47.5979 156.254 48.455C156.254 49.3121 156.944 50.0097 157.815 50.0097C158.676 50.0097 159.37 49.3199 159.37 48.455C159.37 47.5979 158.676 46.9004 157.815 46.9004ZM157.815 49.7645C157.468 49.7645 157.135 49.6266 156.889 49.381C156.644 49.1354 156.506 48.8023 156.506 48.455C156.506 48.1077 156.644 47.7747 156.889 47.5291C157.135 47.2835 157.468 47.1456 157.815 47.1456C158.16 47.1461 158.491 47.2834 158.735 47.5274C158.979 47.7714 159.117 48.1022 159.117 48.4473C159.117 49.1769 158.537 49.7645 157.815 49.7645Z" fill="#65696D"/>
</svg>
