<svg width="110" height="110" viewBox="0 0 110 110" fill="none" xmlns="http://www.w3.org/2000/svg">
<path d="M55.3406 107.681C84.2475 107.681 107.681 84.2475 107.681 55.3406C107.681 26.4337 84.2475 3 55.3406 3C26.4337 3 3 26.4337 3 55.3406C3 84.2475 26.4337 107.681 55.3406 107.681Z" stroke="#53575C" stroke-width="4.54272"/>
<path d="M23.3359 55.3445C23.3359 37.6686 37.6643 23.3406 55.3406 23.3398C73.0159 23.3406 87.3435 37.6682 87.3442 55.3445C87.3435 73.0198 73.0159 87.3474 55.3406 87.3485C37.6643 87.3474 23.3359 73.0198 23.3359 55.3445V55.3445ZM33.987 33.9916C28.5208 39.4593 25.1433 47.0027 25.1425 55.3445C25.1433 63.686 28.5208 71.2298 33.987 76.6971C39.4546 82.1625 46.9981 85.5408 55.3406 85.5415C63.6813 85.5408 71.2248 82.1625 76.6924 76.6971C82.1583 71.2298 85.5362 63.686 85.5369 55.3445C85.5362 47.0027 82.1583 39.4593 76.6924 33.9916C71.2248 28.5254 63.6813 25.1479 55.3406 25.1472C46.9981 25.1479 39.4546 28.5254 33.987 33.9916V33.9916Z" fill="#53575C"/>
<path d="M23.3516 55.3427H55.3585V23.3398H55.3563C37.6806 23.3406 23.3527 37.6674 23.3516 55.3427V55.3427Z" fill="#53575C"/>
<path d="M87.3399 55.3262H55.333V87.35H55.3352C73.0105 87.3493 87.3388 73.0014 87.3399 55.3262V55.3262Z" fill="#53575C"/>
<path d="M92.4269 25.7476L85.2946 30.466L88.6695 23.9016C87.7922 22.865 86.464 21.7753 86.464 21.7753L79.9531 25.0444L84.7308 18.039C83.9375 17.373 83.0197 16.8191 82.1395 16.1513L75.4523 26.5818C75.4523 26.5818 76.7186 27.3267 78.2682 28.7575L85.1888 25.1775L81.5638 31.989C82.3792 32.85 83.1049 33.8933 83.8601 34.8244L94.3935 28.3094C94.3931 28.3094 93.7485 27.2961 92.4269 25.7476ZM56.0833 18.6356L59.2927 11.5439L59.5829 20.5344C60.8754 20.5919 62.7823 21.0783 62.7823 21.0783L62.2063 8.34453C59.7861 7.99273 57.8548 7.89648 57.8548 7.89648L54.7628 15.5885L51.7433 7.95844C51.7433 7.95844 49.749 8.15278 47.3285 8.50421L46.7491 21.3361C46.7491 21.3361 48.6597 20.7833 49.9522 20.7262L50.2251 11.5981L53.4426 18.6353H56.0833V18.6356ZM28.9212 22.8049L28.9216 22.792C29.0773 22.2203 29.0717 21.6166 28.9056 21.0478C28.7394 20.4791 28.4191 19.9674 27.9801 19.5693C26.678 18.3816 24.7383 18.3414 22.6685 20.4072C22.6685 20.4072 18.8532 24.2327 16.2686 27.9794L25.5507 36.4444L32.5462 28.6019C34.0681 26.9207 34.1274 24.5396 32.7354 23.2692C31.6943 22.3214 30.1854 22.1868 28.9212 22.8049V22.8049ZM19.9676 27.3547C23.2559 23.2813 24.5724 22.168 24.5724 22.168C25.4346 21.422 26.0722 21.3567 26.5895 21.8284C27.1073 22.2997 27.042 23.2164 26.4446 23.875L21.7971 29.0222L19.9676 27.3547ZM30.4169 27.0125L25.536 32.4315L23.7014 30.7588L28.5827 25.3401C29.1794 24.6812 30.0747 24.5204 30.5814 24.9824C31.0881 25.4445 31.014 26.3539 30.4169 27.0125Z" fill="#53575C"/>
</svg>
