<svg width="153" height="27" viewBox="0 0 153 27" fill="none" xmlns="http://www.w3.org/2000/svg">
<path fill-rule="evenodd" clip-rule="evenodd" d="M146.39 12.7423H135.189C135.328 11.3388 136.318 9.93536 138.107 9.93536H151.316V7.23863H137.501C131.999 7.23863 129.74 11.4221 129.74 15.439H145.152C145.674 15.439 146.913 15.5493 146.913 16.8147C146.913 18.0811 145.84 18.1913 143.996 18.246H127.924V7.23863H123.191V18.246H114.165C111.44 18.246 111.138 16.2375 111.138 15.1647V7.23863H102.524L95.5057 11.9169L89.1766 7.23863H70.7126C65.2089 7.23863 61.9064 11.0637 61.4386 14.3932H65.2449C63.723 15.4194 62.6453 16.8099 62.0599 18.2411L51.3122 18.246C48.5877 18.246 48.2848 16.2375 48.2848 15.1647V7.23863H43.5518V14.7516C43.5518 19.9254 47.1842 20.9435 48.9453 20.9435H86.7844L93.8565 16.2098L100.269 20.9435H107.727L97.7926 13.6233L105.965 8.14652V15.3843C105.965 20.0618 110.534 20.9435 111.8 20.9435H146.336C148.043 20.9435 152.749 20.7231 152.749 16.9805C152.749 13.2379 149.279 12.7423 146.39 12.7423ZM86.0145 18.246H68.2086C68.3457 16.8425 69.8872 15.439 71.676 15.439H82.1886V12.7423H67.8232C67.9604 11.3388 69.5018 9.93536 71.2907 9.93536H83.2892V8.36696L91.6007 14.5311L86.0145 18.246ZM18.7718 26.9697C24.9866 26.9697 30.4984 24.8004 33.9153 21.4571L30.8365 21.4718C27.9258 23.9195 23.6705 25.4601 18.8477 25.4601C9.85127 25.4601 2.82818 20.0993 2.82818 13.4853C2.82818 5.8572 9.85127 1.51043 18.8477 1.51043C19.4201 1.51206 19.8773 1.77577 19.5344 2.27217C17.6655 4.5223 12.3431 11.7642 11.3723 13.3334C9.45693 16.4269 9.50265 20.2365 14.1948 20.5035H33.9251C34.9334 20.5035 35.1889 20.0307 35.5531 19.5376C36.8536 17.7885 37.5517 15.6648 37.5428 13.4853C37.5395 7.80116 33.5397 3.54094 27.6539 1.44512L26.7428 2.80614C31.6333 4.61049 34.8673 8.25674 34.8673 13.4853C34.8673 14.3932 34.7342 15.2774 34.4827 16.1273C34.2639 16.8654 33.8369 17.4899 33.0278 17.4899H17.2785C15.2611 17.4899 16.0408 15.4088 16.7878 14.4005C17.8712 12.4582 23.806 4.36963 25.2348 2.86246C25.5989 2.30973 26.6195 1.16507 25.2128 0.726638C23.2043 0.249833 21.0342 0 18.771 0C8.40453 0 0.00571728 5.32324 2.13912e-06 13.4853C-0.00489655 21.7232 8.40453 26.9697 18.7718 26.9697Z" fill="#53575C"/>
</svg>
