<svg width="151" height="71" viewBox="0 0 151 71" fill="none" xmlns="http://www.w3.org/2000/svg">
<path fill-rule="evenodd" clip-rule="evenodd" d="M0 52.3648H5.84503V58.8089H16.2867V52.3648H22.0587V70.4504H16.2867V62.8355H5.77029V70.378H0V52.3648ZM22.7151 52.3648H28.4107L34.4 59.3214L40.3164 52.3648H45.9398L37.2482 63.4213V70.4504H31.4788V62.9088L22.7151 52.3648ZM46.6701 52.3648H52.4403V66.3505H61.7152C63.1759 66.3505 64.1253 64.8885 64.1253 63.349V52.3648H69.8938V66.7907C69.8938 69.0599 67.3386 70.378 65.8771 70.378H46.6701V52.3648ZM71.1353 52.3648H90.345C92.6089 52.3648 94.4347 53.7544 94.4347 56.5767V70.4142L88.6653 70.4504V59.467C88.6653 57.9319 88.1532 57.0161 86.1814 57.0161H77.4907V70.4908H71.1353V52.3648ZM96.1883 52.3648H112.985C116.346 52.3648 118.939 55.0734 118.939 57.1599V65.4717C118.902 66.9354 116.856 70.4495 114.301 70.4495H96.1892V52.3648H96.1883ZM102.067 66.4245H110.932C112.209 66.4245 113.196 65.4726 113.196 64.2992V59.0277C113.196 57.7458 112.145 56.9799 110.796 56.9799H102.067V66.4245ZM126.06 52.2881H144.063V70.4504H137.635V65.7664H126.569V70.4504H120.07V58.6598C119.923 54.7072 123.43 52.2881 126.06 52.2881ZM126.496 58.7374V61.663H137.598V57.0479H128.248C127.154 57.0488 126.496 57.7096 126.496 58.7374ZM145.231 52.3286H151V71H145.231V52.3286ZM75.8514 0C51.9094 0 32.4995 9.60922 32.4995 21.4592C32.4995 33.3101 51.9094 42.9201 75.8514 42.9201C99.7917 42.9201 119.202 33.3109 119.202 21.4592C119.202 9.61008 99.7909 0 75.8514 0ZM71.7385 4.77618C76.6865 3.02216 91.3872 4.77618 97.0973 7.5261C98.9248 9.28357 88.9488 14.9299 77.0706 17.3774C60.0879 20.8114 68.1591 7.67773 71.7385 4.77618ZM42.5735 30.2035C38.8403 27.5345 31.5304 19.8964 43.6397 11.956C50.0363 8.2153 53.6148 7.37275 58.0311 6.45784C60.1644 5.99779 61.6869 6.53365 59.7829 8.13777C55.7473 12.3376 47.3703 26.2319 46.6099 29.2886C45.999 31.3519 44.7816 31.8834 42.5735 30.2035ZM77.4486 39.0632C70.2916 39.8247 54.3769 37.4591 54.0711 35.4001C54.3769 30.4335 79.3534 22.1872 83.8453 26.7687C85.7509 30.3568 82.096 38.8332 77.4486 39.0632ZM113.851 24.6278C112.021 28.8285 105.854 33.5651 92.9097 36.7724C90.9275 37.2273 90.2428 36.0074 91.5367 34.8616C93.6709 33.5642 103.951 16.3083 105.245 12.87C106.007 11.1125 107.453 11.8026 108.368 12.4884C112.481 15.1599 115.602 19.5131 113.851 24.6278Z" fill="#53575C"/>
</svg>
