<svg width="98" height="102" viewBox="0 0 98 102" fill="none" xmlns="http://www.w3.org/2000/svg">
<path fill-rule="evenodd" clip-rule="evenodd" d="M8.69984 12.9327C11.5606 16.4199 16.5774 19.0977 16.7904 19.2103C16.8439 19.2384 16.9025 19.2553 16.9627 19.2599C17.023 19.2646 17.0835 19.2569 17.1407 19.2373C17.1978 19.2177 17.2503 19.1866 17.2949 19.1461C17.3396 19.1055 17.3754 19.0562 17.4001 19.0013C17.4538 18.8822 23.1559 6.98895 48.4414 6.98895C73.7318 6.98895 79.586 18.9437 79.6412 19.0645C79.6665 19.1187 79.7026 19.1673 79.7473 19.2073C79.7919 19.2473 79.8443 19.2778 79.9011 19.297C79.9579 19.3163 80.0181 19.3238 80.078 19.3192C80.1378 19.3146 80.1961 19.298 80.2493 19.2703C80.5079 19.1341 86.6449 15.8957 88.8025 12.7885C88.8106 12.7772 88.8139 12.7634 88.8196 12.7512C88.847 12.7033 88.8646 12.6504 88.8716 12.5957L88.8781 12.5552C88.8799 12.5031 88.873 12.4511 88.8578 12.4012C88.8561 12.398 88.8578 12.3955 88.8561 12.3923C88.8529 12.3834 88.8448 12.3777 88.8415 12.3696C88.8301 12.3429 88.8212 12.3161 88.8049 12.291C88.4667 11.7895 80.1306 0 48.4414 0C16.7416 0 8.98112 11.9159 8.66651 12.4231C8.66732 12.4231 8.48197 12.6678 8.69984 12.9327Z" fill="#65696D"/>
<path fill-rule="evenodd" clip-rule="evenodd" d="M48.4405 6.10733C24.9451 6.10733 18.0634 15.9904 16.8123 18.2161C15.7757 17.6295 12.8718 15.898 10.6094 13.6999L13.3678 14.7127C13.4547 14.7447 13.5495 14.7486 13.6388 14.7239C13.7281 14.6992 13.8074 14.647 13.8653 14.5749C23.6289 2.44108 48.1739 3.45304 48.421 3.46439C48.4283 3.46439 48.4348 3.46115 48.4413 3.46115C48.4486 3.46115 48.4551 3.46439 48.4625 3.46439C48.7096 3.45304 73.2586 2.44594 83.0173 14.5749C83.1352 14.7208 83.332 14.7767 83.5084 14.7151L87.0448 13.4876C84.9189 15.6055 81.3906 17.636 80.2265 18.2785C78.9615 16.0649 71.9717 6.10733 48.4405 6.10733Z" fill="#65696D"/>
<path fill-rule="evenodd" clip-rule="evenodd" d="M48.2673 43.7079C48.2673 43.7095 48.2689 43.7103 48.2697 43.7119C48.286 43.7508 48.3128 43.7857 48.3396 43.8189C48.3486 43.8302 48.3543 43.8448 48.364 43.8545C48.3746 43.8643 48.3892 43.8699 48.3998 43.8788C48.432 43.9077 48.4685 43.9314 48.5079 43.9493L48.5112 43.9518C48.5307 43.9599 48.5502 43.9574 48.5705 43.9623C48.6055 43.9712 48.6396 43.9817 48.6762 43.9817C48.7128 43.9817 48.7469 43.9712 48.7819 43.9623C48.8014 43.9582 48.8217 43.9599 48.8412 43.9518C48.842 43.9509 48.8429 43.9493 48.8445 43.9493C48.8836 43.9314 48.9198 43.9076 48.9518 43.8788C48.9632 43.8699 48.9786 43.8643 48.9876 43.8545C48.9981 43.8448 49.003 43.8294 49.012 43.8189C49.0409 43.787 49.0647 43.751 49.0827 43.7119L49.0851 43.7079C50.4411 40.343 52.2801 37.6126 54.4214 35.3359C53.7434 37.6223 53.732 39.2322 53.732 39.3157C53.7333 39.4141 53.7677 39.5093 53.8295 39.586C53.8913 39.6628 53.9771 39.7168 54.0732 39.7394C54.1693 39.762 54.2703 39.752 54.36 39.7109C54.4498 39.6698 54.5232 39.6 54.5685 39.5126C54.7051 39.2411 55.3498 38.6027 55.7644 38.2357C55.8488 38.1603 55.9011 38.0557 55.9107 37.9432C56.1156 35.4963 58.2366 32.2181 58.6065 31.6631C60.4544 30.3141 62.416 29.1652 64.4192 28.1419C61.9502 30.101 58.8585 32.9222 57.0912 35.9225C57.038 36.0155 57.0206 36.1245 57.0421 36.2293C57.0636 36.3342 57.1226 36.4276 57.208 36.4924C57.2935 36.5572 57.3996 36.5888 57.5067 36.5814C57.6138 36.5741 57.7146 36.5282 57.7903 36.4524C57.8285 36.4135 61.7348 32.5066 71.2611 29.8758C73.4666 29.2665 79.1021 27.2799 85.8708 23.3446C85.9686 23.2876 86.0408 23.1954 86.0724 23.087L88.7308 14.9224L88.8909 14.7773C88.7413 17.6828 88.1682 20.4991 87.4845 22.9298C86.6268 23.4848 80.7825 27.211 75.7836 29.0372C74.7454 29.4164 73.5609 29.7786 72.3049 30.161C64.9403 32.4094 54.9132 35.4777 48.6746 48.7191C42.4375 35.4769 32.4113 32.4086 25.0459 30.1602C23.7907 29.777 22.6054 29.4156 21.568 29.0364C16.5699 27.2102 10.7247 23.4832 9.86626 22.929C8.76226 20.4651 8.36391 17.7338 8.1875 15.4004C10.5735 24.8694 20.877 28.2197 25.6401 29.751C32.8202 32.0593 36.9468 34.3887 36.9874 34.4122C37.0687 34.4593 37.1628 34.4792 37.2562 34.4692C37.3496 34.4591 37.4373 34.4196 37.5066 34.3564C37.5758 34.2932 37.623 34.2095 37.6412 34.1177C37.6594 34.0258 37.6477 33.9306 37.6077 33.8459C36.568 31.6016 34.6299 29.6003 32.8731 28.112C39.1613 31.3139 45.0553 35.7426 48.2673 43.7079Z" fill="#283037"/>
<path fill-rule="evenodd" clip-rule="evenodd" d="M48.2746 49.9458C48.2836 49.9669 48.2998 49.9798 48.312 49.9985C48.3291 50.0268 48.3445 50.0544 48.3681 50.0779C48.3917 50.1014 48.4201 50.1168 48.4478 50.1338C48.4657 50.1451 48.4803 50.1621 48.5006 50.1711C48.5039 50.1719 48.5071 50.1711 48.5112 50.1727C48.5421 50.1856 48.5762 50.1889 48.6096 50.1937C48.6331 50.1978 48.6559 50.2067 48.6795 50.2067C48.7031 50.2067 48.7258 50.1978 48.7494 50.1937C48.7835 50.1889 48.8169 50.1856 48.8478 50.1727C48.851 50.1711 48.8551 50.1719 48.8583 50.1711C48.8787 50.1621 48.8925 50.1451 48.9104 50.1338C48.938 50.1168 48.9664 50.1014 48.99 50.0779C49.0136 50.0544 49.029 50.0268 49.0461 49.9993C49.0575 49.9807 49.0746 49.9669 49.0835 49.9466C55.123 36.3284 65.2062 33.2512 72.5683 31.0037C73.8357 30.6172 75.0324 30.2518 76.0933 29.8645C80.3061 28.3251 85.0928 25.4707 87.1081 24.2148C86.0537 27.591 84.8928 29.9941 84.6644 30.4568C82.2336 32.4127 78.6891 33.4044 74.5894 34.5492C69.9465 35.8456 64.6826 37.3153 59.7845 40.5951C53.5239 44.7871 49.851 51.9495 48.6787 54.5284C47.5056 51.9487 43.8334 44.7871 37.5728 40.5951C32.6739 37.3145 27.4116 35.8456 22.7688 34.5492C18.669 33.4044 15.1245 32.4127 12.6946 30.4568C12.4653 29.995 11.3052 27.591 10.25 24.2148C12.2661 25.4699 17.052 28.3251 21.2656 29.8645C22.3265 30.2526 23.5232 30.6172 24.7898 31.0037C32.152 33.2496 42.2351 36.3276 48.2746 49.9458Z" fill="#283037"/>
<mask id="path-5-inside-1_363_1731" fill="white">
<path fill-rule="evenodd" clip-rule="evenodd" d="M0 40.1366C0 26.3669 4.77533 17.5112 7.62151 13.4585C7.62151 13.4585 7.88572 13.0218 8.30358 13.4066C8.30494 13.4079 8.30957 13.4125 8.31746 13.4205C8.62162 13.7257 13.7662 18.8879 22.7694 22.7015L25.1148 23.681C33.8858 27.3197 43.795 31.4324 48.6777 42.4165C50.9344 37.3421 54.2643 33.7342 58.0592 30.9625L58.0673 30.956C62.4834 27.7321 67.5278 25.6369 72.2438 23.681L74.5891 22.7015C81.4245 19.8065 86.0421 16.1289 87.9981 14.3959C88.0367 14.3402 88.088 14.2944 88.1477 14.2622C88.7027 13.7644 89.0091 13.4539 89.0512 13.4113L89.0558 13.4066C89.1055 13.3556 89.1669 13.3174 89.2348 13.2954C89.3027 13.2734 89.3749 13.2682 89.4452 13.2802C89.5269 13.266 89.6111 13.2752 89.6878 13.3067C89.7645 13.3383 89.8306 13.3909 89.8785 13.4585C92.7255 17.512 97.5 26.3669 97.5 40.1366C97.5 51.9172 91.8442 66.2702 79.2051 71.7805C67.2005 77.0154 53.8799 76.8768 49.5651 76.832C49.2412 76.8286 48.968 76.8258 48.75 76.8258C48.5322 76.8258 48.2593 76.8286 47.9358 76.832C43.6219 76.8767 30.3003 77.015 18.2949 71.7805C5.65658 66.2702 0 51.918 0 40.1366ZM60.2792 41.3244C52.9414 46.2367 49.1278 55.7058 49.0904 55.8006C48.6034 56.7769 48.2685 55.8006 48.2685 55.7998L48.2683 55.7993C48.2204 55.6805 44.4137 46.2336 37.0805 41.3235C32.2995 38.1224 27.1096 36.6729 22.5301 35.3944C18.6222 34.303 15.207 33.3469 12.6787 31.5466C12.2129 35.2655 10.6658 52.1448 19.5474 60.845C28.2233 69.3426 42.9582 69.9948 48.7498 69.8806C54.5413 69.9948 69.2762 69.3426 77.9521 60.845C86.9126 52.0703 85.2615 34.9738 84.8103 31.4559C82.2699 33.3176 78.8046 34.285 74.8287 35.3949L74.8279 35.3952C70.2493 36.6737 65.0602 38.1232 60.2792 41.3244Z"/>
</mask>
<path fill-rule="evenodd" clip-rule="evenodd" d="M0 40.1366C0 26.3669 4.77533 17.5112 7.62151 13.4585C7.62151 13.4585 7.88572 13.0218 8.30358 13.4066C8.30494 13.4079 8.30957 13.4125 8.31746 13.4205C8.62162 13.7257 13.7662 18.8879 22.7694 22.7015L25.1148 23.681C33.8858 27.3197 43.795 31.4324 48.6777 42.4165C50.9344 37.3421 54.2643 33.7342 58.0592 30.9625L58.0673 30.956C62.4834 27.7321 67.5278 25.6369 72.2438 23.681L74.5891 22.7015C81.4245 19.8065 86.0421 16.1289 87.9981 14.3959C88.0367 14.3402 88.088 14.2944 88.1477 14.2622C88.7027 13.7644 89.0091 13.4539 89.0512 13.4113L89.0558 13.4066C89.1055 13.3556 89.1669 13.3174 89.2348 13.2954C89.3027 13.2734 89.3749 13.2682 89.4452 13.2802C89.5269 13.266 89.6111 13.2752 89.6878 13.3067C89.7645 13.3383 89.8306 13.3909 89.8785 13.4585C92.7255 17.512 97.5 26.3669 97.5 40.1366C97.5 51.9172 91.8442 66.2702 79.2051 71.7805C67.2005 77.0154 53.8799 76.8768 49.5651 76.832C49.2412 76.8286 48.968 76.8258 48.75 76.8258C48.5322 76.8258 48.2593 76.8286 47.9358 76.832C43.6219 76.8767 30.3003 77.015 18.2949 71.7805C5.65658 66.2702 0 51.918 0 40.1366ZM60.2792 41.3244C52.9414 46.2367 49.1278 55.7058 49.0904 55.8006C48.6034 56.7769 48.2685 55.8006 48.2685 55.7998L48.2683 55.7993C48.2204 55.6805 44.4137 46.2336 37.0805 41.3235C32.2995 38.1224 27.1096 36.6729 22.5301 35.3944C18.6222 34.303 15.207 33.3469 12.6787 31.5466C12.2129 35.2655 10.6658 52.1448 19.5474 60.845C28.2233 69.3426 42.9582 69.9948 48.7498 69.8806C54.5413 69.9948 69.2762 69.3426 77.9521 60.845C86.9126 52.0703 85.2615 34.9738 84.8103 31.4559C82.2699 33.3176 78.8046 34.285 74.8287 35.3949L74.8279 35.3952C70.2493 36.6737 65.0602 38.1232 60.2792 41.3244Z" fill="#65696D"/>
<path d="M7.62151 13.4585L8.19143 13.8587L8.20508 13.8393L8.21737 13.819L7.62151 13.4585ZM8.30358 13.4066L8.77956 12.8982L8.77538 12.8943L8.30358 13.4066ZM8.31746 13.4205L8.81076 12.9288L8.81075 12.9288L8.31746 13.4205ZM22.7694 22.7015L22.4978 23.3427L22.501 23.3441L22.7694 22.7015ZM25.1148 23.681L24.8464 24.3236L24.8479 24.3243L25.1148 23.681ZM48.6777 42.4165L48.0413 42.6994L48.6775 44.1307L49.314 42.6995L48.6777 42.4165ZM58.0592 30.9625L58.47 31.5249L58.482 31.5161L58.4937 31.5068L58.0592 30.9625ZM58.0673 30.956L57.6567 30.3935L57.6446 30.4023L57.6329 30.4117L58.0673 30.956ZM72.2438 23.681L72.5106 24.3243L72.5122 24.3236L72.2438 23.681ZM74.5891 22.7015L74.8576 23.3441L74.8607 23.3427L74.5891 22.7015ZM87.9981 14.3959L88.46 14.9171L88.5229 14.8614L88.5707 14.7924L87.9981 14.3959ZM88.1477 14.2622L88.4778 14.8754L88.5509 14.8361L88.6128 14.7806L88.1477 14.2622ZM89.0512 13.4113L88.5563 12.9212L88.5555 12.9221L89.0512 13.4113ZM89.0558 13.4066L89.5507 13.8966L89.5546 13.8926L89.0558 13.4066ZM89.2348 13.2954L89.4498 13.9578L89.2348 13.2954ZM89.4452 13.2802L89.3275 13.9666L89.4461 13.987L89.5646 13.9663L89.4452 13.2802ZM89.8785 13.4585L90.4484 13.0582L90.4467 13.0558L89.8785 13.4585ZM79.2051 71.7805L78.9268 71.1421L78.9268 71.1422L79.2051 71.7805ZM49.5651 76.832L49.5579 77.5284L49.5651 76.832ZM47.9358 76.832L47.9285 76.1356L47.9358 76.832ZM18.2949 71.7805L18.5732 71.1421H18.5732L18.2949 71.7805ZM49.0904 55.8006L49.7136 56.1114L49.7271 56.0843L49.7382 56.0561L49.0904 55.8006ZM60.2792 41.3244L60.6666 41.9031L60.6666 41.903L60.2792 41.3244ZM48.2685 55.7998H48.9649V55.6633L48.9134 55.537L48.2685 55.7998ZM48.2683 55.7993L47.6224 56.0596L47.6234 56.0621L48.2683 55.7993ZM37.0805 41.3235L37.468 40.7449L37.468 40.7449L37.0805 41.3235ZM22.5301 35.3944L22.3428 36.0651L22.3429 36.0651L22.5301 35.3944ZM12.6787 31.5466L13.0826 30.9793L12.1326 30.3028L11.9877 31.4601L12.6787 31.5466ZM19.5474 60.845L19.0601 61.3425L19.0601 61.3425L19.5474 60.845ZM48.7498 69.8806L48.7635 69.1843L48.7498 69.184L48.736 69.1843L48.7498 69.8806ZM77.9521 60.845L77.4649 60.3474L77.4648 60.3475L77.9521 60.845ZM84.8103 31.4559L85.501 31.3673L85.3508 30.1963L84.3986 30.8941L84.8103 31.4559ZM74.8287 35.3949L75.0156 36.0658L75.016 36.0657L74.8287 35.3949ZM74.8279 35.3952L74.641 34.7243L74.6406 34.7244L74.8279 35.3952ZM7.05158 13.0582C4.14038 17.2035 -0.696429 26.1962 -0.696429 40.1366H0.696429C0.696429 26.5376 5.41028 17.8188 8.19143 13.8587L7.05158 13.0582ZM8.77538 12.8943C8.59604 12.7292 8.37995 12.604 8.12926 12.5644C7.87424 12.5242 7.65266 12.5835 7.48635 12.6694C7.32806 12.7511 7.21711 12.8573 7.15066 12.9315C7.11576 12.9704 7.08829 13.006 7.06812 13.0341C7.05794 13.0482 7.04933 13.0609 7.04231 13.0716C7.03879 13.0769 7.03565 13.0819 7.03287 13.0863C7.03149 13.0885 7.03019 13.0905 7.02899 13.0925C7.02839 13.0935 7.02781 13.0944 7.02725 13.0953C7.02697 13.0958 7.0267 13.0962 7.02643 13.0967C7.0263 13.0969 7.0261 13.0972 7.02603 13.0973C7.02584 13.0976 7.02565 13.098 7.62151 13.4585C8.21737 13.819 8.21718 13.8193 8.21699 13.8196C8.21692 13.8197 8.21673 13.82 8.21661 13.8202C8.21636 13.8206 8.21611 13.821 8.21586 13.8214C8.21537 13.8223 8.21489 13.823 8.21441 13.8238C8.21347 13.8253 8.21256 13.8268 8.21168 13.8282C8.20994 13.831 8.20833 13.8335 8.20684 13.8357C8.20389 13.8402 8.20138 13.8439 8.19923 13.8469C8.19514 13.8525 8.19158 13.857 8.18798 13.861C8.18413 13.8653 8.16535 13.8864 8.12534 13.907C8.07732 13.9318 8.00015 13.9542 7.91219 13.9403C7.82856 13.9271 7.8022 13.8916 7.83178 13.9189L8.77538 12.8943ZM8.81075 12.9288C8.80707 12.9252 8.80322 12.9213 8.80016 12.9182C8.79863 12.9167 8.79651 12.9146 8.79426 12.9124C8.7935 12.9116 8.7872 12.9054 8.77955 12.8982L7.82762 13.915C7.82523 13.9128 7.82332 13.911 7.82208 13.9098C7.82079 13.9085 7.81974 13.9075 7.819 13.9068C7.81758 13.9054 7.81656 13.9044 7.81617 13.904C7.81541 13.9033 7.8152 13.9031 7.81599 13.9039C7.81756 13.9054 7.81996 13.9078 7.82418 13.9121L8.81075 12.9288ZM23.041 22.0602C14.1528 18.2953 9.08185 13.2009 8.81076 12.9288L7.82417 13.9121C8.1614 14.2504 13.3795 19.4804 22.4978 23.3427L23.041 22.0602ZM25.3832 23.0384L23.0378 22.0588L22.501 23.3441L24.8464 24.3236L25.3832 23.0384ZM49.314 42.1337C44.304 30.8629 34.1228 26.664 25.3817 23.0377L24.8479 24.3243C33.6489 27.9754 43.286 32.0018 48.0413 42.6994L49.314 42.1337ZM57.6485 30.4001C53.7728 33.2308 50.3557 36.9296 48.0413 42.1335L49.314 42.6995C51.5131 37.7547 54.7558 34.2376 58.47 31.5249L57.6485 30.4001ZM57.6329 30.4117L57.6248 30.4181L58.4937 31.5068L58.5018 31.5003L57.6329 30.4117ZM71.977 23.0377C67.2726 24.9888 62.1505 27.1128 57.6567 30.3935L58.478 31.5185C62.8162 28.3514 67.783 26.285 72.5106 24.3243L71.977 23.0377ZM74.3208 22.0588L71.9754 23.0384L72.5122 24.3236L74.8575 23.3441L74.3208 22.0588ZM87.5363 13.8746C85.6188 15.5736 81.0643 19.2028 74.3176 22.0602L74.8607 23.3427C81.7848 20.4103 86.4655 16.6843 88.46 14.9171L87.5363 13.8746ZM87.8176 13.649C87.6611 13.7332 87.5268 13.8532 87.4256 13.9994L88.5707 14.7924C88.5466 14.8271 88.5148 14.8555 88.4778 14.8754L87.8176 13.649ZM88.5555 12.9221C88.521 12.957 88.2249 13.2573 87.6826 13.7438L88.6128 14.7806C89.1804 14.2714 89.4972 13.9508 89.5469 13.9004L88.5555 12.9221ZM88.5609 12.9166L88.5563 12.9212L89.5461 13.9013L89.5507 13.8966L88.5609 12.9166ZM89.0198 12.633C88.8446 12.6898 88.6857 12.7885 88.557 12.9206L89.5546 13.8926C89.5253 13.9227 89.4893 13.945 89.4498 13.9578L89.0198 12.633ZM89.5629 12.5938C89.3814 12.5627 89.195 12.5761 89.0198 12.633L89.4498 13.9578C89.4103 13.9706 89.3683 13.9736 89.3275 13.9666L89.5629 12.5938ZM89.9527 12.6627C89.7544 12.5811 89.537 12.5573 89.3258 12.5941L89.5646 13.9663C89.5169 13.9746 89.4678 13.9693 89.4228 13.9508L89.9527 12.6627ZM90.4467 13.0558C90.3225 12.8805 90.1511 12.7443 89.9527 12.6627L89.4228 13.9508C89.3779 13.9323 89.3388 13.9013 89.3103 13.8611L90.4467 13.0558ZM98.1964 40.1366C98.1964 26.1962 93.3605 17.2043 90.4484 13.0582L89.3086 13.8587C92.0905 17.8196 96.8036 26.5375 96.8036 40.1366H98.1964ZM79.4835 72.4189C92.4701 66.7571 98.1964 52.0752 98.1964 40.1366H96.8036C96.8036 51.7591 91.2184 65.7834 78.9268 71.1421L79.4835 72.4189ZM49.5579 77.5284C53.8722 77.5732 67.3289 77.7192 79.4835 72.4189L78.9268 71.1422C67.0722 76.3116 53.8876 76.1805 49.5723 76.1356L49.5579 77.5284ZM48.75 77.5222C48.9636 77.5222 49.2326 77.525 49.5579 77.5284L49.5723 76.1356C49.2498 76.1322 48.9725 76.1293 48.75 76.1293V77.5222ZM47.943 77.5283C48.2679 77.525 48.5366 77.5222 48.75 77.5222V76.1293C48.5277 76.1293 48.2507 76.1322 47.9285 76.1356L47.943 77.5283ZM18.0165 72.4189C30.172 77.7188 43.6295 77.5731 47.943 77.5283L47.9285 76.1356C43.6142 76.1803 30.4286 76.3111 18.5732 71.1421L18.0165 72.4189ZM-0.696429 40.1366C-0.696429 52.0761 5.03074 66.7571 18.0165 72.4189L18.5732 71.1421C6.28243 65.7834 0.696429 51.7599 0.696429 40.1366H-0.696429ZM49.7382 56.0561C49.7381 56.0565 49.7531 56.019 49.7838 55.9457C49.8141 55.8736 49.8589 55.7683 49.9183 55.6334C50.0372 55.3635 50.214 54.975 50.4483 54.495C50.9173 53.5347 51.6151 52.2107 52.5373 50.7388C54.3879 47.7851 57.1133 44.2818 60.6666 41.9031L59.8917 40.7456C56.1072 43.2792 53.257 46.9667 51.357 49.9993C49.4528 53.0386 48.472 55.4704 48.4425 55.545L49.7382 56.0561ZM47.5721 55.7998C47.5769 55.8818 47.5948 55.9763 47.5985 55.9897C47.6001 55.9953 47.6026 56.0039 47.6036 56.007C47.6052 56.0122 47.6066 56.0163 47.607 56.0176C47.6081 56.021 47.6091 56.0238 47.6095 56.0251C47.6106 56.0284 47.6117 56.0314 47.6126 56.034C47.6145 56.0394 47.6167 56.0454 47.6192 56.0521C47.6241 56.0655 47.6306 56.0825 47.6387 56.1023C47.6546 56.1415 47.6777 56.1946 47.7082 56.2542C47.7607 56.3572 47.8686 56.5475 48.0474 56.6986C48.2539 56.873 48.626 57.0382 49.0466 56.8456C49.3715 56.6968 49.5743 56.3907 49.7136 56.1114L48.4672 55.4897C48.4222 55.5798 48.3917 55.6214 48.3808 55.6343C48.3691 55.6484 48.3947 55.6122 48.4665 55.5793C48.5497 55.5412 48.6569 55.5254 48.766 55.5494C48.8635 55.5709 48.9234 55.6153 48.9462 55.6345C48.9805 55.6635 48.9741 55.6706 48.9487 55.6208C48.9401 55.604 48.9333 55.5884 48.929 55.5778C48.9269 55.5727 48.9258 55.5696 48.9256 55.5691C48.9255 55.5689 48.9257 55.5695 48.9263 55.5712C48.9266 55.572 48.9272 55.5736 48.9279 55.5758C48.9282 55.5767 48.9291 55.5792 48.9301 55.5823C48.9305 55.5835 48.9318 55.5875 48.9334 55.5926C48.9344 55.5957 48.9369 55.6043 48.9385 55.6098C48.9422 55.6232 48.9601 55.7177 48.9649 55.7998H47.5721ZM47.6234 56.0621L47.6235 56.0625L48.9134 55.537L48.9133 55.5366L47.6234 56.0621ZM36.6931 41.9022C40.2442 44.28 42.9668 47.7772 44.8163 50.728C46.6611 53.6713 47.6072 56.0221 47.6224 56.0596L48.9143 55.5391C48.8815 55.4578 47.9003 53.0256 45.9965 49.9883C44.0974 46.9584 41.25 43.2772 37.468 40.7449L36.6931 41.9022ZM22.3429 36.0651C26.9328 37.3466 32.0176 38.7718 36.6931 41.9022L37.468 40.7449C32.5814 37.473 27.2863 35.9992 22.7174 34.7236L22.3429 36.0651ZM12.2747 32.1139C14.9228 33.9995 18.4712 34.9839 22.3428 36.0651L22.7175 34.7236C18.7733 33.6221 15.4911 32.6943 13.0826 30.9793L12.2747 32.1139ZM20.0347 60.3475C15.7629 56.163 13.9579 49.9603 13.2996 44.2481C12.6433 38.5535 13.1402 33.4654 13.3697 31.6332L11.9877 31.4601C11.7513 33.3468 11.2418 38.5578 11.9159 44.4076C12.588 50.2398 14.4502 56.8269 19.0601 61.3425L20.0347 60.3475ZM48.736 69.1843C45.8722 69.2408 40.8 69.1072 35.3802 67.9121C29.9529 66.7155 24.2425 64.4688 20.0347 60.3475L19.0601 61.3425C23.5282 65.7188 29.5232 68.047 35.0803 69.2723C40.6448 70.4992 45.8357 70.6346 48.7635 70.5769L48.736 69.1843ZM77.4648 60.3475C73.257 64.4688 67.5466 66.7155 62.1193 67.9121C56.6995 69.1072 51.6273 69.2408 48.7635 69.1843L48.736 70.5769C51.6638 70.6346 56.8548 70.4992 62.4193 69.2723C67.9763 68.047 73.9713 65.7188 78.4394 61.3425L77.4648 60.3475ZM84.1195 31.5445C84.3416 33.2762 84.8607 38.3684 84.2185 44.1016C83.5742 49.853 81.7748 56.1269 77.4649 60.3474L78.4394 61.3426C83.0899 56.7884 84.9451 50.1267 85.6027 44.2567C86.2622 38.3685 85.7301 33.1535 85.501 31.3673L84.1195 31.5445ZM75.016 36.0657C78.9534 34.9665 82.558 33.9699 85.2219 32.0176L84.3986 30.8941C81.9818 32.6653 78.6557 33.6035 74.6415 34.7242L75.016 36.0657ZM75.0148 36.066L75.0156 36.0658L74.6418 34.7241L74.641 34.7243L75.0148 36.066ZM60.6666 41.903C65.3421 38.7726 70.4262 37.3474 75.0152 36.0659L74.6406 34.7244C70.0725 36 64.7783 37.4738 59.8917 40.7457L60.6666 41.903Z" fill="#283037" mask="url(#path-5-inside-1_363_1731)"/>
<path fill-rule="evenodd" clip-rule="evenodd" d="M8.9688 22.9922C10.1078 27.1049 11.5621 30.1602 11.8833 30.8108C11.5971 32.6581 9.29642 49.2976 17.1195 59.4367C15.3489 58.7326 12.002 56.9647 9.25903 52.9817C9.19806 52.8763 1.73101 39.7386 8.9688 22.9922ZM85.5904 30.669C85.5855 30.648 85.5741 30.6301 85.5684 30.6099C85.9269 29.862 86.8293 27.8867 87.7122 25.2065C92.2201 38.6011 88.039 50.201 87.9951 50.3193L87.9805 50.3655C86.3196 55.4528 82.7328 57.8568 80.8419 58.8055C88.3707 48.2508 85.718 31.442 85.5904 30.669Z" fill="#65696D"/>
<path fill-rule="evenodd" clip-rule="evenodd" d="M96.6171 40.1362C96.6171 51.6308 91.0451 65.4508 78.8507 70.9732C67.8489 75.9577 51.1214 76.0671 48.75 76.0671C46.3786 76.0671 31.0811 76.3093 18.6485 70.9732C6.94755 65.9523 1.44136 52.9807 0.926758 41.8418C3.57538 49.7268 7.52556 53.1038 8.25804 53.6783C11.3757 62.9059 19.3639 69.3333 31.373 72.2671C36.3426 73.4809 43.3422 73.8527 47.2907 73.9492C46.9412 73.9654 47.5403 73.9856 48.75 73.9743C49.9605 73.9856 50.5596 73.9646 50.2101 73.9492C54.157 73.8527 61.1566 73.4809 66.1262 72.2671C78.1938 69.3187 86.2023 62.8451 89.2875 53.5454C89.3395 53.3931 94.4115 37.8952 88.5891 22.5982C88.5729 22.5569 88.5477 22.5245 88.5225 22.4913C89.1338 20.1821 89.6305 17.5716 89.7736 14.8809C92.5824 19.1896 96.6171 27.5681 96.6171 40.1362Z" fill="#65696D"/>
<path fill-rule="evenodd" clip-rule="evenodd" d="M47.12 101.679L52.3352 97.4083H58.0795V101.679H47.12ZM55.1634 87.2344L49.9483 91.505H44.2031V87.2344H55.1634Z" fill="#65696D"/>
<path fill-rule="evenodd" clip-rule="evenodd" d="M89.547 101.678V91.2401C89.547 87.1128 85.3313 87.2296 85.2179 87.2327C85.2164 87.2328 85.2156 87.2328 85.2156 87.2328H75.5381V91.1081H83.2279C85.4367 91.1081 85.1286 92.5608 85.1286 92.5608H78.985C78.9525 92.5608 78.9169 92.5606 78.8785 92.5604C78.0197 92.5562 75.7588 92.5449 74.639 94.3473C74.6487 94.1099 74.6552 93.8701 74.6552 93.6181C74.6552 87.0553 69.6612 87.2328 69.6612 87.2328H56.6676L43.4546 97.6708V91.2393C43.4546 87.0553 39.1231 87.2328 39.1231 87.2328H29.4457V91.1081H37.1346C39.3443 91.1081 39.0353 92.5608 39.0353 92.5608H32.8926C32.8606 92.5608 32.8257 92.5606 32.7881 92.5604C31.9466 92.5564 29.7451 92.5458 28.6067 94.259V92.6053C28.6067 86.8795 23.3915 87.2328 23.3915 87.2328H7.12988V101.677H12.0353V91.5034H15.5261V101.677H20.2112V91.5034H21.7721C24.0695 91.5034 23.7793 93.3977 23.7793 93.3977V101.677H28.6067V99.758C29.8131 101.652 32.1422 101.677 32.1422 101.677H45.6203L58.8781 91.0197V101.635H69.3067C71.3026 101.635 73.1431 100.624 74.0544 97.9244C74.5739 101.638 78.2339 101.678 78.2339 101.678H89.547ZM85.0169 95.7992H79.9562C79.6684 95.7992 78.8083 95.8657 78.8083 96.7456C78.8083 97.7802 79.8692 97.6935 79.8692 97.6935H85.0169V95.7992ZM38.9586 95.7992H33.8987C33.6109 95.7992 32.75 95.8657 32.75 96.7456C32.75 97.7802 33.8101 97.6935 33.8101 97.6935H38.9586V95.7992ZM63.584 97.4075H67.9805C69.1511 97.4075 70.1462 96.8566 70.1462 94.1699C70.1462 91.4605 68.0252 91.2847 68.0252 91.2847H63.584V97.4075Z" fill="#65696D"/>
<path fill-rule="evenodd" clip-rule="evenodd" d="M95.0718 89.2814C95.0718 90.5465 94.0397 91.5729 92.7709 91.5729C91.5036 91.5729 90.4717 90.5464 90.4717 89.2814C90.4717 88.0167 91.5033 86.9883 92.7709 86.9883C94.04 86.9883 95.0718 88.0165 95.0718 89.2814ZM94.7919 89.2814C94.7919 90.3922 93.8855 91.294 92.7709 91.294C91.658 91.294 90.7515 90.3922 90.7515 89.2814C90.7515 88.1706 91.658 87.2672 92.7709 87.2672C93.8855 87.2672 94.7919 88.1706 94.7919 89.2814Z" fill="#65696D"/>
<path fill-rule="evenodd" clip-rule="evenodd" d="M92.2114 89.3853H92.9724C93.3455 89.3853 93.3853 89.6081 93.3853 89.7985C93.3853 89.8852 93.3951 90.2368 93.439 90.3778H93.8235V90.3276C93.7284 90.2741 93.7105 90.2247 93.7073 90.0967L93.6886 89.677C93.6756 89.3545 93.5422 89.297 93.4105 89.2435C93.5585 89.1584 93.7325 89.0312 93.7325 88.6893C93.7325 88.2016 93.3528 88.0703 92.9715 88.0703H91.8984V90.3778H92.2114V89.3853ZM92.2109 88.3342H92.9938C93.1491 88.3342 93.4117 88.3625 93.4117 88.7223C93.4117 89.0642 93.1686 89.1225 92.9385 89.1225H92.2109V88.3342Z" fill="#65696D"/>
</svg>
