<svg width="160" height="22" viewBox="0 0 160 22" fill="none" xmlns="http://www.w3.org/2000/svg">
<path fill-rule="evenodd" clip-rule="evenodd" d="M0 0.943579V3.86321H4.78885L14.1606 21.4391H25.693L35.0647 3.83416L39.8527 3.80424L39.8629 0.943579H25.5365V3.8145H29.3519L22.734 16.3093L15.5759 3.85809L20.7973 3.83416L20.7879 0.943579H0ZM92.424 0.943579V3.86321H97.2112L106.585 21.4391H118.116L127.488 3.83416L132.278 3.80424L132.285 0.943579H117.961V3.8145H121.775L115.158 16.3093L108 3.85809L113.22 3.83416L113.212 0.943579H92.424ZM68.861 0.943579V3.86321H73.6498L73.6567 18.2127H68.6097V21.4126L73.6601 21.4391H97.5693V11.899H94.4539C94.2839 16.9503 89.9018 18.2195 88.0574 18.2195C86.3651 18.2195 83.0882 18.2127 83.0882 18.2127V3.85809L87.8044 3.83416L87.7976 0.943579H68.861ZM52.7406 0.355553C44.6013 0.355553 38.004 5.20166 38.004 11.1777C38.004 17.1537 44.6013 21.9998 52.7406 21.9998C60.8798 21.9998 67.4781 17.1537 67.4781 11.1777C67.4781 5.20166 60.8798 0.355553 52.7406 0.355553ZM52.5295 18.8144C49.6603 18.8144 47.3355 15.3777 47.3355 11.1358C47.3355 6.89311 49.6603 3.45382 52.5295 3.45382C55.3978 3.45382 57.7243 6.89311 57.7243 11.1358C57.7243 15.3777 55.3978 18.8144 52.5295 18.8144ZM145.166 0C137.027 0 130.43 4.92389 130.43 10.9991C130.43 17.0717 137.027 21.9964 145.166 21.9964C153.304 21.9964 159.903 17.0717 159.903 10.9991C159.903 4.92474 153.304 0 145.166 0ZM144.954 18.7597C142.087 18.7597 139.761 15.2657 139.761 10.9546C139.761 6.64353 142.087 3.14869 144.954 3.14869C147.824 3.14869 150.147 6.64268 150.147 10.9546C150.147 15.2657 147.824 18.7597 144.954 18.7597Z" fill="#53575C"/>
</svg>
