<svg width="114" height="114" viewBox="0 0 114 114" fill="none" xmlns="http://www.w3.org/2000/svg">
<path d="M56.9268 113.941C88.3456 113.941 113.804 88.4506 113.804 56.9958C113.804 25.5392 88.3456 0 56.9268 0C25.5086 0 0 25.5392 0 56.9955C0 88.4504 25.5086 113.941 56.9268 113.941Z" fill="#53575C"/>
<path d="M56.926 112.512C87.5564 112.512 112.376 87.6631 112.376 56.9957C112.376 26.3282 87.5566 1.42969 56.926 1.42969C26.2956 1.42969 1.47656 26.3283 1.47656 56.9957C1.47656 87.6631 26.2958 112.512 56.926 112.512Z" fill="#1D2227"/>
<path d="M56.9261 110.834C86.6206 110.834 110.751 86.7254 110.751 56.9954C110.751 27.2153 86.6207 3.10547 56.9261 3.10547C27.2314 3.10547 3.10156 27.2152 3.10156 56.9954C3.10168 86.7254 27.2315 110.834 56.9261 110.834Z" fill="#53575C"/>
<path d="M56.926 90.6201C75.4913 90.6201 90.511 75.5344 90.511 56.9954C90.511 38.4074 75.4914 23.3202 56.926 23.3202C38.3609 23.3202 23.292 38.4074 23.292 56.9954C23.292 75.5343 38.3609 90.6201 56.926 90.6201ZM63.1311 8.52882C64.5586 10.5508 64.7563 13.3612 64.3623 15.7763C63.9197 17.9957 62.1466 19.3761 60.1272 20.0172C56.9754 20.4115 53.1347 21.2002 50.3277 18.193C48.7519 15.9741 48.7519 13.1636 49.3422 10.3533C50.1305 7.34596 53.5775 6.55715 56.3845 6.35938C58.8472 6.3596 61.358 6.75424 63.1311 8.52882Z" fill="#1D2227"/>
<path d="M59.5369 10.9942C59.7343 12.8188 60.3256 15.6292 58.9466 17.2069C57.7154 18.0946 55.9921 18.4392 54.7607 17.6012C53.1357 16.0235 53.3818 13.6075 53.7761 11.5861C53.9723 10.4026 54.7607 9.17004 55.9921 8.97307C57.3214 8.77575 59.1438 9.36736 59.5369 10.9942Z" fill="#53575C"/>
<path d="M87.0644 17.7492C87.9015 20.1654 87.0644 22.3843 85.8818 24.3563C84.8973 26.1806 82.1396 27.6592 80.6619 27.4134C77.4122 26.8219 74.6533 24.8003 71.4531 22.8284L77.8062 11.3398C81.0564 13.1145 85.0451 14.15 87.0644 17.7492Z" fill="#1D2227"/>
<path d="M83.272 18.3416C83.4691 20.1657 82.6809 22.1873 81.0554 23.3708C79.4795 24.6032 76.2295 22.1872 76.2295 22.1872L79.824 15.5312C81.2525 16.3692 82.8779 16.7639 83.272 18.3416Z" fill="#53575C"/>
<path d="M18.0737 29.1873C16.8914 30.5683 15.4633 31.8009 15.2666 33.5755C15.2666 34.1674 15.8078 34.9067 16.4973 34.8081C18.4677 33.1809 20.4864 29.7794 23.2933 30.5683C24.7212 30.5683 26.1003 31.998 26.4941 33.1807C27.3316 36.78 24.7212 39.8373 22.3084 42.2036L20.0928 40.8231C21.7176 39.3931 24.0814 37.2244 23.0959 35.0053C19.9942 33.4768 19.5014 39.1962 16.3005 39.1962C14.8723 39.1962 12.9518 38.21 12.4595 36.5833C12.4595 36.5833 12.2624 35.5969 12.2624 34.9559C12.2133 33.8219 12.7056 32.5893 13.2474 31.5539C13.8382 30.5682 14.4787 29.7792 14.4787 29.7792L16.3006 27.7578L18.0737 29.1873ZM12.2625 32.5893C11.8192 32.6388 11.0312 32.7375 10.5391 32.7866C10.6375 32.4415 11.0807 31.3572 11.0807 31.3572L12.6567 31.1107L11.9177 29.8283C12.2624 29.3354 12.5085 28.7931 12.8536 28.3002L13.7396 29.927L12.2625 32.5893ZM102.282 35.1537L92.4332 46.148L90.5622 42.1545L92.9263 39.8862L90.266 35.3016L87.2628 35.9912L84.9965 32.7866L99.4259 30.3705L102.282 35.1537Z" fill="#1D2227"/>
<path d="M94.4997 37.8655L92.7266 34.661L98.7834 33.4775L94.4997 37.8655Z" fill="#53575C"/>
<path d="M36.4899 101.072L33.4862 99.1493L34.1264 97.0301L31.4175 95.0081L29.4478 96.3399C28.66 95.6496 27.9211 94.9594 27.1826 94.2692L35.0124 88.4502L39.0507 90.8666L36.4899 101.072ZM84.1585 92.8887C84.8975 94.5647 84.3556 96.3398 83.1245 97.3255C81.5486 98.9526 79.7268 99.9383 77.5113 99.742C75.5413 99.5435 73.9159 97.5219 73.3254 95.9449C72.9312 94.3176 72.9312 92.5912 74.1128 91.5083C75.7372 90.0774 77.3142 89.1403 79.5297 88.8953C81.5486 88.8953 83.3712 91.1138 84.1585 92.8887Z" fill="#1D2227"/>
<path d="M34.9647 95.1074L33.0938 93.7756L35.7531 91.5571L34.9647 95.1074ZM81.157 94.3684C81.7969 95.7978 81.1073 97.1293 79.5805 97.3745C77.513 97.7693 76.8228 95.5021 76.1335 94.3179C75.543 93.1339 76.3307 91.5085 77.7103 91.3101C79.7289 90.9156 80.3687 93.1846 81.157 94.3684Z" fill="#53575C"/>
<path d="M47.0277 101.123C46.9787 102.157 48.8992 102.848 49.5885 101.763C49.8347 101.024 50.4751 97.3743 50.8691 95.1562C51.9028 95.4029 53.085 95.6499 53.8725 95.8481C53.6267 97.5221 53.3806 102.206 51.3614 103.983C49.9822 105.017 47.7666 104.426 46.3386 103.983C43.1373 102.847 43.6792 100.186 43.6792 100.186L45.1565 93.9736L48.2097 94.6134L47.0277 101.123ZM65.3962 96.8824L66.8244 104.032L63.6726 104.673L62.2445 97.4735L59.7821 98.0645L59.2898 95.895L67.4644 94.0711L68.0556 96.2409L65.3962 96.8824Z" fill="#1D2227"/>
<path d="M62.7865 28.6945C71.355 37.9146 76.0828 50.3883 72.3892 63.6015C72.3892 63.6015 71.3057 66.7569 71.0104 68.0391C70.7638 69.3209 70.8132 70.3065 70.8132 70.3065C71.2066 71.1456 72.4872 71.3914 73.3251 71.1942C74.1612 70.3562 72.6843 69.2717 73.5214 68.2364C77.6586 67.8417 81.1053 70.751 84.2078 73.4625C81.4998 76.767 77.4122 79.9208 73.2262 78.8863C72.6359 78.0481 74.5555 76.9635 73.2758 76.1254L42.793 76.075C41.9065 76.1254 40.2817 78.7387 39.3458 78.9856C38.0164 79.2809 35.8003 79.2306 35.2094 78.8864C33.9286 77.6032 33.6334 75.5345 32.7966 74.0541C31.9591 72.2303 28.1671 70.3564 28.8074 68.976C29.103 68.483 36.3915 67.3983 41.0697 69.0741C42.8421 69.8635 44.6646 71.4903 46.5357 70.9969C46.6337 70.9477 46.7819 70.8987 46.8804 70.6523C47.3727 64.9327 43.2363 58.6219 37.1789 55.7132C35.406 54.8747 34.1262 54.6774 32.4023 54.8255C30.5802 54.9237 28.6597 55.121 27.429 54.2341C26.3945 53.4452 26.5916 50.7825 27.3794 48.1695C27.7731 46.9864 28.315 45.7041 28.8568 44.6694C31.3192 39.2454 39.0999 45.0139 40.1336 45.5565C41.4637 46.2467 42.8421 47.7257 43.2363 45.803C43.1377 44.5704 40.7249 43.3873 39.149 42.5489C34.5199 40.084 31.5653 40.6756 33.0425 37.865C33.4858 37.0272 34.9627 35.1043 36.9822 33.3784C39.0504 31.5542 41.6599 29.8285 43.5809 29.5822C47.0279 29.2372 50.7212 34.1181 50.7212 34.1181L55.1044 38.9992C55.9417 39.4921 56.4336 38.9496 56.532 38.605C56.7783 37.8652 56.0893 37.0759 56.0893 37.0759C56.0893 37.0759 54.0703 34.611 52.9866 33.5266C51.953 32.4418 48.8996 29.5332 48.8996 29.5332C47.7175 27.4624 49.9336 26.8213 51.1643 26.6236C55.1533 26.229 59.5355 25.1447 62.7865 28.6945Z" fill="#53575C"/>
<path d="M62.8846 68.6804C65.4451 68.6804 67.5142 66.6097 67.5142 64.0458C67.5142 61.482 65.4451 59.3622 62.8846 59.3622C60.3243 59.3622 58.2561 61.4819 58.2561 64.0458C58.256 66.6099 60.3243 68.6804 62.8846 68.6804ZM36.3419 18.045C38.7058 19.5245 41.66 20.5103 44.0243 22.1871L39.986 24.1095L32.8952 20.412L32.9937 12.8687L36.6377 10.9453C37.0309 12.9674 36.3914 15.8265 36.3419 18.045ZM33.486 28.3995L26.1484 17.4042L29.2016 15.2349L36.5882 26.082L33.486 28.3995Z" fill="#1D2227"/>
</svg>
