<svg width="153" height="51" viewBox="0 0 153 51" fill="none" xmlns="http://www.w3.org/2000/svg">
<path fill-rule="evenodd" clip-rule="evenodd" d="M0.222656 1.11483C0.222656 1.11483 0.633459 -0.275645 2.06966 0.157623L75.9651 22.4565L150.346 0.0637448C150.346 0.0637448 151.737 -0.379147 152.209 1.06989C149.739 1.90354 75.9426 27.2899 75.9426 27.2899L0.222656 1.11483Z" fill="#53575C"/>
<path fill-rule="evenodd" clip-rule="evenodd" d="M94.4112 16.8944C90.6706 9.24643 82.6985 4.04883 73.6119 4.04883C64.9931 4.04883 57.5209 8.71608 53.5781 15.7302L55.024 17.7962C58.4355 10.9875 65.4777 6.31385 73.6119 6.31385C82.3511 6.31385 89.9293 11.623 92.9991 19.2645L94.4112 16.8944Z" fill="#53575C"/>
<path fill-rule="evenodd" clip-rule="evenodd" d="M91.9071 28.189C91.3254 37.7883 83.3556 45.393 73.6103 45.393C63.4863 45.393 55.279 37.1858 55.279 27.0609C55.279 26.7448 55.2871 26.4303 55.3031 26.1182L53.1031 23.4512C52.8916 24.653 52.7855 25.8711 52.7861 27.0914C52.7861 38.5923 62.1094 47.9164 73.6103 47.9164C85.1104 47.9164 94.4345 38.5923 94.4345 27.0914C94.4345 26.3725 94.3967 25.6624 94.3261 24.9628L91.9071 28.189Z" fill="#53575C"/>
<path fill-rule="evenodd" clip-rule="evenodd" d="M59.5952 32.9127C59.5952 32.9127 59.0777 31.4083 60.7498 30.7087C62.4219 30.0098 63.2427 29.7057 63.2427 29.7057L75.9406 27.2891L59.5952 32.9127Z" fill="#53575C"/>
<path fill-rule="evenodd" clip-rule="evenodd" d="M94.3993 25.0936L94.3447 25.1723C94.4009 25.7941 94.4338 26.4239 94.4338 27.061C94.4338 38.545 85.1234 47.8555 73.6394 47.8555C62.1553 47.8555 52.8457 38.545 52.8457 27.061C52.8457 25.9072 52.9444 24.7751 53.1249 23.6719L50.7291 24.4004C50.6222 25.2988 50.5675 26.2027 50.5654 27.1075C50.5654 39.8512 60.8957 50.1815 73.6394 50.1815C86.383 50.1815 96.7133 39.8512 96.7133 27.1075C96.7133 26.7922 96.702 26.4809 96.69 26.1688L94.3993 25.0936Z" fill="black"/>
<path fill-rule="evenodd" clip-rule="evenodd" d="M152.262 1.05664L75.9417 27.2894L0.183975 1.10879C0.183975 1.10879 0.0034464 1.54046 0.000237012 1.81727C-0.00377473 2.09408 0.032331 2.76002 0.971881 3.15638C1.91143 3.55355 50.7496 24.4154 50.7496 24.4154L53.1325 23.6893L55.3422 26.3234L63.275 29.7117L75.8783 27.3119L59.5722 32.9163C59.5722 32.9163 59.7728 33.8438 61.1215 33.9401C62.4703 34.0372 76.119 35.1484 76.119 35.1484L91.8811 28.428L94.3492 25.1447L96.6703 26.3306C96.6703 26.3306 150.411 3.58965 151.606 3.10423C152.803 2.61881 152.262 1.05664 152.262 1.05664Z" fill="black"/>
<path fill-rule="evenodd" clip-rule="evenodd" d="M58.1255 17.0463C61.4039 11.9907 67.0973 8.64654 73.5707 8.64654C80.5479 8.64654 86.6192 12.5323 89.7372 18.2578L92.9955 19.2704C89.8912 11.6441 82.4037 6.26758 73.6621 6.26758C65.4878 6.26758 58.4111 10.9677 54.9883 17.8125L58.1255 17.0463Z" fill="black"/>
</svg>
