<svg width="128" height="88" viewBox="0 0 128 88" fill="none" xmlns="http://www.w3.org/2000/svg">
<path fill-rule="evenodd" clip-rule="evenodd" d="M6.13584 72.7891V77.7984L10.0485 72.7891H14.1012L9.48557 79.291L15.3403 86.7211H10.7522L6.13584 81.0915V86.7211H1.99807V72.7891H6.13584ZM16.3252 72.7891H20.2095V86.7211H16.3252V72.7891ZM26.2044 72.7891H30.1737L34.9027 86.7211H31.1869L30.1737 84.0192H25.3605L24.3473 86.7211H21.1384L26.2044 72.7891ZM41.5172 86.7211L43.5719 72.7891H47.4562L50.4674 80.1633L53.1983 72.7891H57.4196L59.3342 86.7211H55.7593L54.5486 79.291L51.5939 86.7211H49.1165L45.9643 79.291L44.7543 86.7211H41.5172ZM74.14 75.0682V72.7891H86.1298V75.0682H82.2455V86.7211H78.2211V75.0682H74.14ZM101.753 72.7891H107.916C110.083 72.7891 113.095 73.633 113.095 76.3356C113.095 78.0243 111.885 79.3469 110.449 80.0783L113.883 85.0884C114.194 85.5953 114.615 85.9614 115.094 86.3274V86.7211H111.66C111.012 86.7211 110.252 86.0456 109.887 85.5387L106.058 80.0776V86.7204H101.753V72.7891ZM124.072 75.3776C123.088 74.928 122.102 74.5336 121.003 74.5336C120.075 74.5336 118.64 74.9556 118.64 76.1097C118.64 77.0946 119.793 77.6582 120.582 78.0243L122.102 78.7564C123.875 79.6004 125.31 80.8387 125.31 82.9218C125.31 85.7929 122.946 87.3966 120.244 87.3966C118.472 87.3966 116.951 86.8344 115.403 85.989L114.84 83.9067C114.976 83.9694 115.113 84.0332 115.251 84.0972C116.532 84.6941 117.864 85.3142 119.287 85.3142C120.271 85.3142 121.539 84.723 121.539 83.5972C121.539 82.5833 120.583 82.1054 119.794 81.711L118.33 81.0356C116.557 80.1909 114.56 79.1493 114.56 76.8985C114.56 73.9148 117.655 72.4789 120.245 72.4789C121.624 72.4789 122.863 72.8167 124.073 73.4079V75.3776H124.072ZM63.8373 0C74.5895 0 85.3708 1.49256 95.7563 4.307C108.057 7.65673 127.647 16.9171 127.647 32.0883C127.647 44.1355 115.375 52.0726 105.665 56.3789C98.5148 59.5318 90.8305 61.3606 83.1178 62.628C76.7568 63.6695 70.2825 64.1758 63.8373 64.1758C53.0574 64.1758 42.3052 62.7123 31.919 59.8971C19.6183 56.5481 0 47.2594 0 32.0883C0 20.0693 12.2724 12.1315 21.9831 7.82523C29.1322 4.67306 36.8448 2.81517 44.5292 1.57609C50.9122 0.530822 57.3693 0.00374105 63.8373 0ZM67.2707 72.0569C71.4934 72.0569 75.3211 75.3775 75.3211 79.7128C75.3211 84.0191 71.4934 87.3688 67.2707 87.3688C63.0494 87.3688 59.2494 84.0191 59.2494 79.7128C59.2494 75.3775 63.0487 72.0569 67.2707 72.0569ZM93.1381 72.0569C97.331 72.0569 101.16 75.3775 101.16 79.7128C101.16 84.0191 97.3318 87.3688 93.1381 87.3688C88.9168 87.3688 85.0877 84.0191 85.0877 79.7128C85.0877 75.3775 88.9168 72.0569 93.1381 72.0569ZM29.3573 81.7109H26.2894L27.8655 77.6858L29.3573 81.7109ZM106.057 79.6562V75.0115H106.255C107.607 75.0115 109.098 75.4059 109.098 77.0386C109.098 78.728 107.493 79.4594 106.057 79.6562ZM34.2548 10.4987C43.9372 8.38808 53.8171 7.17733 63.7247 7.17733C69.6644 7.17733 75.6027 7.62764 81.4851 8.41714C88.4939 9.37368 95.5587 10.6963 102.202 13.1454C109.858 15.9598 122.636 22.209 122.636 31.9756C122.636 44.219 102.68 51.3687 93.167 53.4794C83.5122 55.5908 73.6322 56.7725 63.7247 56.7725C57.7857 56.7725 51.8467 56.3505 45.9636 55.5624C38.9271 54.5768 31.8899 53.2826 25.2195 50.8335C17.5635 48.019 4.81322 41.7423 4.81322 31.9749C4.81322 19.7591 24.7692 12.6101 34.2548 10.4987ZM63.2461 79.7688C63.2461 77.4889 64.6253 74.5336 67.2713 74.5336C69.8889 74.5336 71.2688 77.4606 71.2688 79.7688C71.2688 82.0487 69.8889 84.9481 67.2713 84.9481C64.6536 84.9481 63.2461 82.0211 63.2461 79.7688ZM89.1128 79.7688C89.1128 77.4606 90.4644 74.5336 93.1104 74.5336C95.7563 74.5336 97.1348 77.4606 97.1348 79.7688C97.1348 82.0487 95.728 84.9481 93.1104 84.9481C90.4927 84.9481 89.1128 82.0487 89.1128 79.7688Z" fill="#53575C"/>
<path fill-rule="evenodd" clip-rule="evenodd" d="M23.2773 16.7188H33.6359V27.978L41.9391 16.7188H51.453L41.9391 30.8207L53.6486 47.3152H43.9655L33.6359 33.8044V47.3152H25.051V18.8585L23.2773 18.0145V16.7188ZM58.7146 18.0145V16.7188H68.9323V47.3152H60.3756V18.8585L58.7146 18.0145ZM86.7776 18.8585L85.1449 18.0145V16.7188H97.4739L107.776 47.3152H99.4161L92.4907 27.1899L85.5661 47.3152H77.292L86.7776 18.8585Z" fill="#53575C"/>
</svg>
