<svg width="159" height="76" viewBox="0 0 159 76" fill="none" xmlns="http://www.w3.org/2000/svg">
<path d="M28.3596 57.9533V72.7765C28.3596 72.7765 23.4749 58.8837 23.3629 58.5199C23.2444 58.1491 22.9776 57.9527 22.4756 57.9527H17.8171V75.9995H20.9619V61.372C20.9619 61.372 25.7724 75.0766 25.8951 75.4329C26.0013 75.794 26.3108 76 26.7163 76H31.5028V57.9527L28.3596 57.9533ZM44.8919 57.9533V75.9995H48.5894L48.583 68.3203H55.244V65.0214L48.5894 65.0305V61.2747H55.3443V57.9527L44.8919 57.9533ZM130.377 57.9533V61.4229H134.505V75.9979H138.264V61.4229H142.385V57.9527L130.377 57.9533ZM68.3567 75.9984H72.337V57.9597H68.3567V75.9984ZM113.692 75.9984H117.674V57.9597H113.692V75.9984ZM155.037 75.9984H159V57.9597H155.037V75.9984ZM0 75.9984H3.9814V57.9597H0V75.9984ZM99.94 57.9533H96.7963V72.7765C96.7963 72.7765 91.9153 58.8837 91.7985 58.5199C91.6784 58.1491 91.4117 57.9527 90.9224 57.9527H86.2538V75.9995H89.3921V61.372C89.3921 61.372 94.2155 75.0766 94.3275 75.4329C94.4412 75.794 94.7523 76 95.1466 76H99.94V57.9533ZM95.7954 28.333C94.2785 26.3625 79.5016 6.3908 79.5016 6.3908C79.5016 6.3908 64.6682 26.5316 63.2505 28.3774C57.772 27.9087 48.2522 24.2444 48.2522 17.8852C48.2522 9.79888 62.074 2.30968 79.5016 2.30968C97.8037 2.30968 110.754 9.79888 110.754 17.8852C110.754 24.2444 101.281 27.8649 95.7954 28.333ZM79.5016 0C56.9924 0 41.3256 8.81605 41.3256 20.2344C41.3256 25.5611 44.751 31.5875 52.0207 35.2118C58.7686 38.5722 68.3006 39.7434 69.6772 39.913L79.5016 10.8834L89.4268 39.9135C90.7991 39.7439 100.244 38.5722 106.993 35.2118C114.259 31.5881 117.686 25.5611 117.686 20.2344C117.686 8.81605 102.014 0 79.5016 0Z" fill="#53575C"/>
</svg>
