<svg width="160" height="54" viewBox="0 0 160 54" fill="none" xmlns="http://www.w3.org/2000/svg">
<path fill-rule="evenodd" clip-rule="evenodd" d="M79.9829 31.99C80.088 31.99 80.2772 31.948 80.4243 31.8849C89.4202 27.387 93.6239 23.2884 98.8995 14.7759C100.875 11.5181 101.989 9.85763 106.781 9.14301C114.285 8.07107 148.188 5.69599 154.872 4.77118C157.751 4.35081 158.508 3.93044 159.853 2.50119C159.937 2.41712 160 2.33304 160 2.26999V2.24897C160 2.16489 159.895 2.10184 159.664 2.14387C158.823 2.20693 124.983 3.67822 104.701 4.41387C99.7192 4.66609 98.2269 4.56099 94.0652 3.19479C88.1801 1.36619 82.8204 0.105092 80.3192 0H79.6676C77.1664 0.105092 71.8067 1.36619 65.9216 3.17377C61.7599 4.53997 60.2676 4.66609 55.3073 4.39285C35.0245 3.6572 1.18488 2.20693 0.344145 2.12285C-0.0762228 2.08082 -0.0762231 2.26999 0.154979 2.50119C1.47914 3.90942 2.27784 4.35081 5.13634 4.77118C11.8202 5.69599 45.7229 8.07107 53.2265 9.14301C58.0187 9.83662 59.1326 11.5181 61.1084 14.7759C66.384 23.3094 70.5877 27.408 79.5836 31.8849C79.6887 31.948 79.8778 31.99 79.9829 31.99ZM69.1374 28.2067C63.2523 27.2399 58.8384 26.315 50.4731 24.2973C50.1788 24.2342 50.1788 24.1502 50.5151 24.1291C54.1933 23.9189 57.304 23.6667 59.511 23.4986C60.0364 23.4565 60.0575 23.2884 59.8473 22.9731C59.2588 22.2375 58.6282 22.0903 57.0518 22.0903C55.6016 22.0903 51.9654 22.1114 48.2871 22.1534C40.9938 22.1954 33.8265 20.3458 24.8726 17.3822C24.7675 17.3402 24.8096 17.2771 24.9147 17.2771C37.4416 17.5714 52.638 17.7185 55.0971 17.7185C55.4754 17.7185 55.4334 17.4663 55.1602 17.172C54.6137 16.4994 53.9831 16.1632 51.9023 16.016C49.0018 15.8058 24.2841 14.6078 20.2276 14.4607C15.4354 14.2925 12.4928 13.5359 8.56234 10.5302C7.40633 9.68948 5.89301 8.38634 4.50579 7.02015C4.29561 6.80996 4.29561 6.64181 4.69496 6.68385C12.1985 7.35644 50.452 10.9086 52.2176 11.1398C55.4754 11.5601 56.9888 12.4429 58.2078 14.3556C62.2644 20.6611 64.051 23.7298 69.3266 27.9124C69.5368 28.1016 69.5368 28.2908 69.1374 28.2067ZM79.9829 29.657C79.9199 29.657 79.7937 29.657 79.6046 29.5519C72.2902 25.18 64.8076 18.4331 63.2943 10.5933C62.7688 7.62968 63.8828 7.0832 65.7534 6.41061C69.0954 5.19155 76.7881 2.81647 79.9829 2.81647C83.1777 2.81647 90.8704 5.19155 94.2124 6.41061C96.062 7.0832 97.197 7.62968 96.6715 10.5933C95.1582 18.4542 87.6757 25.18 80.3612 29.5519C80.1721 29.657 80.067 29.657 79.9829 29.657ZM90.8494 28.2067C90.4291 28.2698 90.4291 28.1016 90.6392 27.9335C95.9149 23.7508 97.7014 20.6821 101.758 14.3766C102.977 12.4429 104.469 11.5601 107.748 11.1608C109.535 10.9506 147.767 7.37746 155.271 6.70487C155.691 6.66283 155.691 6.80996 155.46 7.04117C154.094 8.40736 152.559 9.7105 151.403 10.5512C147.473 13.5569 144.53 14.2925 139.738 14.4817C135.682 14.6288 110.964 15.8058 108.064 16.037C105.983 16.1842 105.352 16.5205 104.806 17.1931C104.553 17.4873 104.511 17.7395 104.869 17.7395C107.328 17.7395 122.524 17.6134 135.051 17.2981C135.156 17.2981 135.198 17.3612 135.093 17.4032C126.139 20.3668 118.972 22.2165 111.679 22.1744C108 22.1534 104.364 22.1114 102.914 22.1114C101.338 22.1114 100.707 22.2585 100.119 22.9941C99.8873 23.2884 99.9294 23.4776 100.455 23.5196C102.641 23.7088 105.772 23.94 109.451 24.1502C109.787 24.1712 109.787 24.2552 109.493 24.3183C101.148 26.315 96.7136 27.2609 90.8494 28.2067Z" fill="#65696D"/>
<path fill-rule="evenodd" clip-rule="evenodd" d="M69.1388 11.7905L69.5592 11.9587C69.6853 12.0217 69.7274 12.0638 69.7274 12.2109V13.1567C69.5592 13.2618 69.307 13.3459 69.0548 13.3249C68.235 13.2828 67.6465 12.6313 67.6465 11.6854C67.6465 10.7186 68.172 10.004 69.0968 10.004C69.307 10.004 69.8324 10.067 70.3369 10.4874L70.5261 9.79377C69.9165 9.54155 69.5382 9.45748 69.0758 9.45748C67.7726 9.43646 66.6797 10.1511 66.6797 11.7064C66.6797 13.0937 67.6465 13.8713 68.9287 13.8713C69.8745 13.8713 70.442 13.5561 70.5681 13.451V11.5383H69.2439L69.1388 11.7905ZM78.45 12.4211L76.18 9.56257H75.2972L75.1921 9.81479L75.3813 9.91988C75.5284 9.98294 75.5495 10.067 75.5495 10.1931V13.7873H76.222V11.0549L78.3869 13.7873H79.1226V9.58359H78.45V12.4211ZM83.2002 10.109L83.053 9.58359H80.0474L79.9423 9.83581L80.1315 9.9409C80.2576 10.004 80.2786 10.088 80.2786 10.2352V13.8293H83.1791V13.2828H81.2034V11.9166H82.9059V11.3912H81.2034V10.1511L83.2002 10.109ZM87.593 9.81479L87.7822 9.91988C87.9083 9.98294 87.9503 10.067 87.9503 10.2141V13.8083H88.8751V9.58359H87.6981L87.593 9.81479ZM85.8485 11.3281C85.323 11.0549 84.7765 10.9077 84.7765 10.4243C84.7765 10.1931 84.9867 10.004 85.4491 10.004C85.9115 10.004 86.3319 10.1721 86.7102 10.3403L86.8363 9.7097C86.479 9.58359 86.0166 9.49951 85.5332 9.49951C84.4402 9.49951 83.8938 9.98294 83.8938 10.6555C83.8938 11.3071 84.3352 11.6644 84.9867 11.9587C85.5542 12.2109 86.0376 12.4001 86.0376 12.7994C86.0376 13.1147 85.7854 13.3249 85.302 13.3249C84.8396 13.3249 84.3772 13.1567 83.9989 12.9886L83.8938 13.7242C84.0619 13.7873 84.7765 13.9134 85.302 13.9134C86.1848 13.9134 86.9625 13.493 86.9625 12.7153C86.9414 11.9587 86.395 11.6224 85.8485 11.3281ZM74.5406 10.109L74.3934 9.58359H71.3878L71.2827 9.83581L71.4719 9.9409C71.598 10.004 71.619 10.088 71.619 10.2352V13.8293H74.5196V13.2828H72.5648V11.9166H74.2673V11.3912H72.5648V10.1511L74.5406 10.109ZM91.9018 11.3281C91.3763 11.0549 90.8298 10.9077 90.8298 10.4243C90.8298 10.1931 91.04 10.004 91.5024 10.004C91.9648 10.004 92.3852 10.1721 92.7635 10.3403L92.8896 9.7097C92.5323 9.58359 92.0699 9.49951 91.5865 9.49951C90.4935 9.49951 89.905 9.98294 89.905 10.6555C89.905 11.3071 90.3674 11.6644 91.04 11.9587C91.6075 12.2109 92.0909 12.4001 92.0909 12.7994C92.0909 13.1147 91.8387 13.3249 91.3553 13.3249C90.8929 13.3249 90.4305 13.1567 90.0522 12.9886L89.9471 13.7242C90.1152 13.7873 90.8298 13.9134 91.3553 13.9134C92.2381 13.9134 93.0158 13.493 93.0158 12.7153C92.9947 11.9587 92.4483 11.6224 91.9018 11.3281Z" fill="#65696D"/>
<path fill-rule="evenodd" clip-rule="evenodd" d="M46.8789 47.6496C46.8789 44.4548 49.212 41.9746 52.4278 41.9746C54.6137 41.9746 56.2531 43.0045 57.1989 44.6229L56.085 45.4426C55.3493 44.1815 54.1303 43.3828 52.4278 43.3828C49.9686 43.3828 48.3922 45.2325 48.3922 47.6496C48.3922 50.0667 50.0317 51.9163 52.5539 51.9163C53.9621 51.9163 55.2022 51.3698 55.8958 50.6342V48.4693H53.7099V47.1451H57.3881V51.2858C56.1901 52.4838 54.5296 53.3246 52.5539 53.3246C49.275 53.3246 46.8789 50.8444 46.8789 47.6496Z" fill="#65696D"/>
<path fill-rule="evenodd" clip-rule="evenodd" d="M60.5615 42.1836H66.2785V43.4867H62.0328V46.9338H65.9422V48.2579H62.0328V51.789H66.2785V53.1132H60.5615V42.1836Z" fill="#65696D"/>
<path fill-rule="evenodd" clip-rule="evenodd" d="M71.0079 45.3364V53.1342H69.5156V42.1836H69.894L77.3975 49.9814V42.1836H78.8688V53.3234H78.5115L71.0079 45.3364Z" fill="#65696D"/>
<path fill-rule="evenodd" clip-rule="evenodd" d="M82.6328 42.1836H88.3498V43.4867H84.1041V46.9338H88.0135V48.2579H84.1041V51.789H88.3498V53.1132H82.6328V42.1836Z" fill="#65696D"/>
<path fill-rule="evenodd" clip-rule="evenodd" d="M90.6602 50.5291L91.8372 49.8565C92.2996 51.0546 93.2034 51.9373 94.6747 51.9373C96.0409 51.9373 96.8606 51.1386 96.8606 50.0667C96.8606 49.1839 96.3351 48.5954 95.053 48.2591L93.939 47.9649C92.3837 47.5655 91.3117 46.5566 91.3117 45.0853C91.3117 43.3198 92.6569 41.9746 94.7587 41.9746C96.4823 41.9746 97.7223 42.9625 98.2268 44.0975L97.1128 44.8331C96.5873 43.9293 95.7886 43.3828 94.7377 43.3828C93.5817 43.3828 92.825 44.0344 92.825 44.9802C92.825 45.7369 93.3505 46.2624 94.2753 46.5146L95.3683 46.8089C97.2389 47.3133 98.3949 48.3011 98.3949 50.0036C98.3949 51.9163 96.8606 53.3246 94.6747 53.3246C92.3837 53.3246 91.1856 51.9163 90.6602 50.5291Z" fill="#65696D"/>
<path d="M102.745 42.1836H101.253V53.1552H102.745V42.1836Z" fill="#65696D"/>
<path fill-rule="evenodd" clip-rule="evenodd" d="M105.415 50.5291L106.571 49.8565C107.033 51.0546 107.937 51.9373 109.409 51.9373C110.775 51.9373 111.594 51.1386 111.594 50.0667C111.594 49.1839 111.069 48.5954 109.787 48.2591L108.673 47.9649C107.118 47.5655 106.046 46.5566 106.046 45.0853C106.046 43.3198 107.391 41.9746 109.493 41.9746C111.216 41.9746 112.456 42.9625 112.961 44.0975L111.847 44.8331C111.321 43.9293 110.523 43.3828 109.472 43.3828C108.295 43.3828 107.559 44.0344 107.559 44.9802C107.559 45.7369 108.084 46.2624 109.009 46.5146L110.102 46.8089C111.994 47.3133 113.129 48.3011 113.129 50.0036C113.129 51.9163 111.594 53.3246 109.409 53.3246C107.139 53.3246 105.94 51.9163 105.415 50.5291Z" fill="#65696D"/>
</svg>
