<svg width="158" height="115" viewBox="0 0 158 115" fill="none" xmlns="http://www.w3.org/2000/svg">
<path fill-rule="evenodd" clip-rule="evenodd" d="M99.9973 111.798H99.9839C99.6731 111.806 98.5803 111.835 97.5075 111.798C94.7771 111.798 91.8294 109.695 91.8294 106.296C91.8294 102.925 94.7169 100.91 97.4941 100.912C97.5275 100.905 98.8827 100.847 99.9973 100.91C102.788 100.91 105.677 102.925 105.677 106.296C105.677 109.695 102.729 111.798 99.9973 111.798ZM102.661 98.7866C98.7774 98.6984 94.8322 98.7849 94.7988 98.7866C90.0549 98.7866 86.1982 102.145 86.1982 106.272C86.1982 110.461 90.0565 113.87 94.8021 113.87C94.8339 113.872 98.7791 113.952 102.664 113.87C107.416 113.87 111.283 110.461 111.283 106.272C111.281 102.185 107.493 98.8969 102.661 98.7866ZM153.14 113.679C153.14 113.679 157.792 113.677 157.976 113.677C157.976 113.485 157.974 106.49 157.974 106.49C157.974 102.292 154.291 99.0003 149.592 99.0003L137.357 98.9986C137.157 98.9986 136.692 99.0512 136.692 99.5464L136.694 113.121C136.694 113.485 136.953 113.677 137.207 113.677C137.207 113.677 142.136 113.679 142.32 113.679C142.32 113.485 142.319 102.323 142.319 102.323C142.319 101.824 142.688 101.561 143.05 101.561L148.687 101.558C150.246 101.558 152.552 103.01 152.552 106.122L152.55 113.105C152.55 113.111 152.565 113.679 153.14 113.679ZM51.0689 101.911C51.0689 101.911 58.428 101.912 58.6168 101.912V99.5735C58.6168 99.2462 58.3845 98.9986 58.0754 98.9986H37.0392C36.6967 98.9986 36.4912 99.2869 36.4912 99.5651V101.911C36.6766 101.911 41.5192 101.912 41.5192 101.912C43.4057 101.912 44.6723 103.564 44.6723 105.106V113.121C44.6723 113.385 44.9013 113.679 45.2271 113.679C45.2271 113.679 50.1432 113.68 50.3287 113.68V102.664C50.3303 102.248 50.6612 101.911 51.0689 101.911ZM27.8154 113.121C27.8154 113.45 28.1078 113.68 28.3701 113.68H28.6575C28.6575 113.68 28.6358 113.699 28.6174 113.716C28.7628 113.68 29.2558 113.68 30.9685 113.68C30.9685 113.68 33.2879 113.679 33.465 113.679V99.5566C33.465 99.2547 33.2177 98.9969 32.9236 98.9969H28.3685C28.0693 98.9969 27.8154 99.2547 27.8154 99.5566V113.121ZM67.2709 105.871V102.94C67.2709 102.138 67.8273 101.578 68.6277 101.578H76.1338C77.2718 101.578 78.2342 102.555 78.2342 103.708C78.2342 104.899 77.2818 105.869 76.1104 105.869H67.2709V105.871ZM78.2493 113.682H83.8605C83.7719 110.154 80.1759 108.693 79.7615 108.537L79.6897 108.509L79.6947 108.309L79.7682 108.292C82.1728 107.745 83.8505 105.865 83.8505 103.725C83.8505 101.451 81.6715 98.9952 78.149 98.9952L64.5772 98.9986C62.933 98.9986 61.6429 100.315 61.6429 101.995V113.119C61.6429 113.441 61.8702 113.674 62.1843 113.674C62.1843 113.674 67.0904 113.679 67.2775 113.679C67.2775 113.49 67.2742 108.472 67.2742 108.472H72.085C76.3594 108.472 78.1189 111.627 78.2493 113.682ZM19.2432 103.924H24.7357C23.546 100.854 20.2508 98.7476 16.4643 98.673L14.7766 98.6391C12.1314 98.5814 10.9233 98.5543 8.60729 98.673C5.90028 98.8121 4.19754 99.443 2.52821 100.927C0.898995 102.377 0.00167099 104.29 0 106.322C0 110.521 3.6578 113.814 8.50703 113.987C11.8306 114.108 12.1866 114.111 16.5462 113.979C20.585 113.855 23.4808 111.986 24.7307 108.732H19.2398C19.0326 108.732 18.8739 108.825 18.7686 109.011C17.7744 110.76 15.8711 111.847 13.8041 111.847C12.6745 111.895 11.3126 111.847 11.3126 111.847C8.52207 111.847 5.63292 109.79 5.63292 106.347L5.63459 106.315C5.65297 102.892 8.53376 100.849 11.326 100.847C11.6452 100.834 12.7697 100.796 13.8007 100.849C15.836 100.849 17.7911 101.951 18.777 103.657C18.812 103.717 18.9524 103.924 19.2432 103.924ZM133.666 111.041H120.368C119.921 111.041 119.606 110.738 119.606 110.304V107.505H131.131V104.929H119.606L119.601 102.375C119.601 102.363 119.593 102.089 119.797 101.873C119.949 101.714 120.171 101.632 120.46 101.632H133.664V99.5735C133.664 99.3972 133.616 99.2598 133.517 99.1648C133.335 98.9868 133.034 98.9969 133.016 98.9986H114.522C114.463 98.9986 113.958 99.0139 113.958 99.5752L113.96 110.692C113.96 112.162 115.066 113.68 116.919 113.68L133.116 113.679C133.25 113.679 133.389 113.619 133.496 113.518C133.606 113.411 133.668 113.273 133.668 113.133C133.668 113.131 133.668 111.221 133.666 111.041ZM129.532 93.6886C128.991 93.3461 128.341 93.1782 127.575 93.1782C126.813 93.1782 126.135 93.3579 125.617 93.6886C125.101 94.016 124.688 94.4586 124.076 94.4586C123.466 94.4586 123.099 94.0177 122.549 93.6886C121.998 93.3579 121.356 93.1782 120.592 93.1782C119.829 93.1782 119.179 93.3478 118.634 93.6886C118.094 94.0227 117.822 94.4332 117.822 94.9063C117.822 95.3846 118.094 95.7916 118.634 96.1274C119.179 96.4666 119.827 96.6328 120.592 96.6328C121.353 96.6328 122.016 96.47 122.507 96.1664C122.997 95.8611 123.525 95.3642 124.076 95.3642C124.629 95.3642 125.129 95.8103 125.619 96.1291C126.11 96.4445 126.815 96.6328 127.575 96.6328C128.361 96.6328 129.022 96.4666 129.55 96.1274C130.08 95.7916 130.344 95.3846 130.344 94.9063C130.342 94.4315 130.073 94.0227 129.532 93.6886ZM122.375 79.9397C114.313 72.9236 90.359 52.959 78.9879 52.959C67.6117 52.959 43.6764 72.91 35.6089 79.9312C35.5604 78.2726 35.5153 77.2652 35.5153 75.788C35.5153 75.788 35.3181 73.3493 37.4436 70.9088C54.9322 54.8263 73.2681 46.9571 73.8312 46.7163C79.2987 44.3708 78.9912 44.8117 78.9862 35.3993C78.9862 35.3993 79.2302 35.384 79.3856 35.401C87.0855 36.1082 107.787 56.5001 120.039 70.2864C120.061 70.3102 122.457 73.1254 122.457 76.0933C122.46 77.484 122.42 78.856 122.375 79.9397ZM122.046 68.4311C120.744 66.9658 90.0866 32.6197 78.9879 32.6197C67.8925 32.6197 37.2331 66.9658 35.933 68.4294L35.9314 68.4311C35.8044 68.5752 32.8116 72.0468 32.8116 76.095C32.8116 79.246 33.0172 82.4174 33.0205 82.448C33.0272 82.5938 33.099 83.9336 33.8326 84.2982C33.9512 84.3576 34.0799 84.3881 34.2119 84.3881C34.4843 84.3881 34.7884 84.2643 35.1176 84.0201C35.4485 83.7233 66.681 55.7251 78.9879 55.7251C91.2964 55.7251 122.531 83.7233 122.843 84.0065C123.184 84.2609 123.491 84.3881 123.767 84.3881C123.901 84.3881 124.026 84.3576 124.146 84.2999C124.878 83.937 124.95 82.5955 124.957 82.4446C124.959 82.4208 125.164 79.2494 125.164 76.0984C125.164 72.0468 122.171 68.5752 122.046 68.4311ZM122.332 47.2725C114.278 40.2649 90.3473 20.3207 78.9895 20.3207C67.6251 20.3207 43.7132 40.2531 35.654 47.2658C35.6055 45.6105 35.5604 44.6014 35.5604 43.1277C35.5604 43.1277 35.3632 40.6906 37.4871 38.2536C54.959 22.1862 73.2764 14.3256 73.8379 14.0848C79.3003 11.741 78.9929 12.1819 78.9879 2.77964C78.9879 2.77964 79.2302 2.76438 79.3872 2.78134C87.0788 3.48854 107.761 23.8601 119.999 37.6311C120.021 37.6549 122.415 40.4668 122.415 43.4329C122.417 44.8202 122.375 46.1905 122.332 47.2725ZM122.003 35.7758C120.701 34.3122 90.0749 0 78.9879 0C67.9042 0 37.2749 34.3122 35.9765 35.7741L35.9748 35.7758C35.8478 35.9199 32.8567 39.3881 32.8567 43.4329C32.8567 46.5806 33.0639 49.7486 33.0656 49.7791C33.0723 49.925 33.1442 51.2631 33.8761 51.6277C33.9947 51.6871 34.1234 51.7159 34.2554 51.7159C34.5277 51.7159 34.8302 51.5921 35.1594 51.3479C35.4919 51.0511 66.6927 23.0817 78.9879 23.0817C91.2847 23.0817 122.487 51.0511 122.8 51.3343C123.139 51.5887 123.446 51.7142 123.722 51.7142C123.856 51.7142 123.981 51.6854 124.101 51.626C124.832 51.2631 124.905 49.9233 124.91 49.7724C124.912 49.7486 125.117 46.5806 125.117 43.4329C125.119 39.3881 122.13 35.9199 122.003 35.7758Z" fill="#65696D"/>
</svg>
