<svg width="149" height="27" viewBox="0 0 149 27" fill="none" xmlns="http://www.w3.org/2000/svg">
<path d="M64.7231 26.5863C65.25 26.5863 68.4538 26.5685 71.0403 26.3803C74.166 26.1525 75.777 25.0331 76.9575 23.4293C78.4216 21.4442 78.4121 17.7219 78.4101 14.8254C78.4083 11.5906 78.4512 2.21875 78.4378 1.38305C78.4274 0.544245 78.1235 0.108383 77.2051 0.116302C76.2858 0.122358 73.6935 0.116302 72.8037 0.124377L71.2184 0.116302C70.2992 0.108539 69.9962 0.544245 69.9829 1.38305V2.28148C69.9962 3.27355 69.9705 12.729 69.9666 14.9459V15.9278C69.9419 17.9697 69.7037 19.9557 66.939 20.2632C65.7462 20.3945 65.1996 20.4532 63.7218 20.4532C62.2425 20.4532 61.6974 20.3945 60.4884 20.2632C57.7246 19.9596 57.557 17.9697 57.5313 15.9278V14.9459C57.5275 12.729 57.5017 3.27355 57.5132 2.28148V1.38305C57.5017 0.544245 57.197 0.108383 56.2795 0.116302L54.6923 0.124377C53.8025 0.116302 51.2122 0.122358 50.2919 0.116302C49.3746 0.108539 49.0705 0.544245 49.0601 1.38305C49.0467 2.21875 49.0563 11.5906 49.0525 14.8254C49.0508 17.7219 49.043 21.4442 50.5054 23.4293C51.6829 25.0333 53.2719 26.1525 56.3871 26.3803C58.9737 26.5704 62.0823 26.5863 62.7711 26.5863H64.7232H64.7231ZM8.54079 25.3702C8.52265 26.2806 8.26545 26.6399 7.37282 26.6618C6.47722 26.6887 2.09584 26.6738 1.29762 26.6668C0.502966 26.6578 0.0133878 26.4059 0.0114551 25.5156C0.00580552 24.626 0.00580552 2.25928 7.29432e-06 1.4096C-0.00192545 0.563965 0.380163 0.163041 1.21942 0.189748C2.05689 0.210711 6.36006 0.165991 7.50232 0.186798C8.3664 0.179811 8.56934 0.700299 8.57216 1.62963C8.59312 2.8793 8.56175 24.4648 8.54079 25.3702ZM127.924 16.3221C127.94 18.4214 128.426 19.8264 130.729 20.2006C132.574 20.3995 135.069 20.4403 136.984 20.2374C138.737 20.0363 140.087 19.2941 140.166 17.2214C140.254 15.4713 140.262 15.1698 140.268 13.324C140.277 8.84457 140.231 2.33816 140.245 1.69951L140.252 1.42777C140.238 0.435862 140.671 0.0169252 141.476 0.0169252L141.957 0C142.872 0.0080744 146.556 0.0170805 147.448 0.0170805C148.252 0.0170805 148.686 0.435862 148.672 1.42793L148.661 1.73739C148.678 2.67263 148.65 12.5819 148.641 15.5061C148.59 16.9747 148.49 20.3956 147.407 22.5647C146.464 24.4473 144.776 25.8949 141.905 26.1924C136.388 26.7665 131.358 26.5278 127.485 26.3586C124.606 26.2033 122.751 25.5297 121.212 23.7437C119.471 21.6961 119.379 18.1966 119.405 14.1828C119.372 5.32631 119.346 2.77418 119.359 1.92931V1.42777C119.346 0.435862 119.779 0.0169252 120.583 0.0169252L121.062 0C121.986 0.0080744 125.808 0.0170805 126.701 0.0170805C127.503 0.0170805 127.94 0.435862 127.924 1.42793C127.91 2.42387 127.92 13.7659 127.924 16.2643V16.3221ZM85.0103 0.09534C85.8716 0.0686324 101.274 0.0875761 106.09 0.115371C110.354 0.165059 111.931 0.798899 113.089 2.41688C114.424 4.28642 114.563 6.62861 113.483 8.55591C112.708 9.93787 111.276 11.1439 109.126 12.2394C107.42 13.1549 104.433 14.5439 101.513 15.8861C97.602 17.6901 94.0607 19.2522 93.4654 19.5776C92.6593 20.0194 92.9643 20.681 93.6045 20.6711C95.2755 20.6501 111.41 20.5128 112.271 20.5108C113.136 20.5099 113.417 20.8354 113.417 21.8054C113.416 22.8203 113.425 24.5555 113.427 25.3426C113.407 26.2888 113.118 26.5475 112.26 26.5565C111.28 26.5674 94.0923 26.5724 92.8699 26.5783C90.1529 26.5714 87.3549 26.5823 85.6859 25.7376C83.6015 24.6799 82.8963 22.5596 82.8944 21.0731C82.9936 17.4503 84.9266 16.2901 88.4095 14.6046C92.2822 12.7687 103.714 7.60375 104.395 7.27332C105.24 6.86246 104.978 6.0544 104.194 6.08142C103.593 6.09431 86.0821 6.18778 85.2171 6.18701C84.3548 6.1839 83.8062 6.03856 83.8062 5.16497C83.808 4.29542 83.7986 2.1144 83.7986 1.2169C83.7986 0.315367 84.1453 0.124377 85.0103 0.0954953V0.09534ZM39.7858 13.7187C35.9123 12.0383 24.6098 8.30421 23.1102 7.52906C22.3881 7.20454 22.4368 6.24151 23.4141 6.24151C25.0833 6.26728 41.6503 6.30113 42.5154 6.30719C43.3794 6.30921 43.7434 5.95782 43.7434 4.98578C43.7472 3.97183 43.7405 2.1113 43.729 1.29439C43.7176 0.463657 43.4308 0.149066 42.7163 0.147047C42.0019 0.147047 22.8682 0.17096 22.8682 0.17096C17.5285 0.158072 16.1586 0.978865 14.6457 2.87635C12.6734 5.35193 13.3002 8.70327 14.4321 10.4315C15.7068 12.3647 17.8114 13.2193 21.16 14.4432C25.2165 15.8213 34.7699 19.3307 34.7699 19.3307C35.6454 19.7257 35.5787 20.684 34.4975 20.684C34.4975 20.684 16.2737 20.5127 15.4105 20.5108C14.5455 20.5099 14.1234 20.9506 14.1197 21.8232C14.1197 22.6959 14.112 24.2948 14.1083 25.2021C14.1083 26.0996 14.3577 26.612 15.2229 26.644C16.0822 26.6749 31.7518 26.6131 36.5704 26.6031C40.2364 26.5932 43.7775 25.4101 44.5044 21.1815C44.9398 17.5377 43.4631 15.2791 39.7858 13.7189" fill="#53575C"/>
</svg>
