<svg width="160" height="23" viewBox="0 0 160 23" fill="none" xmlns="http://www.w3.org/2000/svg">
<path d="M138.401 0.785156C138.219 1.76699 136.758 7.96483 132.438 17.8446C131.952 18.8878 132.013 19.9923 132.56 20.7901C133.229 21.8333 134.811 22.3242 137.124 22.3242H156.29L160.001 18.1514H142.782C142.052 18.1514 141.139 18.0287 140.774 17.4764C140.592 17.2309 140.47 16.8627 140.774 16.1877C140.774 16.1263 142.417 12.6899 144.242 6.7989C145.277 3.48521 148.684 1.09198 149.11 0.846521C149.171 0.846521 149.232 0.785156 149.232 0.785156H138.401Z" fill="#53575C"/>
<path d="M123.555 5.32615L123.494 5.57161C123.494 5.57161 122.947 6.983 121.852 9.98987C120.695 13.1195 120.148 14.1627 120.148 14.224L120.087 14.2854H110.291L110.595 13.9786C111.021 13.6104 111.751 12.874 112.603 12.0149C114.246 10.3581 116.315 8.33302 117.714 7.22846C119.783 5.63297 122.338 5.32615 123.312 5.26478L123.555 5.32615ZM121.243 1.5829C119.783 1.88972 118.383 2.38064 116.923 3.05565C114.307 4.28295 111.264 7.10573 108.648 9.68305C104.511 13.6718 96.6617 20.7901 94.958 22.2628H103.659C103.659 22.2628 104.632 21.1583 105.302 20.4832C106.944 19.0105 109.865 18.1514 113.212 18.09H118.383L116.497 22.2628H123.738C124.103 21.4651 126.354 16.0036 128.301 10.7876C129.396 7.8421 130.492 4.52841 131.648 0.907886C131.648 0.846521 131.708 0.785156 131.708 0.785156C125.928 0.785156 122.825 1.21471 121.243 1.5829Z" fill="#53575C"/>
<path d="M97.3923 0.785156C97.3923 0.785156 94.2892 4.22158 91.4295 7.04436C88.5698 9.86714 83.8847 14.224 83.8847 14.224L82.5461 0.785156H74.332L76.0357 22.3242H85.2841L107.675 0.785156H97.3923Z" fill="#53575C"/>
<path d="M60.7032 5.32615L60.5815 5.57161C60.5815 5.63297 58.2694 9.98987 56.6266 14.224L56.5658 14.3468H46.7697L47.0131 14.1013C48.8993 11.9535 52.0632 8.8853 54.4362 7.28982C56.8091 5.69434 59.4255 5.44888 60.399 5.38751L60.7032 5.32615ZM52.7325 3.42384C50.177 4.77386 45.6137 7.90347 41.7804 11.524C37.5821 15.39 33.0187 21.0355 31.9844 22.2628H40.5635C40.8069 21.8946 41.537 20.9128 42.0847 20.4219C44.1534 18.5196 46.7697 18.1514 50.2987 18.1514H55.1663L55.1055 18.3355C55.1055 18.3355 54.4362 20.2991 53.8886 22.2628H60.8858C61.1291 21.4651 62.5894 16.4332 64.4148 11.4626C66.0576 7.04436 68.0046 2.56473 68.7956 0.785156C63.1979 0.785156 57.3567 1.03061 52.7325 3.42384Z" fill="#53575C"/>
<path d="M28.4549 0.785974C26.2645 4.09967 23.709 8.88612 23.6481 8.94749V9.00885H23.5264C23.4047 9.00885 23.283 9.00885 23.1614 9.00885C19.6932 9.00885 15.3732 9.74523 13.1828 10.4816L12.8177 10.6043L13.0002 10.2361C15.5557 5.20424 17.9287 1.64508 18.5371 0.724609H9.95799C9.53207 1.27689 6.67236 5.32697 4.05603 10.9112C1.56138 16.2499 0.1011 21.2204 -0.203125 22.2636H8.43687C8.68025 21.3432 10.0797 16.0044 12.7569 14.3476C15.1907 12.8748 19.3281 12.6907 20.9709 12.6907C21.2143 12.6907 21.3968 12.6907 21.5794 12.6907H21.8228L21.7011 12.9362C20.3625 15.8203 18.6588 21.0977 18.2938 22.2636H27.238C27.4814 21.65 28.8199 18.1522 31.7405 11.4634C33.4442 7.5361 36.6689 2.01327 37.3991 0.785974H28.4549Z" fill="#53575C"/>
</svg>
