<svg width="146" height="165" viewBox="0 0 146 165" fill="none" xmlns="http://www.w3.org/2000/svg">
<g filter="url(#filter0_d_363_2011)">
<path d="M137 71.8212C137 101.848 116.209 127.031 88.2 133.835C83.3279 135.019 73 153.996 73 153.996C73 153.996 62.6721 135.019 57.8 133.835C29.7914 127.031 9 101.848 9 71.8212C9 36.5716 37.6538 7.99609 73 7.99609C108.346 7.99609 137 36.5716 137 71.8212Z" fill="#D84B53"/>
</g>
<ellipse cx="72.9996" cy="71.4961" rx="56.9449" ry="56.5" fill="#272E35"/>
<path d="M32 64.0469L37.6044 50.2969H40.0063L45.6108 64.0469H43.309L41.9079 60.5112H35.7029L34.3018 64.0469H32ZM36.5036 58.5469H41.1072L38.8054 52.8504L36.5036 58.5469Z" fill="white"/>
<path d="M47.8164 64.0469V50.2969H50.0182V61.9844H56.8236V64.0469H47.8164Z" fill="white"/>
<path d="M59.2317 64.0469V50.2969H69.1396V52.3594H61.4335V55.8951H67.5383V57.9576H61.4335V61.9844H69.3397V64.0469H59.2317Z" fill="white"/>
<path d="M72.2499 64.0469V50.2969H74.2514L81.9576 60.4129V50.2969H84.1593V64.0469H82.1577L74.4516 53.9308V64.0469H72.2499Z" fill="white"/>
<path d="M90.763 64.0469V52.3594H86.5596V50.2969H97.168V52.3594H92.9647V64.0469H90.763Z" fill="white"/>
<path d="M99.5762 64.0469V50.2969H109.484V52.3594H101.778V55.8951H107.883V57.9576H101.778V61.9844H109.684V64.0469H99.5762Z" fill="white"/>
<path d="M99 73H43C42.4477 73 42 73.4477 42 74V93C42 93.5523 42.4477 94 43 94H99C99.5523 94 100 93.5523 100 93V74C100 73.4477 99.5523 73 99 73Z" fill="#D84B53"/>
<path d="M46 88.8472L50.9247 78.1528H53.0352L57.9599 88.8472H55.9373L54.7061 86.0972H49.2538L48.0226 88.8472H46ZM49.9573 84.5694H54.0026L51.98 80.1389L49.9573 84.5694Z" fill="white"/>
<path d="M59.3786 84.5694V78.1528H61.3133V84.5694C61.3133 85.4046 61.624 86.0972 62.2455 86.6472C62.8669 87.1972 63.6408 87.4722 64.5671 87.4722C65.4465 87.4722 66.2087 87.187 66.8536 86.6167C67.4985 86.0463 67.8209 85.3639 67.8209 84.5694V78.1528H69.7556V84.5694C69.7556 85.8731 69.2749 86.9375 68.3134 87.7625C67.3519 88.5875 66.1031 89 64.5671 89C63.0311 89 61.7823 88.5875 60.8208 87.7625C59.8594 86.9375 59.3786 85.8731 59.3786 84.5694Z" fill="white"/>
<path d="M75.3755 88.8472V79.7569H71.682V78.1528H81.0037V79.7569H77.3102V88.8472H75.3755Z" fill="white"/>
<path d="M85.2386 80.6889C84.3592 81.4528 83.9195 82.3898 83.9195 83.5C83.9195 84.6102 84.3592 85.5523 85.2386 86.3264C86.1297 87.0903 87.2143 87.4722 88.4924 87.4722C89.7705 87.4722 90.8492 87.0903 91.7286 86.3264C92.6197 85.5523 93.0653 84.6102 93.0653 83.5C93.0653 82.3898 92.6197 81.4528 91.7286 80.6889C90.8492 79.9148 89.7705 79.5278 88.4924 79.5278C87.2143 79.5278 86.1297 79.9148 85.2386 80.6889ZM83.8492 87.4111C82.6063 86.3417 81.9848 85.038 81.9848 83.5C81.9848 81.962 82.6063 80.6634 83.8492 79.6042C85.1038 78.5347 86.6515 78 88.4924 78C90.3333 78 91.8752 78.5347 93.1181 79.6042C94.3727 80.6634 95 81.962 95 83.5C95 85.038 94.3727 86.3417 93.1181 87.4111C91.8752 88.4704 90.3333 89 88.4924 89C86.6515 89 85.1038 88.4704 83.8492 87.4111Z" fill="white"/>
<defs>
<filter id="filter0_d_363_2011" x="0" y="0.996094" width="146" height="164" filterUnits="userSpaceOnUse" color-interpolation-filters="sRGB">
<feFlood flood-opacity="0" result="BackgroundImageFix"/>
<feColorMatrix in="SourceAlpha" type="matrix" values="0 0 0 0 0 0 0 0 0 0 0 0 0 0 0 0 0 0 127 0" result="hardAlpha"/>
<feOffset dy="2"/>
<feGaussianBlur stdDeviation="4.5"/>
<feComposite in2="hardAlpha" operator="out"/>
<feColorMatrix type="matrix" values="0 0 0 0 1 0 0 0 0 1 0 0 0 0 1 0 0 0 0.25 0"/>
<feBlend mode="normal" in2="BackgroundImageFix" result="effect1_dropShadow_363_2011"/>
<feBlend mode="normal" in="SourceGraphic" in2="effect1_dropShadow_363_2011" result="shape"/>
</filter>
</defs>
</svg>
