<svg width="32" height="32" viewBox="0 0 32 32" fill="none" xmlns="http://www.w3.org/2000/svg">
<path d="M16.0277 7.70898C11.4223 7.70898 7.6748 11.4018 7.6748 15.9414C7.6748 20.4804 11.4218 24.1733 16.0277 24.1733C20.6331 24.1733 24.3806 20.4804 24.3806 15.9414C24.3806 11.4018 20.6331 7.70898 16.0277 7.70898ZM16.0277 21.1425C13.0993 21.1425 10.7173 18.8089 10.7173 15.9414C10.7173 13.0733 13.0993 10.7402 16.0277 10.7402C18.9556 10.7402 21.3381 13.0733 21.3381 15.9414C21.3381 18.8094 18.9561 21.1425 16.0277 21.1425Z" fill="#AEB1B4"/>
<path d="M22.7893 0H9.21075C4.13222 0 0 4.11568 0 9.17503V22.825C0 27.8838 4.1317 32 9.21075 32H22.7893C27.8683 32 32 27.8838 32 22.825V9.17503C32 4.1162 27.8683 0 22.7893 0ZM28.9517 22.825C28.9517 26.2097 26.1871 28.9636 22.7893 28.9636H9.21075C5.81285 28.9636 3.04827 26.2097 3.04827 22.825V9.17503C3.04827 5.79031 5.81285 3.03645 9.21075 3.03645H22.7893C26.1871 3.03645 28.9517 5.79031 28.9517 9.17503V22.825Z" fill="#AEB1B4"/>
<path d="M24.5279 9.32954C25.6133 9.32954 26.4932 8.45303 26.4932 7.3718C26.4932 6.29057 25.6133 5.41406 24.5279 5.41406C23.4424 5.41406 22.5625 6.29057 22.5625 7.3718C22.5625 8.45303 23.4424 9.32954 24.5279 9.32954Z" fill="#AEB1B4"/>
</svg>
