<svg width="32" height="32" viewBox="0 0 32 32" fill="none" xmlns="http://www.w3.org/2000/svg">
<path d="M27.3384 4.65034C24.3303 1.65294 20.3296 0.00158733 16.0673 0C7.28532 0 0.137168 7.11282 0.133978 15.8558C0.132915 18.6506 0.866603 21.3787 2.26061 23.7829L0 32L8.44646 29.7952C10.7735 31.0587 13.3941 31.7243 16.0603 31.7254H16.0667C24.8481 31.7254 31.9963 24.6115 32 15.869C32.0027 11.6314 30.3471 7.64775 27.3384 4.65034ZM16.0678 29.047H16.0625C13.686 29.046 11.3552 28.4105 9.3221 27.21L8.83829 26.9243L3.82582 28.2327L5.16347 23.3692L4.84873 22.8702C3.5233 20.7718 2.82311 18.3469 2.82417 15.8563C2.82683 8.58956 8.76811 2.67782 16.0726 2.67782C19.6097 2.67888 22.9347 4.05192 25.4351 6.54297C27.9355 9.03401 29.3114 12.3452 29.3103 15.8669C29.3077 23.1348 23.3669 29.047 16.0678 29.047Z" fill="#AEB1B4"/>
<path d="M23.3314 19.1757C22.9332 18.9773 20.9761 18.0191 20.6109 17.8868C20.2462 17.7545 19.9803 17.6884 19.715 18.0852C19.4497 18.482 18.6868 19.3741 18.4545 19.6387C18.2221 19.9032 17.9898 19.936 17.5921 19.7376C17.1939 19.5392 15.911 19.1212 14.3905 17.7709C13.207 16.7201 12.4079 15.4227 12.1756 15.0264C11.9433 14.6296 12.1506 14.4153 12.35 14.218C12.5291 14.0402 12.7482 13.755 12.947 13.5238C13.1459 13.2925 13.2123 13.1269 13.3452 12.8629C13.4782 12.5984 13.4117 12.3671 13.3123 12.1687C13.2129 11.9703 12.4164 10.02 12.0847 9.22686C11.7614 8.45437 11.4334 8.55913 11.1888 8.54696C10.957 8.53532 10.6912 8.5332 10.4259 8.5332C10.1606 8.5332 9.72943 8.63215 9.36418 9.02898C8.99946 9.42581 7.9707 10.384 7.9707 12.3343C7.9707 14.2846 9.39714 16.1688 9.59652 16.4328C9.79536 16.6974 12.4037 20.699 16.3975 22.4154C17.3476 22.8239 18.0887 23.0673 18.6671 23.2498C19.6209 23.5514 20.4886 23.5091 21.175 23.407C21.94 23.2932 23.5302 22.4488 23.862 21.5234C24.1937 20.598 24.1937 19.8043 24.0943 19.6392C23.9949 19.4736 23.7296 19.3741 23.3314 19.1757Z" fill="#AEB1B4"/>
</svg>
