<svg width="22" height="11" viewBox="0 0 22 11" fill="none" xmlns="http://www.w3.org/2000/svg">
<path fill-rule="evenodd" clip-rule="evenodd" d="M5.7502 1.64229C4.76889 1.64229 3.82779 2.03147 3.1339 2.72421C2.44002 3.41696 2.0502 4.35652 2.0502 5.33621C2.0502 6.31589 2.44002 7.25546 3.1339 7.9482C3.82779 8.64094 4.76889 9.03012 5.7502 9.03012H8.40613C8.84796 9.03012 9.20613 9.38771 9.20613 9.82881C9.20613 10.2699 8.84796 10.6275 8.40613 10.6275H5.7502C4.34455 10.6275 2.99647 10.07 2.00253 9.07771C1.00859 8.0854 0.450195 6.73954 0.450195 5.33621C0.450195 3.93287 1.00859 2.58701 2.00253 1.5947C2.99647 0.602395 4.34455 0.0449219 5.7502 0.0449219H8.34754C8.78937 0.0449219 9.14754 0.402505 9.14754 0.843606C9.14754 1.28471 8.78937 1.64229 8.34754 1.64229H5.7502ZM12.8529 0.843606C12.8529 0.402505 13.211 0.0449219 13.6529 0.0449219H16.2502C17.6558 0.0449219 19.0039 0.602395 19.9979 1.5947C20.9918 2.58701 21.5502 3.93287 21.5502 5.33621C21.5502 6.73954 20.9918 8.0854 19.9979 9.07771C19.0039 10.07 17.6558 10.6275 16.2502 10.6275H13.5943C13.1524 10.6275 12.7943 10.2699 12.7943 9.82881C12.7943 9.38771 13.1524 9.03012 13.5943 9.03012H16.2502C17.2315 9.03012 18.1726 8.64094 18.8665 7.9482C19.5604 7.25546 19.9502 6.31589 19.9502 5.33621C19.9502 4.35652 19.5604 3.41696 18.8665 2.72421C18.1726 2.03147 17.2315 1.64229 16.2502 1.64229H13.6529C13.211 1.64229 12.8529 1.28471 12.8529 0.843606Z" fill="#DA4B54"/>
</svg>
