<svg width="91" height="22" viewBox="0 0 91 22" fill="none" xmlns="http://www.w3.org/2000/svg">
<path d="M91 15.3763V13.2473C91 9.69893 88.1634 6.78136 84.6369 6.78136H83.257C79.7304 6.78136 76.8939 9.69893 76.8939 13.2473V15.534C76.8939 19.0824 79.7304 22 83.257 22H84.6369C87.6268 22 90.1567 19.871 90.8467 17.0323H87.0135C86.4768 18.2151 85.3269 19.0824 83.9469 19.0824C82.107 19.0824 80.5737 17.5842 80.5737 15.6918V15.4552H91V15.3763ZM80.5737 13.0896C80.5737 11.1971 82.107 9.69893 83.9469 9.69893C85.7868 9.69893 87.3202 11.1971 87.3202 13.0896V13.7204H80.5737V13.0896ZM6.43976 1.57706L0 21.6057H4.29318L10.9629 1.57706L17.6327 21.6057H21.9259L15.4861 1.57706H6.43976ZM10.8863 16.5591L4.21651 21.6057H17.4794L10.8863 16.5591ZM24.8391 21.6057H28.6723V0L24.8391 2.91756V21.6057ZM70.4541 7.01792H66.6209L70.4541 4.10036V1.49821H66.6209V6.93907H64.1677V9.62007H66.6209V16.8746C66.6209 18.2151 66.8509 21.9212 71.3741 21.9212C73.2907 21.9212 74.5939 21.2903 74.5939 21.2903V18.4516C74.5939 18.4516 73.5973 18.9247 72.4474 18.9247C71.2974 18.9247 70.5308 18.0574 70.5308 16.5591V9.62007H74.6706V6.93907L70.4541 7.01792ZM39.5586 6.70251H38.1786C34.6521 6.70251 31.8155 9.62007 31.8155 13.1685V15.4552C31.8155 19.0036 34.6521 21.9212 38.1786 21.9212H39.5586C42.5485 21.9212 45.0784 19.7921 45.7683 16.9534H41.9351C41.3985 18.1362 40.2485 19.0036 38.8686 19.0036C37.0286 19.0036 35.4954 17.5054 35.4954 15.6129V15.3763H45.9217V13.2473C45.9217 9.62007 43.0851 6.70251 39.5586 6.70251ZM42.2418 13.7204H35.4954V13.0896C35.4954 11.1971 37.0286 9.69893 38.8686 9.69893C40.7085 9.69893 42.2418 11.1971 42.2418 13.0896V13.7204ZM57.4979 6.78136C55.3513 6.78136 53.5114 7.80645 52.8214 10.4875V7.01792H48.9882V21.6057H52.8214V12.2222C53.1281 11.3548 53.8947 9.77778 55.8113 9.77778C58.4179 9.77778 58.6479 11.9857 58.6479 12.6953C58.6479 12.6953 58.6479 12.6953 58.6479 12.7742V21.6057H62.481V12.3011C62.4044 10.724 61.7911 6.78136 57.4979 6.78136Z" fill="#81878C"/>
</svg>
